<?xml version="1.0" encoding="utf-8"?>
<!-- Generator: Adobe Illustrator 16.0.0, SVG Export Plug-In . SVG Version: 6.00 Build 0)  -->
<!DOCTYPE svg PUBLIC "-//W3C//DTD SVG 1.1//EN" "http://www.w3.org/Graphics/SVG/1.1/DTD/svg11.dtd">
<svg version="1.1" id="Layer_1" xmlns="http://www.w3.org/2000/svg" xmlns:xlink="http://www.w3.org/1999/xlink" x="0px" y="0px"
	 width="150px" height="150px" viewBox="0 0 150 150" enable-background="new 0 0 150 150" xml:space="preserve">
<g>
	<path fill="#333333" d="M20.945,130.026h108.11c11.548,0,20.944-9.396,20.944-20.945V40.918c0-11.549-9.396-20.944-20.944-20.944
		H20.945C9.396,19.974,0,29.369,0,40.918v68.163C0,120.631,9.396,130.026,20.945,130.026z M20.945,29.666h108.11
		c5.897,0,10.75,4.561,11.216,10.34H9.728C10.193,34.227,15.047,29.666,20.945,29.666z M9.691,59.82V49.697h130.617V59.82H9.691z
		 M129.056,120.334H20.945c-6.205,0-11.254-5.047-11.254-11.253V69.514h130.617v39.567
		C140.309,115.287,135.26,120.334,129.056,120.334z"/>
	<path fill="#333333" d="M25.197,96.824h12.977c2.672,0,4.846-2.174,4.846-4.846s-2.174-4.846-4.846-4.846H25.197
		c-2.672,0-4.847,2.174-4.847,4.846S22.525,96.824,25.197,96.824z"/>
	<path fill="#333333" d="M51.744,100.232H25.197c-2.672,0-4.847,2.174-4.847,4.846s2.175,4.847,4.847,4.847h26.547
		c2.672,0,4.846-2.175,4.846-4.847S54.416,100.232,51.744,100.232z"/>
	<path fill="#333333" d="M116.041,80.847c-2.572,0-5.061,0.675-7.272,1.964c-2.212-1.289-4.7-1.964-7.272-1.964
		c-8.018,0-14.541,6.522-14.541,14.539s6.523,14.539,14.541,14.539c2.571,0,5.061-0.675,7.272-1.964
		c2.212,1.289,4.702,1.964,7.272,1.964c8.018,0,14.54-6.522,14.54-14.539S124.059,80.847,116.041,80.847z M116.041,100.232
		c-0.275,0-0.549-0.024-0.82-0.072c0.536-1.533,0.814-3.152,0.814-4.774c0-1.623-0.278-3.243-0.814-4.776
		c0.271-0.047,0.545-0.07,0.82-0.07c2.674,0,4.85,2.174,4.85,4.847S118.715,100.232,116.041,100.232z M105.512,98.094
		c-0.402,0.594-0.951,1.104-1.585,1.475c-0.743,0.436-1.585,0.664-2.431,0.664c-2.674,0-4.848-2.174-4.848-4.847
		s2.174-4.847,4.848-4.847c0.847,0,1.688,0.229,2.43,0.662c0.635,0.372,1.184,0.882,1.586,1.475c0.544,0.802,0.831,1.738,0.831,2.71
		C106.343,96.355,106.056,97.293,105.512,98.094z"/>
</g>
</svg>
