<?xml version="1.0" encoding="utf-8"?>
<!-- Generator: Adobe Illustrator 16.0.0, SVG Export Plug-In . SVG Version: 6.00 Build 0)  -->
<!DOCTYPE svg PUBLIC "-//W3C//DTD SVG 1.1//EN" "http://www.w3.org/Graphics/SVG/1.1/DTD/svg11.dtd">
<svg version="1.1" id="Layer_1" xmlns="http://www.w3.org/2000/svg" xmlns:xlink="http://www.w3.org/1999/xlink" x="0px" y="0px"
	 width="150px" height="150px" viewBox="0 0 150 150" enable-background="new 0 0 150 150" xml:space="preserve">
<g>
	<g>
		<polygon fill="#461F00" points="149.168,34.936 114.231,34.936 114.231,0 114.231,0 35.767,0 35.767,150 149.168,150 
			149.168,34.936 		"/>
		<polygon fill="#FFC003" points="114.231,34.936 149.168,34.936 114.231,0 		"/>
	</g>
	<rect x="0.832" y="7.763" fill="#FFC003" width="107.855" height="36.321"/>
	<g>
		<path fill="#FFB94D" d="M89.913,113.167H71.889l-3.906,14.271H56.717l17.8-55.581h13.069l17.875,55.581H93.819L89.913,113.167z
			 M87.511,104.53l-1.651-6.085c-1.729-5.782-3.232-12.168-4.882-18.175h-0.302c-1.428,6.082-3.079,12.393-4.732,18.175
			l-1.651,6.085H87.511z"/>
		<path fill="#FFB94D" d="M110.039,72.609c0-3.605,2.778-6.009,6.609-6.009c3.755,0,6.534,2.403,6.534,6.009
			c0,3.454-2.779,6.009-6.534,6.009C112.817,78.618,110.039,76.063,110.039,72.609z M111.091,85.377h10.966v42.062h-10.966V85.377z"
			/>
	</g>
	<g>
		<path fill="#412A0D" d="M52.41,32.853h-6.784l-1.469,6.456h-4.241l6.699-25.142h4.919l6.729,25.142h-4.382L52.41,32.853z
			 M51.507,28.945l-0.622-2.752c-0.65-2.615-1.216-5.504-1.838-8.222h-0.113c-0.536,2.753-1.16,5.606-1.781,8.222l-0.621,2.752
			H51.507z"/>
		<path fill="#412A0D" d="M60.719,14.167h4.184v25.142h-4.184V14.167z"/>
	</g>
</g>
</svg>
