<?xml version="1.0" encoding="utf-8"?>
<!-- Generator: Adobe Illustrator 16.0.0, SVG Export Plug-In . SVG Version: 6.00 Build 0)  -->
<!DOCTYPE svg PUBLIC "-//W3C//DTD SVG 1.1//EN" "http://www.w3.org/Graphics/SVG/1.1/DTD/svg11.dtd">
<svg version="1.1" id="Layer_1" xmlns="http://www.w3.org/2000/svg" xmlns:xlink="http://www.w3.org/1999/xlink" x="0px" y="0px"
	 width="150px" height="150px" viewBox="0 0 150 150" enable-background="new 0 0 150 150" xml:space="preserve">
<g>
	<path fill="#333333" d="M75.482,78.218c21.564,0,39.107-17.544,39.107-39.109C114.59,17.544,97.047,0,75.482,0
		S36.375,17.544,36.375,39.108C36.375,60.674,53.918,78.218,75.482,78.218z M75.482,11.613c15.16,0,27.494,12.335,27.494,27.495
		c0,15.162-12.334,27.497-27.494,27.497S47.988,54.271,47.988,39.108C47.988,23.948,60.322,11.613,75.482,11.613z"/>
	<path fill="#333333" d="M20.115,150h109.77c3.207,0,5.807-2.6,5.807-5.807v-2.98c0-31.063-27.572-57.304-60.209-57.304
		c-15.213,0-30.611,6.046-42.248,16.586c-12.203,11.057-18.926,25.518-18.926,40.718v2.98C14.309,147.4,16.91,150,20.115,150z
		 M75.482,95.522c24.881,0,46.824,19.721,48.494,42.865H26.025C27.729,115.243,50.107,95.522,75.482,95.522z"/>
</g>
</svg>
