<?xml version="1.0" encoding="utf-8"?>
<!-- Generator: Adobe Illustrator 16.0.0, SVG Export Plug-In . SVG Version: 6.00 Build 0)  -->
<!DOCTYPE svg PUBLIC "-//W3C//DTD SVG 1.1//EN" "http://www.w3.org/Graphics/SVG/1.1/DTD/svg11.dtd">
<svg version="1.1" id="Layer_1" xmlns="http://www.w3.org/2000/svg" xmlns:xlink="http://www.w3.org/1999/xlink" x="0px" y="0px"
	 width="150px" height="150px" viewBox="0 0 150 150" enable-background="new 0 0 150 150" xml:space="preserve">
<g>
	<g>
		<path fill="#E1E4E6" d="M104.043,28.336V0H36.392c-4.215,0-7.637,3.423-7.637,7.636v134.728c0,4.219,3.422,7.637,7.637,7.637
			h95.986c4.219,0,7.633-3.418,7.633-7.637V35.972h-28.326C107.466,35.972,104.043,32.554,104.043,28.336z"/>
		<path fill="#B0B6BC" d="M104.043,28.336c0,4.218,3.423,7.636,7.642,7.636h28.326L104.043,0V28.336z"/>
	</g>
	<path fill="#3176BB" d="M122.026,122.793c0,2.021-1.631,3.658-3.652,3.658H13.647c-2.021,0-3.658-1.637-3.658-3.658V73.75
		c0-2.018,1.637-3.651,3.658-3.651h104.727c2.021,0,3.652,1.634,3.652,3.651V122.793z"/>
	<g>
		<path fill="#FFFFFF" d="M41.2,113.18h-5.371V83.369h12.212c3.472,0,6.06,0.879,7.739,2.627c1.68,1.759,2.52,3.828,2.52,6.211
			c0,2.726-0.906,4.932-2.729,6.617c-1.825,1.689-4.13,2.537-6.923,2.537H41.2V113.18z M41.2,96.754h6.358
			c1.665,0,2.923-0.406,3.799-1.221c0.879-0.821,1.313-1.904,1.313-3.257c0-1.222-0.406-2.271-1.215-3.146
			c-0.812-0.875-2.272-1.309-4.377-1.309H41.2V96.754z"/>
		<path fill="#FFFFFF" d="M67.998,113.18h-5.377V83.369h5.377V113.18z"/>
		<path fill="#FFFFFF" d="M91.206,102.827l4.98,0.542c-0.313,2.988-1.475,5.443-3.461,7.373c-1.983,1.93-4.595,2.896-7.834,2.896
			c-2.715,0-4.922-0.688-6.615-2.061c-1.705-1.366-3.009-3.223-3.926-5.565c-0.918-2.34-1.372-4.928-1.372-7.75
			c0-4.54,1.073-8.237,3.223-11.084c2.158-2.848,5.126-4.268,8.891-4.268c2.954,0,5.421,0.909,7.384,2.725
			c1.963,1.82,3.203,4.429,3.711,7.817l-4.98,0.527c-0.914-4.497-2.934-6.747-6.069-6.747c-2.008,0-3.565,0.937-4.683,2.808
			c-1.113,1.868-1.67,4.585-1.67,8.134c0,3.613,0.6,6.333,1.792,8.179c1.196,1.846,2.773,2.761,4.735,2.761
			c1.568,0,2.915-0.617,4.019-1.857C90.439,106.021,91.069,104.541,91.206,102.827z"/>
	</g>
	<path fill="#3176BB" d="M70.37,24.478v17.207v2.622v8.194h28.027V48.5v-3.949V24.478H70.37z M89.673,34.942l-2.231,2.948
		l3.539,7.846L79.75,31.24l-7.852,8.744V26.001h24.971v16.875L89.673,34.942z"/>
</g>
</svg>
