<?xml version="1.0" encoding="utf-8"?>
<!-- Generator: Adobe Illustrator 16.0.0, SVG Export Plug-In . SVG Version: 6.00 Build 0)  -->
<!DOCTYPE svg PUBLIC "-//W3C//DTD SVG 1.1//EN" "http://www.w3.org/Graphics/SVG/1.1/DTD/svg11.dtd">
<svg version="1.1" id="Layer_1" xmlns="http://www.w3.org/2000/svg" xmlns:xlink="http://www.w3.org/1999/xlink" x="0px" y="0px"
	 width="150px" height="150px" viewBox="0 0 150 150" enable-background="new 0 0 150 150" xml:space="preserve">
<g>
	<path fill="#333333" d="M75,0C33.645,0,0,33.645,0,75C0,116.354,33.645,150,75,150c41.355,0,75-33.646,75-74.999
		C150,33.645,116.355,0,75,0z M75,137.674c-34.559,0-62.674-28.115-62.674-62.674c0-34.56,28.115-62.675,62.674-62.675
		S137.675,40.441,137.675,75C137.675,109.559,109.559,137.674,75,137.674z"/>
	<path fill="#333333" d="M94.667,39.335H55.332c-3.398,0-6.163,2.765-6.163,6.163v9.834c0,3.397,2.765,6.162,6.163,6.162
		c3.397,0,6.162-2.765,6.162-6.162v-3.672h27.011v9.705L72.24,69.488c-3.032,1.522-4.27,5.233-2.752,8.269
		c1.05,2.102,3.166,3.406,5.522,3.406c0.951,0,1.904-0.224,2.758-0.646l19.656-9.829c2.099-1.053,3.406-3.169,3.406-5.521V45.499
		C100.83,42.1,98.065,39.335,94.667,39.335z"/>
	<path fill="#333333" d="M75,98.339c-3.398,0-6.163,2.765-6.163,6.162s2.765,6.163,6.163,6.163s6.163-2.766,6.163-6.163
		S78.397,98.339,75,98.339z"/>
</g>
</svg>
