<?xml version="1.0" encoding="utf-8"?>
<!-- Generator: Adobe Illustrator 16.0.0, SVG Export Plug-In . SVG Version: 6.00 Build 0)  -->
<!DOCTYPE svg PUBLIC "-//W3C//DTD SVG 1.1//EN" "http://www.w3.org/Graphics/SVG/1.1/DTD/svg11.dtd">
<svg version="1.1" id="Layer_1" xmlns="http://www.w3.org/2000/svg" xmlns:xlink="http://www.w3.org/1999/xlink" x="0px" y="0px"
	 width="150px" height="150px" viewBox="0 0 150 150" enable-background="new 0 0 150 150" xml:space="preserve">
<g>
	<path fill="#333333" d="M145.838,58.684h-9.972c-2.296,0-4.163,1.867-4.163,4.162s1.867,4.163,4.163,4.163h9.972
		c2.295,0,4.162-1.868,4.162-4.163S148.133,58.684,145.838,58.684z"/>
	<path fill="#333333" d="M145.778,73.684l-9.356-3.435c-0.463-0.171-0.947-0.257-1.438-0.257c-1.739,0-3.31,1.097-3.907,2.729
		c-0.79,2.152,0.317,4.549,2.472,5.344l9.352,3.432c0.463,0.174,0.949,0.262,1.442,0.262c1.737,0,3.308-1.098,3.908-2.728
		c0.384-1.044,0.34-2.175-0.128-3.185C147.655,74.836,146.824,74.068,145.778,73.684z"/>
	<path fill="#333333" d="M134.984,54.758c0.482,0,0.963-0.086,1.436-0.258l9.356-3.438c1.046-0.383,1.878-1.149,2.346-2.16
		c0.468-1.01,0.512-2.141,0.128-3.18c-0.597-1.634-2.167-2.731-3.906-2.731c-0.49,0-0.972,0.085-1.438,0.255l-9.361,3.438
		c-2.15,0.793-3.259,3.19-2.469,5.346C131.678,53.66,133.248,54.758,134.984,54.758z"/>
	<path fill="#333333" d="M113.1,43.445V27.16c0-3.916-1.636-6.988-4.602-8.646c-3.438-1.929-8.306-1.42-12.717,1.283
		C74.607,32.246,49.18,36.435,40.831,36.435H20.03c-3.173,0-8.345,1.149-9.193,8.444H9.371C3.219,44.879,0,49.646,0,54.357v16.977
		c0,4.711,3.219,9.48,9.371,9.48h1.469c0.645,5.398,3.709,7.354,6.145,8.047c2.197,5.954,13.059,35.385,13.979,37.793
		c1.502,3.92,4.646,5.992,9.098,5.992h11.518c2.323,0,4.476-1.129,5.905-3.096c1.737-2.393,2.199-5.773,1.209-8.826
		c-0.825-2.537-8.272-22.809-11.378-31.248c16.014,1.076,31.081,6.195,48.4,16.381c4.498,2.753,9.348,3.246,12.781,1.322
		c2.968-1.66,4.604-4.73,4.604-8.648V82.249c8.854-1.93,15.336-9.833,15.336-19.048c0-0.125-0.002-0.249-0.007-0.336
		c0.005-0.125,0.007-0.25,0.007-0.375C128.436,53.276,121.953,45.373,113.1,43.445z M120.109,63.201c0,4.657-2.84,8.711-7.01,10.375
		v-21.46c4.17,1.665,7.01,5.729,7.007,10.452l-0.011,0.246L120.109,63.201z M104.771,27.16v71.371c0,0.825-0.173,1.291-0.339,1.385
		c-0.066,0.037-0.264,0.123-0.684,0.123c-0.997,0-2.387-0.488-3.748-1.322c-19.389-11.4-36.309-16.895-54.568-17.682V44.508
		c11.17-1.055,34.594-5.787,54.633-17.572c1.311-0.801,2.687-1.281,3.681-1.281c0.421,0,0.619,0.086,0.686,0.123
		C104.6,25.873,104.771,26.337,104.771,27.16z M50.856,124.318H40.061c-1.076,0-1.104-0.072-1.319-0.637
		c-0.77-2.016-8.999-24.296-12.736-34.422h12.358c2.751,7.477,11.579,31.485,12.41,34.036
		C50.91,123.717,50.901,124.073,50.856,124.318z M19.041,47.039c0-1.488,0.188-2.068,0.273-2.255
		c0.174-0.023,0.492-0.023,0.716-0.023h17.071v36.171H20.03c-0.224,0-0.542,0-0.716-0.023c-0.085-0.187-0.273-0.768-0.273-2.254
		V47.039z M8.326,54.357c0-1.152,0.508-1.152,1.045-1.152h1.344v19.281H9.371c-0.537,0-1.045,0-1.045-1.152V54.357z"/>
</g>
</svg>
