<?xml version="1.0" encoding="utf-8"?>
<!-- Generator: Adobe Illustrator 16.0.0, SVG Export Plug-In . SVG Version: 6.00 Build 0)  -->
<!DOCTYPE svg PUBLIC "-//W3C//DTD SVG 1.1//EN" "http://www.w3.org/Graphics/SVG/1.1/DTD/svg11.dtd">
<svg version="1.1" id="Layer_1" xmlns="http://www.w3.org/2000/svg" xmlns:xlink="http://www.w3.org/1999/xlink" x="0px" y="0px"
	 width="150px" height="150px" viewBox="0 0 150 150" enable-background="new 0 0 150 150" xml:space="preserve">
<g>
	<path fill="#333333" d="M10.287,150h104.17c2.811,0,5.098-2.287,5.098-5.099v-0.091c1.282-0.046,2.527-0.568,3.436-1.479
		l8.971-8.983c1.982-1.988,1.98-5.222-0.006-7.208l-12.4-12.399V45.485h20.158c2.812,0,5.1-2.288,5.1-5.1V19.417
		C144.812,8.71,136.873,0,127.113,0H26.147C14.59,0,5.188,9.402,5.188,20.959v123.942C5.188,147.713,7.475,150,10.287,150z
		 M73.906,107.563c-0.404-0.271-0.859-0.464-1.334-0.609c-1.61-0.813-3.104-1.872-4.414-3.184c-3.236-3.235-5.02-7.538-5.02-12.117
		s1.783-8.883,5.02-12.12c3.234-3.238,7.539-5.021,12.119-5.021s8.885,1.783,12.119,5.021c3.236,3.237,5.02,7.541,5.02,12.12
		s-1.783,8.882-5.02,12.117c-3.234,3.236-7.539,5.02-12.119,5.02C78.057,108.79,75.906,108.362,73.906,107.563z M110.101,123.245
		l1.705-1.705c0.092,0.058,0.189,0.104,0.285,0.156l9.049,9.053l-1.766,1.768L110.101,123.245z M119.612,19.417
		c0-5.084,3.365-9.219,7.501-9.219c4.137,0,7.502,4.135,7.502,9.219v15.87h-15.003V19.417z M109.414,19.417v16.719
		c-0.02,0.184-0.056,0.363-0.056,0.553v73.165c-0.392,0.223-0.767,0.481-1.093,0.808l-0.884,0.884l-4.507-4.505
		c3.078-4.5,4.738-9.814,4.738-15.387c0-7.302-2.844-14.167-8.006-19.332c-5.166-5.165-12.029-8.009-19.33-8.009
		c-7.303,0-14.166,2.844-19.33,8.009c-2.497,2.498-4.445,5.396-5.798,8.546H32.13c-2.813,0-5.099,2.287-5.099,5.098
		c0,2.813,2.286,5.101,5.099,5.101h20.824c-0.004,0.195-0.015,0.391-0.015,0.588c0,5.436,1.577,10.627,4.513,15.055H32.13
		c-2.813,0-5.099,2.287-5.099,5.098c0,2.812,2.286,5.099,5.099,5.099h37.643c3.285,1.365,6.839,2.083,10.504,2.083
		c5.569,0,10.883-1.66,15.384-4.736l4.511,4.506l-0.885,0.885c-0.949,0.949-1.493,2.262-1.493,3.604
		c0,1.344,0.544,2.658,1.493,3.604l10.071,10.069v2.884H15.386V20.959c0-5.934,4.827-10.761,10.761-10.761h85.394
		C110.185,12.942,109.414,16.083,109.414,19.417z"/>
	<path fill="#333333" d="M45.679,62.366h33.738c2.811,0,5.098-2.288,5.098-5.1c0-7.671-3.957-14.433-9.934-18.362
		c1.447-2.237,2.297-4.896,2.297-7.754c0-7.911-6.434-14.347-14.343-14.347c-7.899,0-14.325,6.436-14.325,14.347
		c0,2.858,0.85,5.518,2.297,7.757c-5.974,3.93-9.927,10.69-9.927,18.359C40.581,60.078,42.869,62.366,45.679,62.366z M62.536,27.001
		c2.286,0,4.146,1.861,4.146,4.149c0,2.28-1.859,4.137-4.146,4.137c-2.276,0-4.128-1.856-4.128-4.137
		C58.408,28.862,60.259,27.001,62.536,27.001z M62.543,45.497c4.565,0,8.671,2.63,10.615,6.671H51.938
		C53.88,48.127,57.982,45.497,62.543,45.497z"/>
</g>
</svg>
