<?xml version="1.0" encoding="utf-8"?>
<!-- Generator: Adobe Illustrator 16.0.0, SVG Export Plug-In . SVG Version: 6.00 Build 0)  -->
<!DOCTYPE svg PUBLIC "-//W3C//DTD SVG 1.1//EN" "http://www.w3.org/Graphics/SVG/1.1/DTD/svg11.dtd">
<svg version="1.1" id="Layer_1" xmlns="http://www.w3.org/2000/svg" xmlns:xlink="http://www.w3.org/1999/xlink" x="0px" y="0px"
	 width="150px" height="150px" viewBox="0 0 150 150" enable-background="new 0 0 150 150" xml:space="preserve">
<g>
	<path fill="#333333" d="M75,0C33.646,0,0,33.645,0,75c0,41.354,33.646,75,75,75s75-33.646,75-75C150,33.645,116.354,0,75,0z
		 M75,138.889c-35.229,0-63.89-28.661-63.89-63.889c0-35.229,28.66-63.89,63.89-63.89S138.89,39.771,138.89,75
		C138.89,110.228,110.229,138.889,75,138.889z"/>
	<path fill="#333333" d="M110.448,69.444H80.556V25.55c0-3.068-2.487-5.557-5.556-5.557s-5.556,2.488-5.556,5.557V75
		c0,3.067,2.487,5.556,5.556,5.556h35.448c3.068,0,5.555-2.488,5.555-5.556C116.003,71.932,113.517,69.444,110.448,69.444z"/>
</g>
</svg>
