<?xml version="1.0" encoding="utf-8"?>
<!-- Generator: Adobe Illustrator 16.0.0, SVG Export Plug-In . SVG Version: 6.00 Build 0)  -->
<!DOCTYPE svg PUBLIC "-//W3C//DTD SVG 1.1//EN" "http://www.w3.org/Graphics/SVG/1.1/DTD/svg11.dtd">
<svg version="1.1" id="Layer_1" xmlns="http://www.w3.org/2000/svg" xmlns:xlink="http://www.w3.org/1999/xlink" x="0px" y="0px"
	 width="150px" height="150px" viewBox="0 0 150 150" enable-background="new 0 0 150 150" xml:space="preserve">
<g>
	<path fill="#333333" d="M56.688,61.824c-0.99-0.99-2.307-1.535-3.705-1.535s-2.715,0.545-3.705,1.535
		c-0.99,0.989-1.536,2.306-1.536,3.705s0.546,2.716,1.536,3.706l20.796,20.789c0.991,0.989,2.306,1.534,3.704,1.534
		c1.4,0,2.717-0.545,3.707-1.534l37.154-37.156c0.991-0.99,1.537-2.307,1.537-3.705c0-1.399-0.546-2.715-1.537-3.705
		c-0.989-0.99-2.305-1.536-3.704-1.536s-2.714,0.546-3.705,1.536L73.778,78.909L56.688,61.824z"/>
	<path fill="#333333" d="M75,128.307c29.394,0,53.306-23.913,53.306-53.307c0-3.601-0.362-7.206-1.078-10.712
		c-0.49-2.436-2.64-4.203-5.109-4.203c-0.357,0-0.717,0.037-1.066,0.11c-1.373,0.279-2.555,1.075-3.326,2.243
		c-0.772,1.166-1.045,2.564-0.765,3.935c0.572,2.828,0.862,5.731,0.862,8.627c0,23.614-19.211,42.825-42.823,42.825
		c-23.614,0-42.827-19.211-42.827-42.825S51.386,32.175,75,32.175c7.841,0,15.511,2.137,22.179,6.177
		c0.821,0.497,1.761,0.761,2.716,0.761c1.851-0.001,3.525-0.942,4.481-2.521c0.727-1.197,0.942-2.605,0.609-3.966
		c-0.332-1.359-1.176-2.507-2.372-3.232C94.309,24.356,84.759,21.694,75,21.694c-29.394,0-53.306,23.912-53.306,53.306
		S45.606,128.307,75,128.307z"/>
	<path fill="#333333" d="M75,150c41.354,0,75-33.646,75-75S116.354,0,75,0S0,33.646,0,75S33.646,150,75,150z M75,10.481
		c35.575,0,64.518,28.943,64.518,64.519S110.575,139.519,75,139.519c-35.577,0-64.521-28.943-64.521-64.519S39.423,10.481,75,10.481
		z"/>
</g>
</svg>
