<?xml version="1.0" encoding="utf-8"?>
<!-- Generator: Adobe Illustrator 16.0.0, SVG Export Plug-In . SVG Version: 6.00 Build 0)  -->
<!DOCTYPE svg PUBLIC "-//W3C//DTD SVG 1.1//EN" "http://www.w3.org/Graphics/SVG/1.1/DTD/svg11.dtd">
<svg version="1.1" id="Layer_1" xmlns="http://www.w3.org/2000/svg" xmlns:xlink="http://www.w3.org/1999/xlink" x="0px" y="0px"
	 width="150px" height="150px" viewBox="0 0 150 150" enable-background="new 0 0 150 150" xml:space="preserve">
<g>
	<path fill="#333333" d="M75,0C40.71,0,12.89,27.819,12.89,62.135v34.006c0,0,0.453,14.662,15.02,20.452
		c0,0,7.331,1.825,7.331,11.611v15.74c0,3.339,2.724,6.056,6.07,6.056s6.048-2.717,6.048-6.056v-10.025
		c0-2.827,2.292-5.112,5.12-5.112c2.828,0,5.135,2.285,5.135,5.112v10.025c0,3.339,2.708,6.056,6.055,6.056
		c3.34,0,6.056-2.717,6.056-6.056v-10.025c0-2.827,2.285-5.112,5.112-5.112c2.82,0,5.128,2.285,5.128,5.112v10.025
		c0,3.339,2.716,6.056,6.055,6.056c3.34,0,6.063-2.717,6.063-6.056v-10.025c0-2.827,2.287-5.112,5.106-5.112
		c2.827,0,5.136,2.285,5.136,5.112v10.025c0,3.339,2.692,6.056,6.054,6.056c3.347,0,6.055-2.717,6.055-6.056v-15.74
		c0-9.786,6.3-11.611,6.3-11.611c14.575-5.79,16.377-20.452,16.377-20.452V62.135C137.11,27.819,109.291,0,75,0z M45.881,97.602
		c-7.532,0-13.653-6.113-13.653-13.652v-7.057c0-7.556,6.122-13.662,13.653-13.662h7.042c7.539,0,13.661,6.106,13.661,13.662
		C66.585,95.324,45.881,97.602,45.881,97.602z M78.71,108.297h-7.74c-3.762,0-5.551-2.799-3.993-6.205l5.009-10.937
		c1.565-3.414,4.125-3.414,5.692,0l5.015,10.937C84.253,105.498,82.457,108.297,78.71,108.297z M117.772,83.949
		c0,7.539-6.122,13.652-13.655,13.652c0,0-20.703-2.277-20.703-20.709c0-7.556,6.122-13.662,13.662-13.662h7.041
		c7.533,0,13.655,6.106,13.655,13.662V83.949z"/>
</g>
</svg>
