<?xml version="1.0" encoding="utf-8"?>
<!-- Generator: Adobe Illustrator 16.0.0, SVG Export Plug-In . SVG Version: 6.00 Build 0)  -->
<!DOCTYPE svg PUBLIC "-//W3C//DTD SVG 1.1//EN" "http://www.w3.org/Graphics/SVG/1.1/DTD/svg11.dtd">
<svg version="1.1" id="Layer_1" xmlns="http://www.w3.org/2000/svg" xmlns:xlink="http://www.w3.org/1999/xlink" x="0px" y="0px"
	 width="150px" height="150px" viewBox="0 0 150 150" enable-background="new 0 0 150 150" xml:space="preserve">
<g>
	<g>
		<polygon fill="#090053" points="149.168,34.936 114.231,34.936 114.231,0 114.231,0 35.766,0 35.766,150 149.168,150 
			149.168,34.936 		"/>
		<polygon fill="#85BFFA" points="114.231,34.936 149.168,34.936 114.231,0 		"/>
	</g>
	<rect x="0.832" y="7.763" fill="#90C2FF" width="107.855" height="36.321"/>
	<g>
		<path fill="#90C2FF" d="M58.199,69.329h17.009c11.48,0,20.302,4.476,20.302,18.218c0,13.271-8.891,19.238-20.022,19.238h-6.929
			v20.652H58.199V69.329z M74.789,97.599c7.14,0,10.57-3.377,10.57-10.052c0-6.754-3.78-9.03-10.92-9.03h-5.881v19.082H74.789z"/>
		<path fill="#90C2FF" d="M99.496,122.333l4.691-7.224c3.498,3.063,6.859,4.79,10.5,4.79c3.92,0,5.671-1.886,5.671-4.633
			c0-3.299-4.062-4.789-8.192-6.597c-4.969-2.12-10.709-5.497-10.709-12.799c0-7.932,5.74-13.506,14.561-13.506
			c5.739,0,10.08,2.67,13.37,5.417l-4.62,6.988c-2.801-2.198-5.53-3.769-8.471-3.769c-3.501,0-5.181,1.727-5.181,4.239
			c0,3.221,3.851,4.397,7.981,6.126c5.18,2.199,10.92,5.104,10.92,13.271c0,7.695-5.392,13.898-15.611,13.898
			C109.157,128.536,103.346,125.945,99.496,122.333z"/>
	</g>
	<g>
		<path fill="#090053" d="M26.987,14.539h7.115c4.801,0,8.49,1.887,8.49,7.678c0,5.594-3.72,8.107-8.374,8.107h-2.897v8.703h-4.334
			V14.539z M33.926,26.453c2.987,0,4.421-1.424,4.421-4.236c0-2.846-1.581-3.805-4.567-3.805h-2.458v8.041H33.926z"/>
		<path fill="#090053" d="M44.731,35.917l2.489-3.375c1.551,1.621,3.602,2.713,5.504,2.713c2.253,0,3.455-1.092,3.455-2.813
			c0-1.818-1.318-2.382-3.251-3.309l-2.897-1.39c-2.197-1.026-4.392-3.012-4.392-6.586c0-4.004,3.104-7.081,7.495-7.081
			c2.518,0,5.035,1.125,6.791,3.146l-2.194,3.077c-1.377-1.291-2.812-2.02-4.597-2.02c-1.904,0-3.133,0.96-3.133,2.582
			c0,1.753,1.552,2.381,3.396,3.209l2.839,1.356c2.635,1.225,4.361,3.11,4.361,6.651c0,4.004-2.956,7.412-7.962,7.412
			C49.738,39.49,46.84,38.2,44.731,35.917z"/>
		<path fill="#090053" d="M64.438,14.539h5.942c6.617,0,10.714,3.873,10.714,12.146c0,8.24-4.097,12.343-10.479,12.343h-6.177
			V14.539z M70.116,35.09c4.042,0,6.56-2.449,6.56-8.405c0-5.989-2.518-8.239-6.56-8.239h-1.345V35.09H70.116z"/>
	</g>
</g>
</svg>
