<?xml version="1.0" encoding="utf-8"?>
<!-- Generator: Adobe Illustrator 16.0.0, SVG Export Plug-In . SVG Version: 6.00 Build 0)  -->
<!DOCTYPE svg PUBLIC "-//W3C//DTD SVG 1.1//EN" "http://www.w3.org/Graphics/SVG/1.1/DTD/svg11.dtd">
<svg version="1.1" id="Layer_1" xmlns="http://www.w3.org/2000/svg" xmlns:xlink="http://www.w3.org/1999/xlink" x="0px" y="0px"
	 width="150px" height="150px" viewBox="0 0 150 150" enable-background="new 0 0 150 150" xml:space="preserve">
<g>
	<path fill="#333333" d="M80.509,0.225c-0.49-0.104-0.987-0.141-1.479-0.113C77.693,0.04,76.352,0,74.998,0
		c-1.377,0-2.746,0.043-4.107,0.117c-0.08,0.004-0.16,0.01-0.242,0.019C31.314,2.396,0,35.104,0,74.996
		c0,39.572,30.816,72.063,69.709,74.788c0.5,0.144,1.016,0.216,1.527,0.216c0.301,0,0.602-0.033,0.898-0.08
		c0.951,0.036,1.903,0.072,2.863,0.072c1.154,0,2.301-0.035,3.443-0.087c0.308,0.052,0.619,0.088,0.932,0.088
		c0.561,0,1.123-0.093,1.671-0.266C119.581,146.637,150,114.312,150,74.996C150,35.498,119.299,3.057,80.509,0.225z M138.633,69.441
		h-32.344c-0.75-28.143-7.132-45.492-13.114-55.682C117.865,21.101,136.341,42.984,138.633,69.441z M77.422,138.821
		c-0.805,0.03-1.611,0.061-2.424,0.061c-0.613,0-1.219-0.029-1.826-0.047c-3.941-3.769-16.66-18.935-17.768-58.283h39.768
		C94.065,119.84,81.384,135.022,77.422,138.821z M55.404,69.441c1.121-39.844,14.148-54.816,17.855-58.287
		c0.579-0.014,1.156-0.043,1.738-0.043c0.779,0,1.55,0.031,2.321,0.059c3.817,3.586,16.735,18.605,17.853,58.271H55.404z
		 M57.518,13.563C51.5,23.724,45.041,41.117,44.287,69.441h-32.92C13.682,42.738,32.482,20.696,57.518,13.563z M11.367,80.552h32.92
		c0.752,28.263,7.184,45.671,13.186,55.866C32.461,129.271,13.68,107.238,11.367,80.552z M93.217,136.222
		c5.971-10.224,12.324-27.585,13.072-55.67h32.344C136.343,106.992,117.887,128.867,93.217,136.222z"/>
</g>
</svg>
