<?xml version="1.0" encoding="utf-8"?>
<!-- Generator: Adobe Illustrator 16.0.0, SVG Export Plug-In . SVG Version: 6.00 Build 0)  -->
<!DOCTYPE svg PUBLIC "-//W3C//DTD SVG 1.1//EN" "http://www.w3.org/Graphics/SVG/1.1/DTD/svg11.dtd">
<svg version="1.1" id="Layer_1" xmlns="http://www.w3.org/2000/svg" xmlns:xlink="http://www.w3.org/1999/xlink" x="0px" y="0px"
	 width="150px" height="150px" viewBox="0 0 150 150" enable-background="new 0 0 150 150" xml:space="preserve">
<g>
	<path fill="#333333" d="M75,3.242L0,27.516v119.242h39.131v-13.043V120.67v-13.044V94.582V81.539V75v-6.505h71.74V75h0.043v71.758
		H150V27.516L75,3.242z M136.957,133.715h-13.043V55.451H26.088v78.264H13.044v-96.71L75,16.954l61.957,20.051V133.715z"/>
	<path fill="#333333" d="M89.295,118.664l-6.721,6.721l-0.313-38.269c-0.031-3.813-3.133-6.886-6.942-6.886
		c-0.019,0-0.038,0-0.058,0c-3.816,0.03-6.889,3.133-6.888,6.943c0,0.018,0,0.037,0,0.055l0.314,38.617l-7.199-7.199
		c-1.356-1.357-3.134-2.034-4.911-2.034s-3.554,0.677-4.91,2.033c-2.711,2.712-2.712,7.109,0,9.82l14.449,14.45
		c2.641,2.641,6.134,3.908,9.601,3.824c0.028,0,0.056,0.004,0.085,0.004c0.238-0.002,0.475-0.016,0.707-0.041
		c2.982-0.251,5.896-1.509,8.174-3.787l14.432-14.432c2.713-2.711,2.713-7.109,0-9.82C96.404,115.952,92.007,115.952,89.295,118.664
		z"/>
</g>
</svg>
