<?xml version="1.0" encoding="utf-8"?>
<!-- Generator: Adobe Illustrator 16.0.0, SVG Export Plug-In . SVG Version: 6.00 Build 0)  -->
<!DOCTYPE svg PUBLIC "-//W3C//DTD SVG 1.1//EN" "http://www.w3.org/Graphics/SVG/1.1/DTD/svg11.dtd">
<svg version="1.1" id="Layer_1" xmlns="http://www.w3.org/2000/svg" xmlns:xlink="http://www.w3.org/1999/xlink" x="0px" y="0px"
	 width="150px" height="150px" viewBox="0 0 150 150" enable-background="new 0 0 150 150" xml:space="preserve">
<g>
	<path fill="#333333" d="M141.738,149.988c0.118,0.008,0.237,0.012,0.355,0.012c1.407,0,2.768-0.534,3.801-1.503
		c1.119-1.051,1.755-2.517,1.755-4.053v-43.165c0-2.448-1.603-4.608-3.946-5.317c-0.885-0.268-21.787-6.552-32.609-6.552
		c-1.771,0-3.256,0.155-4.54,0.477c-7.151,1.785-15.272,10.737-19.634,16.134c-9.271-4.664-33.025-18.522-42.261-41.946
		c4.554-4.471,12.756-13.083,14.831-18.986c2.494-7.136,0.346-32.463-0.372-40.055C58.847,2.18,56.452,0,53.586,0H7.907
		C4.839,0,2.351,2.487,2.351,5.556c0,1.384,0.197,34.268,17.356,68.686C35.663,106.242,69.785,145.359,141.738,149.988z
		 M48.495,11.111C49.559,24.362,50,38.55,49.003,41.412c-1.135,3.23-8.447,11.377-14.572,17.073
		c-1.582,1.472-2.168,3.727-1.503,5.78c11.786,36.396,51.87,53.123,53.571,53.818c2.366,0.965,5.084,0.192,6.589-1.871
		c4.3-5.9,12.308-14.585,16.157-15.547c0.138-0.034,0.674-0.145,1.848-0.145c6.244,0,18.24,2.946,25.445,4.939v32.973
		c-50.268-4.734-86.152-27.856-106.707-68.79C17.71,45.506,14.564,21.616,13.748,11.111H48.495z"/>
</g>
</svg>
