<?xml version="1.0" encoding="utf-8"?>
<!-- Generator: Adobe Illustrator 16.0.0, SVG Export Plug-In . SVG Version: 6.00 Build 0)  -->
<!DOCTYPE svg PUBLIC "-//W3C//DTD SVG 1.1//EN" "http://www.w3.org/Graphics/SVG/1.1/DTD/svg11.dtd">
<svg version="1.1" id="Layer_1" xmlns="http://www.w3.org/2000/svg" xmlns:xlink="http://www.w3.org/1999/xlink" x="0px" y="0px"
	 width="150px" height="150px" viewBox="0 0 150 150" enable-background="new 0 0 150 150" xml:space="preserve">
<g>
	<path fill="#333333" d="M75,88.186c18.477,0,33.51-15.033,33.51-33.511S93.477,21.164,75,21.164S41.49,36.197,41.49,54.675
		S56.523,88.186,75,88.186z M75,32.275c12.352,0,22.398,10.049,22.398,22.399S87.352,77.074,75,77.074
		c-12.351,0-22.398-10.049-22.398-22.399S62.649,32.275,75,32.275z"/>
	<path fill="#333333" d="M52.982,150c0.063,0,0.127-0.001,0.189-0.004c2.293-0.077,4.303-1.557,5.058-3.725l12.915-37.072
		c1.275,0.089,2.559,0.15,3.855,0.15c0.68,0,1.35-0.027,2.023-0.052l12.954,36.983c0.759,2.164,2.769,3.641,5.06,3.716
		C95.1,149.999,95.16,150,95.223,150c2.219,0,4.232-1.324,5.108-3.375l5.401-12.662l11.123,5.931
		c2.016,1.075,4.486,0.808,6.223-0.679c1.737-1.485,2.389-3.883,1.64-6.043L111.582,95.27
		c11.102-10.015,18.093-24.502,18.093-40.595C129.675,24.527,105.148,0,75,0S20.325,24.527,20.325,54.675
		c0,15.501,6.495,29.505,16.894,39.464l-13.723,39.01c-0.76,2.16-0.115,4.566,1.621,6.058c1.739,1.493,4.213,1.765,6.234,0.688
		l11.121-5.93l5.4,12.661C48.748,148.676,50.764,150,52.982,150z M109.58,123.422l-3.966-2.113c-1.376-0.734-2.993-0.855-4.46-0.339
		c-1.469,0.519-2.653,1.628-3.264,3.06l-2.16,5.063l-7.486-21.374c4.947-1.235,9.625-3.152,13.939-5.637L109.58,123.422z
		 M31.437,54.675c0-24.021,19.543-43.563,43.563-43.563c24.021,0,43.564,19.543,43.564,43.563S99.021,98.238,75,98.238
		C50.979,98.238,31.437,78.695,31.437,54.675z M42.591,121.309l-3.878,2.067l7.766-22.075c4.188,2.569,8.749,4.581,13.576,5.955
		l-7.596,21.803l-2.145-5.029c-0.609-1.432-1.795-2.541-3.264-3.06C45.584,120.455,43.965,120.574,42.591,121.309z"/>
</g>
</svg>
