<?xml version="1.0" encoding="utf-8"?>
<!-- Generator: Adobe Illustrator 16.0.0, SVG Export Plug-In . SVG Version: 6.00 Build 0)  -->
<!DOCTYPE svg PUBLIC "-//W3C//DTD SVG 1.1//EN" "http://www.w3.org/Graphics/SVG/1.1/DTD/svg11.dtd">
<svg version="1.1" id="Layer_1" xmlns="http://www.w3.org/2000/svg" xmlns:xlink="http://www.w3.org/1999/xlink" x="0px" y="0px"
	 width="150px" height="150px" viewBox="0 0 150 150" enable-background="new 0 0 150 150" xml:space="preserve">
<path fill="#333333" d="M119.102,87.509c-3.172-3.151-7.514-4.886-12.235-4.886c-2.696,0-5.423,0.587-7.908,1.708
	c-0.396,0.188-0.756,0.419-1.071,0.692l-9.736-9.742l6.914-6.912c3.783,1.338,7.861,2.041,11.858,2.041
	c9.399,0,18.229-3.655,24.864-10.293c9.838-9.836,12.953-24.592,7.939-37.586c-0.549-1.435-1.774-2.482-3.281-2.805
	c-1.492-0.32-3.061,0.144-4.146,1.228l-9.018,9.027c-1.413,1.41-3.449,2.218-5.586,2.218c-2.138,0-4.172-0.808-5.583-2.217
	c-1.49-1.491-2.312-3.475-2.312-5.588c0-2.112,0.82-4.095,2.312-5.583l9.018-9.021c1.089-1.084,1.55-2.632,1.235-4.148
	c-0.324-1.502-1.373-2.729-2.807-3.285C115.493,0.794,111.219,0,106.854,0c-9.401,0-18.237,3.66-24.884,10.306
	c-9.615,9.609-12.801,23.927-8.248,36.722l-6.916,6.914l-25.12-25.118l1.28-1.275c1.758-1.764,1.758-4.634-0.002-6.403L29.416,7.599
	c-3.047-3.049-7.1-4.727-11.41-4.727C13.701,2.872,9.65,4.55,6.6,7.599c-6.29,6.292-6.288,16.53,0.004,22.82l13.541,13.543
	c0.854,0.855,1.992,1.325,3.205,1.325c1.206,0,2.342-0.47,3.201-1.325l1.273-1.275l25.119,25.121L5.51,115.235
	c-2.852,2.855-4.424,6.646-4.424,10.673c0,4.031,1.572,7.82,4.422,10.671c2.852,2.853,6.641,4.426,10.674,4.426
	c4.027,0,7.816-1.571,10.673-4.426L74.29,89.147l9.747,9.754v0.001c-0.32,0.321-0.59,0.687-0.805,1.088
	c-1.129,2.146-2.284,4.8-2.288,8.233c0,4.661,1.788,9.109,4.847,12.142l22.768,25.269c2.865,2.856,6.355,4.366,10.09,4.366
	c4.554,0,9.08-2.206,13.454-6.559l10.185-10.175c8.033-8.028,8.819-17.224,2.048-23.999L119.102,87.509z M18.006,11.929
	c1.892,0,3.671,0.736,5.011,2.07l10.345,10.348L23.35,34.359L13.006,24.015c-2.757-2.76-2.759-7.251-0.006-10.011
	C14.34,12.667,16.116,11.929,18.006,11.929z M35.285,35.226l25.119,25.119l-1.058,1.057L34.225,36.284L35.285,35.226z
	 M83.158,46.202c-4.592-9.933-2.495-21.787,5.218-29.496c4.935-4.934,11.497-7.65,18.479-7.65c0.708,0,1.417,0.028,2.12,0.084
	l-3.268,3.269c-3.197,3.196-4.96,7.453-4.96,11.986c0,4.534,1.763,8.79,4.96,11.987c3.201,3.202,7.458,4.967,11.988,4.967
	c4.527,0,8.783-1.765,11.984-4.967l3.271-3.271c0.617,7.611-2.108,15.146-7.564,20.604c-4.935,4.93-11.491,7.645-18.463,7.645
	c-3.785,0-7.603-0.837-11.031-2.42c-1.687-0.784-3.799-0.407-5.104,0.903l-70.337,70.335c-1.077,1.079-2.633,1.698-4.268,1.698
	s-3.191-0.619-4.27-1.7c-1.141-1.139-1.771-2.654-1.771-4.267c0-1.613,0.63-3.127,1.771-4.267l70.338-70.338
	C83.585,49.967,83.951,47.916,83.158,46.202z M81.747,81.689l9.741,9.744l-1.057,1.054l-9.741-9.742L81.747,81.689z M135.887,126.86
	l-10.178,10.171c-2.545,2.535-5.002,3.875-7.104,3.875c-1.301,0-2.492-0.527-3.484-1.507l-22.773-25.276
	c-1.49-1.479-2.346-3.629-2.346-5.897c0-1.058,0.275-2.064,0.947-3.434l12.464-12.502c1.089-0.397,2.224-0.598,3.378-0.598
	c2.379,0,4.551,0.857,6.117,2.414l25.221,21.75C141.722,119.506,138.896,123.854,135.887,126.86z"/>
</svg>
