<?xml version="1.0" encoding="utf-8"?>
<!-- Generator: Adobe Illustrator 16.0.0, SVG Export Plug-In . SVG Version: 6.00 Build 0)  -->
<!DOCTYPE svg PUBLIC "-//W3C//DTD SVG 1.1//EN" "http://www.w3.org/Graphics/SVG/1.1/DTD/svg11.dtd">
<svg version="1.1" id="Layer_1" xmlns="http://www.w3.org/2000/svg" xmlns:xlink="http://www.w3.org/1999/xlink" x="0px" y="0px"
	 width="150px" height="150px" viewBox="0 0 150 150" enable-background="new 0 0 150 150" xml:space="preserve">
<path fill="#333333" d="M140.164,5.279C138.491,2.023,135.176,0,131.514,0H18.484c-3.662,0-6.977,2.023-8.65,5.279
	c-1.674,3.257-1.389,7.129,0.742,10.107l46.008,64.289v64.769c0,1.97,1.043,3.792,2.741,4.79c0.868,0.51,1.841,0.766,2.815,0.766
	c0.93,0,1.861-0.233,2.702-0.701l25.72-14.32c1.761-0.98,2.854-2.839,2.854-4.854v-50.45l46.01-64.288
	C141.556,12.408,141.838,8.537,140.164,5.279z M83.342,74.658c-0.675,0.943-1.037,2.074-1.037,3.233v48.968l-14.609,8.133v-57.1
	c0-1.159-0.362-2.291-1.037-3.233L21.179,11.111h107.643L83.342,74.658z"/>
</svg>
