<?xml version="1.0" encoding="utf-8"?>
<!-- Generator: Adobe Illustrator 16.0.0, SVG Export Plug-In . SVG Version: 6.00 Build 0)  -->
<!DOCTYPE svg PUBLIC "-//W3C//DTD SVG 1.1//EN" "http://www.w3.org/Graphics/SVG/1.1/DTD/svg11.dtd">
<svg version="1.1" id="Layer_1" xmlns="http://www.w3.org/2000/svg" xmlns:xlink="http://www.w3.org/1999/xlink" x="0px" y="0px"
	 width="150px" height="150px" viewBox="0 0 150 150" enable-background="new 0 0 150 150" xml:space="preserve">
<g>
	<path fill="#333333" d="M75,0.003c-41.354,0-75,33.646-75,74.994c0,41.354,33.646,75,75,75c41.349,0,75-33.646,75-75
		C150,33.649,116.349,0.003,75,0.003z M75,135.938c-33.606,0-60.934-27.343-60.934-60.94c0-33.6,27.328-60.934,60.934-60.934
		c33.592,0,60.935,27.334,60.935,60.934C135.935,108.595,108.592,135.938,75,135.938z"/>
	<path fill="#333333" d="M74.987,98.931c-3.185,0-5.906,1.053-8.188,3.158c-2.281,2.113-3.407,4.676-3.407,7.671
		c0,2.931,1.139,5.447,3.446,7.565c2.316,2.1,5.022,3.172,8.149,3.172c3.138,0,5.833-1.072,8.147-3.172
		c2.329-2.118,3.472-4.635,3.472-7.565c0-2.995-1.143-5.558-3.425-7.671C80.904,99.983,78.191,98.931,74.987,98.931z"/>
	<polygon fill="#333333" points="81.251,93.267 84.842,63.983 84.842,28.848 64.936,28.848 64.936,63.983 68.251,93.267 	"/>
</g>
</svg>
