<?xml version="1.0" encoding="utf-8"?>
<!-- Generator: Adobe Illustrator 16.0.0, SVG Export Plug-In . SVG Version: 6.00 Build 0)  -->
<!DOCTYPE svg PUBLIC "-//W3C//DTD SVG 1.1//EN" "http://www.w3.org/Graphics/SVG/1.1/DTD/svg11.dtd">
<svg version="1.1" id="Layer_1" xmlns="http://www.w3.org/2000/svg" xmlns:xlink="http://www.w3.org/1999/xlink" x="0px" y="0px"
	 width="150px" height="150px" viewBox="0 0 150 150" enable-background="new 0 0 150 150" xml:space="preserve">
<path fill="#333333" d="M122.161,118.313c0-3.513-1.365-6.813-3.844-9.294L85.075,75.775l19.947-19.947
	c1.19,0.378,2.554,0.178,3.585-0.564c0.11-0.074,2.149-1.418,5.056-1.418c1.356,0,2.724,0.301,4.064,0.895
	c2.666,1.182,2.814,1.703,3.262,3.265c0.443,1.537,1.113,3.86,3.479,6.284c4.303,4.418,7.34,5.346,9.129,5.346l0.225-0.004
	c1.018-0.055,1.971-0.479,2.682-1.193l12.215-12.221c0.46-0.454,0.809-1.021,1.007-1.639c0.46-1.424,1.327-6.537-6.835-12.557
	c-0.532-0.393-1.167-0.654-1.844-0.758c-1.174-0.176-7.002-1.472-6.312-9.733c0.097-1.146-0.297-2.285-1.083-3.132
	c-0.521-0.56-1.109-1.215-1.762-1.942c-6.92-7.714-19.799-22.074-38.092-22.074c-5.52,0-11.098,1.367-16.582,4.062
	c-1.791,0.879-2.682,2.911-2.117,4.834c0.521,1.749,2.113,2.924,3.962,2.924c0.138,0,0.276-0.007,0.481-0.027
	c0.006-0.001,0.77-0.094,2.039-0.094c3.525,0,9.967,0.676,13.504,5.191c4.162,5.326-4.242,15.709-4.327,15.811
	c-0.808,0.958-1.114,2.216-0.876,3.414L69.837,60.54l-9.857-9.856c3.861-11,1.102-23.287-7.16-31.549
	c-5.729-5.73-13.352-8.887-21.461-8.887c-3.77,0-7.459,0.685-10.964,2.035c-1.3,0.497-2.245,1.609-2.528,2.969
	c-0.289,1.357,0.125,2.755,1.107,3.739l7.73,7.726c2.556,2.558,2.557,6.718,0,9.271c-1.172,1.171-2.861,1.844-4.635,1.844
	s-3.463-0.672-4.633-1.843l-7.73-7.728c-0.967-0.977-2.394-1.396-3.736-1.113c-1.355,0.283-2.468,1.229-2.973,2.53
	c-4.318,11.216-1.628,23.943,6.854,32.425c5.721,5.726,13.336,8.879,21.442,8.879c3.401,0,6.874-0.593,10.106-1.719l9.855,9.86
	l-6.018,6.018l-0.83-0.828c-0.74-0.745-1.793-1.172-2.892-1.172c-1.097,0-2.15,0.427-2.894,1.169L1.198,121.742
	C0.427,122.513,0,123.54,0,124.63c0,1.092,0.425,2.119,1.198,2.893l16.893,16.893c0.771,0.776,1.799,1.203,2.894,1.203
	c1.093,0,2.118-0.427,2.89-1.2l37.431-37.425c0.772-0.771,1.198-1.799,1.198-2.895c0-1.094-0.426-2.121-1.196-2.891l-0.833-0.833
	l6.018-6.017l33.245,33.242c2.48,2.482,5.782,3.85,9.293,3.85s6.81-1.367,9.288-3.849
	C120.796,125.125,122.161,121.827,122.161,118.313z M98.861,50.424L54.692,94.592l-3.672-3.671l44.153-44.154L98.861,50.424z
	 M98.231,12.945c12.486,2.158,22.129,12.906,27.568,18.969l0.697,0.779c-0.083,10.076,6.42,15.128,12.25,16.458
	c1.529,1.219,2.297,2.17,2.68,2.792l-8.735,8.741c-0.614-0.447-1.403-1.113-2.37-2.106c-0.937-0.96-1.139-1.668-1.475-2.842
	c-0.869-3.026-2.119-5.952-7.807-8.473c-2.381-1.058-4.863-1.594-7.377-1.594c-2.245,0-4.484,0.439-6.661,1.309l-7.739-7.669
	c3.563-5.348,8.398-15.236,2.262-23.075C100.567,15.009,99.468,13.911,98.231,12.945z M36.797,31.353
	c0-3.939-1.53-7.639-4.312-10.417l-2.469-2.47c0.446-0.027,0.895-0.041,1.342-0.041c5.925,0,11.494,2.306,15.68,6.491
	c6.545,6.544,8.324,16.603,4.426,25.028c-0.715,1.544-0.387,3.396,0.82,4.607l11.77,11.771l-7.014,7.014L45.272,61.574
	c-0.771-0.777-1.799-1.205-2.896-1.205c-0.588,0-1.181,0.131-1.714,0.379c-2.908,1.346-6.148,2.057-9.37,2.057
	c-5.919,0-11.481-2.303-15.662-6.482C11.112,51.8,8.8,45.6,9.179,39.297l2.475,2.476c2.783,2.783,6.482,4.316,10.416,4.316
	c3.932,0,7.631-1.533,10.416-4.316C35.267,38.994,36.797,35.293,36.797,31.353z M52.634,104.099l-31.649,31.644L9.87,124.632
	l31.646-31.649L52.634,104.099z M79.288,81.557l33.246,33.243c1.936,1.936,1.936,5.084,0,7.02c-0.883,0.885-2.162,1.393-3.507,1.393
	s-2.623-0.508-3.507-1.394L72.276,88.574L79.288,81.557z"/>
</svg>
