<?xml version="1.0" encoding="utf-8"?>
<!-- Generator: Adobe Illustrator 16.0.0, SVG Export Plug-In . SVG Version: 6.00 Build 0)  -->
<!DOCTYPE svg PUBLIC "-//W3C//DTD SVG 1.1//EN" "http://www.w3.org/Graphics/SVG/1.1/DTD/svg11.dtd">
<svg version="1.1" id="Layer_1" xmlns="http://www.w3.org/2000/svg" xmlns:xlink="http://www.w3.org/1999/xlink" x="0px" y="0px"
	 width="150px" height="150px" viewBox="0 0 150 150" enable-background="new 0 0 150 150" xml:space="preserve">
<g>
	<path fill-rule="evenodd" clip-rule="evenodd" fill="#F3F3F3" d="M75.002,0C33.58,0,0,33.58,0,75s33.58,75,75.002,75
		C116.42,150,150,116.42,150,75S116.42,0,75.002,0z"/>
	<g>
		<defs>
			<path id="SVGID_1_" d="M75.002,0C33.58,0,0,33.58,0,75s33.58,75,75.002,75C116.42,150,150,116.42,150,75S116.42,0,75.002,0z"/>
		</defs>
		<clipPath id="SVGID_2_">
			<use xlink:href="#SVGID_1_"  overflow="visible"/>
		</clipPath>
		<g clip-path="url(#SVGID_2_)">
			<g>
				<g>
					<path fill="#499CFA" d="M74.792,27.776c-16.183,0-29.3,13.12-29.3,29.302c0,5.357,1.445,10.375,3.957,14.698
						c2.193,4.687,4.512,7.94,10.193,16.295c6.418,9.437,9.646,18.577,12.066,27.619c1.163,4.351,1.904,6.101,3.083,6.535
						c1.179-0.435,1.921-2.185,3.085-6.535c2.42-9.042,5.648-18.183,12.066-27.619c5.682-8.354,8.001-11.608,10.195-16.295
						c2.51-4.323,3.955-9.341,3.955-14.698C104.094,40.896,90.975,27.776,74.792,27.776z M74.792,68.195
						c-6.276,0-11.366-5.089-11.366-11.367c0-6.279,5.09-11.369,11.366-11.369c6.279,0,11.37,5.09,11.37,11.369
						C86.162,63.106,81.071,68.195,74.792,68.195z"/>
				</g>
			</g>
			<rect x="12.467" y="115.814" fill="#9DCE00" width="39.964" height="6.411"/>
			<rect x="52.431" y="115.814" fill="#499CFA" width="22.361" height="6.411"/>
			<rect x="91.35" y="115.814" fill="#FDC600" width="32.357" height="6.411"/>
			<rect x="123.707" y="115.814" fill="#FC615F" width="13.829" height="6.411"/>
		</g>
	</g>
</g>
</svg>
