<?xml version="1.0" encoding="utf-8"?>
<!-- Generator: Adobe Illustrator 16.0.0, SVG Export Plug-In . SVG Version: 6.00 Build 0)  -->
<!DOCTYPE svg PUBLIC "-//W3C//DTD SVG 1.1//EN" "http://www.w3.org/Graphics/SVG/1.1/DTD/svg11.dtd">
<svg version="1.1" id="Layer_1" xmlns="http://www.w3.org/2000/svg" xmlns:xlink="http://www.w3.org/1999/xlink" x="0px" y="0px"
	 width="150px" height="150px" viewBox="0 0 150 150" enable-background="new 0 0 150 150" xml:space="preserve">
<g>
	<path fill="#333333" d="M99.769,57.797c0-13.658-11.112-24.77-24.771-24.77c-13.657,0-24.768,11.111-24.768,24.77
		s11.11,24.77,24.768,24.77C88.657,82.566,99.769,71.455,99.769,57.797z M61.341,57.797c0-7.531,6.128-13.658,13.657-13.658
		c7.531,0,13.66,6.127,13.66,13.658s-6.129,13.658-13.66,13.658C67.469,71.455,61.341,65.328,61.341,57.797z"/>
	<path fill="#333333" d="M71.612,148.848c0.998,0.768,2.192,1.152,3.387,1.152c1.195,0,2.389-0.385,3.388-1.152
		c2.195-1.688,53.756-41.923,53.756-91.704C132.142,25.635,106.507,0,74.999,0C43.491,0,17.858,25.635,17.858,57.144
		C17.858,106.925,69.417,147.16,71.612,148.848z M74.999,11.111c25.383,0,46.033,20.649,46.033,46.032
		c0,37.376-34.869,70.454-46.033,80.085c-11.163-9.631-46.03-42.709-46.03-80.085C28.968,31.761,49.618,11.111,74.999,11.111z"/>
</g>
</svg>
