<?xml version="1.0" encoding="utf-8"?>
<!-- Generator: Adobe Illustrator 16.0.0, SVG Export Plug-In . SVG Version: 6.00 Build 0)  -->
<!DOCTYPE svg PUBLIC "-//W3C//DTD SVG 1.1//EN" "http://www.w3.org/Graphics/SVG/1.1/DTD/svg11.dtd">
<svg version="1.1" id="Layer_1" xmlns="http://www.w3.org/2000/svg" xmlns:xlink="http://www.w3.org/1999/xlink" x="0px" y="0px"
	 width="150px" height="150px" viewBox="0 0 150 150" enable-background="new 0 0 150 150" xml:space="preserve">
<g>
	<path fill="#333333" d="M130.079,59.997l11.089,8.097c0.988,0.722,2.135,1.069,3.271,1.069c1.713,0,3.402-0.79,4.49-2.28
		c1.811-2.478,1.269-5.953-1.21-7.763L77.725,8.011c-1.963-1.433-4.633-1.424-6.587,0.025L2.245,59.146
		c-2.464,1.828-2.979,5.308-1.151,7.771c1.828,2.465,5.309,2.982,7.771,1.151l9.951-7.382v64.906
		c0,9.631,7.836,17.465,17.467,17.465h19.729h36.375h20.228c9.63,0,17.464-7.834,17.464-17.465V59.997z M86.832,131.947H61.568
		V93.929c0-3.357,2.731-6.09,6.089-6.09h13.086c3.357,0,6.089,2.732,6.089,6.09V131.947z M112.615,131.947H97.943V93.929
		c0-9.484-7.716-17.2-17.2-17.2H67.657c-9.484,0-17.2,7.716-17.2,17.2v38.019H36.283c-3.504,0-6.355-2.851-6.355-6.354v-73.15
		l44.547-33.047l44.494,32.488v73.709C118.969,129.097,116.118,131.947,112.615,131.947z"/>
</g>
</svg>
