<?xml version="1.0" encoding="utf-8"?>
<!-- Generator: Adobe Illustrator 16.0.0, SVG Export Plug-In . SVG Version: 6.00 Build 0)  -->
<!DOCTYPE svg PUBLIC "-//W3C//DTD SVG 1.1//EN" "http://www.w3.org/Graphics/SVG/1.1/DTD/svg11.dtd">
<svg version="1.1" id="Layer_1" xmlns="http://www.w3.org/2000/svg" xmlns:xlink="http://www.w3.org/1999/xlink" x="0px" y="0px"
	 width="150px" height="150px" viewBox="0 0 150 150" enable-background="new 0 0 150 150" xml:space="preserve">
<g>
	<path fill="#333333" d="M23.869,55.239H74.27c2.209,0,4.006-1.797,4.006-4.006s-1.797-4.006-4.006-4.006H23.869
		c-2.209,0-4.006,1.797-4.006,4.006S21.66,55.239,23.869,55.239z"/>
	<path fill="#333333" d="M78.276,66.779c0-2.209-1.797-4.006-4.006-4.006H23.869c-2.209,0-4.006,1.797-4.006,4.006
		c0,2.21,1.797,4.007,4.006,4.007H74.27C76.479,70.786,78.276,68.989,78.276,66.779z"/>
	<path fill="#333333" d="M139.979,74.339c-2.494-6.022-7.305-17.612-8.229-19.603c-2.354-5.07-7.417-5.07-9.58-5.07h-21.194V34.208
		c0-2.209-1.797-4.006-4.006-4.006H4.006C1.797,30.203,0,32,0,34.208v68.654c0,2.209,1.797,4.006,4.006,4.006h11.575
		c1.812,7.505,8.542,12.929,16.457,12.929c7.915,0,14.645-5.424,16.456-12.929h53.762c1.812,7.505,8.542,12.929,16.457,12.929
		s14.646-5.424,16.457-12.929h10.785c2.195,0,3.992-1.784,4.006-3.977c0.001-0.123,0.088-12.563,0-17.694
		C149.853,78.979,144.781,75.559,139.979,74.339z M118.713,111.786c-4.416,0-8.213-3.295-8.833-7.66
		c-0.06-0.428-0.09-0.853-0.09-1.263c0-0.412,0.031-0.837,0.09-1.259c0.621-4.37,4.418-7.666,8.834-7.666
		c4.417,0,8.214,3.296,8.833,7.658c0.06,0.43,0.09,0.856,0.09,1.267c0,0.409-0.03,0.835-0.089,1.26
		C126.927,108.491,123.129,111.786,118.713,111.786z M102.256,98.857h-1.279V71.526c0.314,0.766,0.854,1.443,1.613,1.9
		c0.627,0.381,1.344,0.582,2.075,0.582c1.394,0,2.709-0.741,3.432-1.937l5.651-9.366c0.553-0.916,0.716-1.992,0.459-3.031
		c-0.192-0.78-0.604-1.468-1.185-1.996h4.866c-0.284,0.256-0.537,0.552-0.739,0.887l-5.655,9.369
		c-1.139,1.894-0.526,4.359,1.353,5.491c0.266,0.162,0.551,0.284,0.845,0.38h-6.34c-2.209,0-4.006,1.797-4.006,4.006
		s1.797,4.006,4.006,4.006h28.486c2.527,0,6.075,1.339,6.113,3.518c0.042,2.455,0.049,7.105,0.021,13.522h-6.802
		c-1.812-7.506-8.542-12.931-16.457-12.931S104.067,91.351,102.256,98.857z M116.154,73.805c0.907-0.295,1.702-0.9,2.202-1.733
		l5.651-9.364c0.554-0.916,0.718-1.994,0.46-3.033c-0.189-0.765-0.592-1.439-1.155-1.964c0.762,0.05,0.995,0.141,1.038,0.163
		c0,0,0.05,0.056,0.134,0.238c0.538,1.158,2.968,6.936,6.602,15.693H116.154z M106.889,58.565l-5.653,9.367
		c-0.107,0.178-0.183,0.362-0.259,0.549V57.678h6.651C107.344,57.934,107.091,58.23,106.889,58.565z M32.038,111.786
		c-4.416,0-8.213-3.295-8.833-7.66c-0.061-0.432-0.091-0.857-0.091-1.263c0-0.407,0.031-0.832,0.091-1.259
		c0.621-4.37,4.418-7.666,8.833-7.666c4.416,0,8.213,3.296,8.833,7.667c0.06,0.418,0.09,0.841,0.09,1.258
		c0,0.415-0.03,0.839-0.09,1.26C40.251,108.491,36.454,111.786,32.038,111.786z M15.581,98.857H8.012V38.214h84.953v60.643H48.494
		c-1.811-7.506-8.542-12.931-16.456-12.931C24.123,85.926,17.393,91.351,15.581,98.857z"/>
</g>
</svg>
