<?xml version="1.0" encoding="utf-8"?>
<!-- Generator: Adobe Illustrator 16.0.0, SVG Export Plug-In . SVG Version: 6.00 Build 0)  -->
<!DOCTYPE svg PUBLIC "-//W3C//DTD SVG 1.1//EN" "http://www.w3.org/Graphics/SVG/1.1/DTD/svg11.dtd">
<svg version="1.1" id="Layer_1" xmlns="http://www.w3.org/2000/svg" xmlns:xlink="http://www.w3.org/1999/xlink" x="0px" y="0px"
	 width="150px" height="150px" viewBox="0 0 150 150" enable-background="new 0 0 150 150" xml:space="preserve">
<g>
	<path fill="#333333" d="M133.227,16.594H85.801L73.555,4.24c-0.926-0.936-2.188-1.461-3.504-1.461H46.295
		c-9.249,0-16.773,7.525-16.773,16.774v37.372H16.774C7.525,56.926,0,64.45,0,73.699v56.748c0,9.249,7.525,16.773,16.774,16.773
		h86.931c0.477,0,0.977-0.025,1.486-0.071c0.143-0.013,0.285-0.028,0.436-0.044c0.412-0.047,0.82-0.107,1.248-0.189
		c0.076-0.014,0.193-0.034,0.258-0.048c0.479-0.101,0.949-0.223,1.402-0.359l0.373-0.118c0.385-0.127,0.762-0.264,1.144-0.42
		l0.251-0.102c0.445-0.189,0.879-0.4,1.252-0.601c0.109-0.057,0.217-0.116,0.344-0.19c0.344-0.191,0.68-0.396,1.029-0.625
		l0.253-0.168c0.39-0.266,0.767-0.549,1.128-0.844c0.078-0.063,0.154-0.128,0.223-0.189c0.302-0.256,0.596-0.521,0.932-0.85
		l0.209-0.207c0.331-0.338,0.648-0.685,0.93-1.025c0.061-0.072,0.121-0.146,0.137-0.17c0.262-0.32,0.506-0.652,0.764-1.02
		l0.203-0.301c0.264-0.4,0.518-0.811,0.746-1.232c1.326-2.443,2.029-5.21,2.029-8V93.074h12.746c0.477,0,0.977-0.024,1.484-0.07
		c0.145-0.012,0.287-0.028,0.437-0.045c0.413-0.047,0.821-0.107,1.248-0.188c0.075-0.014,0.194-0.034,0.259-0.048
		c0.479-0.101,0.949-0.223,1.403-0.36l0.372-0.118c0.383-0.126,0.762-0.264,1.142-0.418l0.253-0.104
		c0.444-0.189,0.879-0.399,1.25-0.6c0.109-0.057,0.217-0.116,0.346-0.189c0.342-0.193,0.678-0.396,1.029-0.627l0.252-0.166
		c0.39-0.268,0.768-0.55,1.129-0.846c0.078-0.063,0.152-0.127,0.221-0.188c0.303-0.255,0.597-0.522,0.934-0.851l0.209-0.207
		c0.33-0.337,0.648-0.684,0.93-1.023c0.061-0.074,0.121-0.148,0.137-0.172c0.26-0.32,0.506-0.652,0.764-1.021l0.201-0.298
		c0.266-0.401,0.52-0.812,0.748-1.233c1.326-2.443,2.027-5.209,2.027-8V33.367C150,24.118,142.477,16.594,133.227,16.594z
		 M110.613,93.074v37.373c0,1.168-0.279,2.275-0.835,3.295c-0.093,0.172-0.198,0.336-0.317,0.518l-0.068,0.099
		c-0.102,0.146-0.206,0.289-0.318,0.428L109,134.881c-0.119,0.141-0.246,0.277-0.396,0.428c-0.004,0.006-0.08,0.078-0.086,0.084
		c-0.115,0.113-0.236,0.223-0.367,0.333c-0.02,0.017-0.061,0.054-0.08,0.071c-0.15,0.123-0.307,0.24-0.472,0.352
		c-0.017,0.01-0.103,0.066-0.12,0.077c-0.133,0.089-0.271,0.171-0.418,0.255c-0.012,0.006-0.102,0.057-0.114,0.064
		c-0.169,0.09-0.343,0.175-0.476,0.232c-0.023,0.009-0.127,0.049-0.15,0.059c-0.158,0.064-0.319,0.124-0.475,0.175
		c-0.004,0.001-0.141,0.046-0.145,0.048c-0.182,0.053-0.363,0.103-0.512,0.137c-0.051,0.008-0.109,0.018-0.139,0.023
		c-0.18,0.036-0.361,0.063-0.543,0.083l-0.174,0.018c-0.208,0.019-0.416,0.034-0.629,0.034H16.774c-3.808,0-6.907-3.099-6.907-6.906
		V73.699c0-3.808,3.1-6.906,6.907-6.906h12.747h8.953l0.914,0.922l11.332,11.431c0.926,0.935,2.187,1.461,3.503,1.461h49.481
		c2.181,0,4.125,1.019,5.393,2.602c0.945,1.183,1.516,2.678,1.516,4.306V93.074z M140.133,76.301c0,1.168-0.279,2.275-0.834,3.295
		c-0.092,0.172-0.197,0.336-0.318,0.518l-0.066,0.1c-0.102,0.146-0.207,0.289-0.318,0.428l-0.074,0.094
		c-0.119,0.142-0.247,0.277-0.396,0.428c-0.006,0.006-0.081,0.079-0.086,0.085c-0.117,0.112-0.236,0.222-0.367,0.333
		c-0.021,0.017-0.061,0.053-0.08,0.07c-0.151,0.124-0.308,0.24-0.473,0.352c-0.017,0.012-0.104,0.066-0.119,0.077
		c-0.134,0.089-0.271,0.172-0.418,0.254l-0.114,0.065c-0.169,0.091-0.343,0.176-0.475,0.232c-0.024,0.009-0.128,0.05-0.151,0.06
		c-0.158,0.064-0.319,0.124-0.475,0.174c-0.004,0.001-0.142,0.046-0.146,0.048c-0.181,0.055-0.362,0.104-0.513,0.137
		c-0.051,0.008-0.107,0.019-0.137,0.024c-0.18,0.035-0.363,0.062-0.541,0.082l-0.177,0.019c-0.208,0.019-0.415,0.034-0.628,0.034
		h-13.327c-1.908-7.167-8.435-12.469-16.194-12.469H56.279L44.033,58.385c-0.926-0.934-2.188-1.459-3.503-1.459h-1.142V19.554
		c0-3.809,3.098-6.907,6.906-6.907h21.699L80.24,25c0.927,0.935,2.188,1.461,3.504,1.461h49.482c3.809,0,6.906,3.098,6.906,6.906
		V76.301z"/>
</g>
</svg>
