<?xml version="1.0" encoding="utf-8"?>
<!-- Generator: Adobe Illustrator 16.0.0, SVG Export Plug-In . SVG Version: 6.00 Build 0)  -->
<!DOCTYPE svg PUBLIC "-//W3C//DTD SVG 1.1//EN" "http://www.w3.org/Graphics/SVG/1.1/DTD/svg11.dtd">
<svg version="1.1" id="Layer_1" xmlns="http://www.w3.org/2000/svg" xmlns:xlink="http://www.w3.org/1999/xlink" x="0px" y="0px"
	 width="150px" height="150px" viewBox="0 0 150 150" enable-background="new 0 0 150 150" xml:space="preserve">
<g>
	<path fill="#333333" d="M75,119.319c53.818,0,73.633-39.739,74.451-41.432c0.725-1.5,0.732-3.246,0.023-4.754
		c-0.818-1.733-20.615-42.453-74.15-42.453c-53.482,0-73.92,40.655-74.764,42.386c-0.744,1.521-0.746,3.298-0.01,4.821
		C1.367,79.58,21.182,119.319,75,119.319z M75.324,41.724c39.803,0,58.049,25.565,62.848,33.705
		c-4.857,7.872-23.408,32.848-63.172,32.848c-40.004,0-58.301-24.795-63.158-32.787C16.797,67.313,35.492,41.724,75.324,41.724z"/>
	<path fill="#333333" d="M75,100.001c13.785,0,25-11.216,25-25.001S88.785,49.999,75,49.999c-13.783,0-25,11.216-25,25.001
		S61.217,100.001,75,100.001z M75,61.042c7.697,0,13.959,6.262,13.959,13.958S82.697,88.958,75,88.958
		c-7.695,0-13.957-6.262-13.957-13.958S67.305,61.042,75,61.042z"/>
</g>
</svg>
