<?xml version="1.0" encoding="utf-8"?>
<!-- Generator: Adobe Illustrator 16.0.0, SVG Export Plug-In . SVG Version: 6.00 Build 0)  -->
<!DOCTYPE svg PUBLIC "-//W3C//DTD SVG 1.1//EN" "http://www.w3.org/Graphics/SVG/1.1/DTD/svg11.dtd">
<svg version="1.1" id="Layer_1" xmlns="http://www.w3.org/2000/svg" xmlns:xlink="http://www.w3.org/1999/xlink" x="0px" y="0px"
	 width="150px" height="150px" viewBox="0 0 150 150" enable-background="new 0 0 150 150" xml:space="preserve">
<g>
	<path fill="#333333" d="M121.308,145.363c1.697-1.249,2.541-3.35,2.181-5.426l-7.705-44.348l32.567-32.225
		c1.489-1.474,2.023-3.658,1.381-5.652c-0.641-1.992-2.35-3.457-4.418-3.783l-45.467-7.207L79.432,5.549
		c-0.938-1.893-2.867-3.088-4.978-3.088c-0.01,0-0.018,0-0.027,0c-2.121,0.011-4.051,1.229-4.975,3.138L49.392,47.09l-44.698,7.02
		c-2.079,0.326-3.794,1.799-4.433,3.804c-0.637,2.005-0.088,4.198,1.419,5.666l32.192,31.335l-7.553,46.172
		c-0.34,2.08,0.526,4.175,2.237,5.406c0.964,0.693,2.103,1.047,3.246,1.047c0.886,0,1.776-0.212,2.59-0.642L75.4,125.279
		l40.08,20.553C117.357,146.793,119.611,146.611,121.308,145.363z M77.9,114.074c-1.611-0.827-3.523-0.814-5.125,0.029
		l-33.688,17.759l6.217-38.013c0.293-1.791-0.307-3.612-1.607-4.879L17.388,63.363l36.602-5.748c1.8-0.283,3.346-1.432,4.139-3.071
		l16.389-33.895l16.649,33.579c0.8,1.612,2.331,2.738,4.108,3.02l37.461,5.938l-26.83,26.548c-1.293,1.278-1.878,3.108-1.566,4.899
		l6.295,36.228L77.9,114.074z"/>
</g>
</svg>
