<?xml version="1.0" encoding="utf-8"?>
<!-- Generator: Adobe Illustrator 16.0.0, SVG Export Plug-In . SVG Version: 6.00 Build 0)  -->
<!DOCTYPE svg PUBLIC "-//W3C//DTD SVG 1.1//EN" "http://www.w3.org/Graphics/SVG/1.1/DTD/svg11.dtd">
<svg version="1.1" id="Layer_1" xmlns="http://www.w3.org/2000/svg" xmlns:xlink="http://www.w3.org/1999/xlink" x="0px" y="0px"
	 width="150px" height="150px" viewBox="0 0 150 150" enable-background="new 0 0 150 150" xml:space="preserve">
<g>
	<path fill="#333333" d="M40.572,71.234c4.267,0,7.73-3.461,7.73-7.729s-3.464-7.729-7.73-7.729c-4.271,0-7.729,3.461-7.729,7.729
		S36.301,71.234,40.572,71.234z"/>
	<circle fill="#333333" cx="75" cy="63.505" r="7.729"/>
	<circle fill="#333333" cx="109.428" cy="63.505" r="7.729"/>
	<path fill="#333333" d="M23.604,140.438c0.688,0.284,1.408,0.423,2.125,0.423c1.445,0,2.867-0.564,3.93-1.627l19.849-19.847h82.588
		c9.872,0,17.905-8.032,17.905-17.905V27.044c0-9.872-8.033-17.905-17.905-17.905H17.904C8.031,9.139,0,17.172,0,27.044v74.438
		c0,9.873,8.031,17.905,17.904,17.905h2.268v15.917C20.172,137.553,21.527,139.578,23.604,140.438z M17.904,108.274
		c-3.744,0-6.791-3.048-6.791-6.792V27.044c0-3.744,3.047-6.792,6.791-6.792h114.19c3.744,0,6.792,3.048,6.792,6.792v74.438
		c0,3.744-3.048,6.792-6.792,6.792h-84.89c-1.475,0-2.887,0.585-3.93,1.628l-11.989,11.988v-8.06c0-3.069-2.487-5.557-5.558-5.557
		H17.904z"/>
</g>
</svg>
