<?xml version="1.0" encoding="utf-8"?>
<!-- Generator: Adobe Illustrator 16.0.0, SVG Export Plug-In . SVG Version: 6.00 Build 0)  -->
<!DOCTYPE svg PUBLIC "-//W3C//DTD SVG 1.1//EN" "http://www.w3.org/Graphics/SVG/1.1/DTD/svg11.dtd">
<svg version="1.1" id="Layer_1" xmlns="http://www.w3.org/2000/svg" xmlns:xlink="http://www.w3.org/1999/xlink" x="0px" y="0px"
	 width="150px" height="150px" viewBox="0 0 150 150" enable-background="new 0 0 150 150" xml:space="preserve">
<g>
	<path fill="#333333" d="M0,134.104c0,3.067,2.496,5.563,5.564,5.563h96.558c3.068,0,5.564-2.496,5.564-5.563
		c0-22.413-13.981-52.819-35.123-64.775C81.13,63.271,86.325,53.4,86.325,42.814c0-17.91-14.57-32.481-32.48-32.481
		c-17.908,0-32.479,14.571-32.479,32.481c0,10.586,5.195,20.456,13.761,26.514C13.982,81.281,0,111.688,0,134.104z M53.845,75.293
		c22.323,0,39.768,31.261,42.373,53.246H11.47C14.077,106.554,31.521,75.293,53.845,75.293z M53.845,21.462
		c11.772,0,21.352,9.578,21.352,21.353c0,11.772-9.579,21.35-21.352,21.35s-21.35-9.577-21.35-21.35
		C32.495,31.04,42.072,21.462,53.845,21.462z"/>
	<path fill="#333333" d="M85.831,67.044c0.782,1.265,2.01,2.149,3.456,2.49c0.424,0.1,0.858,0.15,1.29,0.15
		c2.587,0,4.81-1.764,5.406-4.291c1.225-5.203,6.162-8.566,12.58-8.566c7.112,0,12.899,5.787,12.899,12.901
		s-5.787,12.901-12.899,12.901c-3.069,0-5.564,2.496-5.564,5.564s2.495,5.564,5.564,5.564c0.262,0,0.518-0.016,0.773-0.033
		l0.064-0.004c0.158,0.039,0.375,0.08,0.636,0.08c14.402,0,25.933,19.853,28.355,34.737H116.31c-3.068,0-5.565,2.496-5.565,5.564
		c0,3.067,2.497,5.563,5.565,5.563h28.126c3.068,0,5.564-2.496,5.564-5.563c0-15.895-9.899-37.773-24.902-46.978
		c4.795-4.527,7.495-10.725,7.495-17.397c0-13.251-10.779-24.031-24.029-24.031c-11.586,0-20.996,6.889-23.414,17.143
		C84.808,64.287,85.05,65.78,85.831,67.044z"/>
</g>
</svg>
