<?xml version="1.0" encoding="utf-8"?>
<!-- Generator: Adobe Illustrator 16.0.0, SVG Export Plug-In . SVG Version: 6.00 Build 0)  -->
<!DOCTYPE svg PUBLIC "-//W3C//DTD SVG 1.1//EN" "http://www.w3.org/Graphics/SVG/1.1/DTD/svg11.dtd">
<svg version="1.1" id="Layer_1" xmlns="http://www.w3.org/2000/svg" xmlns:xlink="http://www.w3.org/1999/xlink" x="0px" y="0px"
	 width="150px" height="150px" viewBox="0 0 150 150" enable-background="new 0 0 150 150" xml:space="preserve">
<path fill="#333333" d="M82.855,75l65.517-65.517c2.171-2.169,2.171-5.687,0-7.855c-2.168-2.171-5.688-2.171-7.855,0L75,67.145
	L9.483,1.628c-2.168-2.171-5.688-2.171-7.855,0c-2.171,2.169-2.171,5.687,0,7.855L67.145,75L1.628,140.517
	c-2.171,2.169-2.171,5.687,0,7.855C2.712,149.457,4.134,150,5.556,150c1.421,0,2.844-0.543,3.928-1.628L75,82.855l65.517,65.517
	c1.084,1.085,2.507,1.628,3.928,1.628c1.422,0,2.844-0.543,3.928-1.628c2.171-2.169,2.171-5.687,0-7.855L82.855,75z"/>
</svg>
