<?xml version="1.0" encoding="utf-8"?>
<!-- Generator: Adobe Illustrator 16.0.0, SVG Export Plug-In . SVG Version: 6.00 Build 0)  -->
<!DOCTYPE svg PUBLIC "-//W3C//DTD SVG 1.1//EN" "http://www.w3.org/Graphics/SVG/1.1/DTD/svg11.dtd">
<svg version="1.1" id="Layer_1" xmlns="http://www.w3.org/2000/svg" xmlns:xlink="http://www.w3.org/1999/xlink" x="0px" y="0px"
	 width="150px" height="150px" viewBox="0 0 150 150" enable-background="new 0 0 150 150" xml:space="preserve">
<g>
	<path fill="#333333" d="M94.783,52.833c0-7.938-6.459-14.397-14.396-14.397c-7.941,0-14.4,6.459-14.4,14.397
		c0,7.939,6.459,14.398,14.4,14.398C88.324,67.231,94.783,60.772,94.783,52.833z"/>
	<path fill="#333333" d="M86.705,96.72l-8.844-10.652c-0.559-0.674-1.705-0.674-2.264,0l-7.014,8.449L49.207,70.62
		c-0.559-0.689-1.727-0.689-2.283,0l-28.252,34.852c-0.357,0.441-0.43,1.047-0.186,1.559c0.244,0.513,0.762,0.838,1.328,0.838
		h61.621c0.008,0,0.016,0,0.02,0c0.813,0,1.471-0.658,1.471-1.471c0-0.092-0.008-0.185-0.025-0.272l-0.078-3.63l3.791-3.796
		C87.15,98.162,87.189,97.304,86.705,96.72z M62.016,99.471H34.117l13.949-17.209L62.016,99.471z"/>
	<path fill="#333333" d="M1.471,123.586h80.309c0.396,0,0.775-0.158,1.053-0.441c0.275-0.283,0.428-0.665,0.418-1.061l-0.141-6.549
		c-0.018-0.8-0.672-1.439-1.471-1.439H9.486V28.99h109.158V64.75c0,0.595,0.357,1.131,0.908,1.359
		c0.547,0.228,1.18,0.102,1.602-0.319l6.555-6.567c0.271-0.275,0.424-0.646,0.424-1.034V20.974c0-0.812-0.658-1.471-1.471-1.471
		H1.471C0.658,19.503,0,20.163,0,20.974v101.143C0,122.928,0.658,123.586,1.471,123.586z"/>
	<path fill="#333333" d="M89.764,130.377l22.227,0.119c0.002,0,0.004,0,0.008,0c0.389,0,0.764-0.155,1.039-0.431l36.533-36.529
		c0.574-0.574,0.574-1.505,0-2.079l-22.701-22.701c-0.553-0.551-1.529-0.551-2.08,0l-36.553,36.556
		c-0.283,0.283-0.439,0.671-0.432,1.072l0.496,22.556C88.318,129.735,88.967,130.374,89.764,130.377z M97.201,109.533l21.297-21.3
		l11.596,11.594l-21.332,21.33l-11.305-0.063L97.201,109.533z M125.092,81.639l0.736-0.737l11.598,11.594l-0.738,0.738
		L125.092,81.639z"/>
</g>
<path fill="#333333" d="M64.204,70.337c-0.812,0-1.471,0.659-1.471,1.471v6.384c0,0.813,0.659,1.471,1.471,1.471h21.592
	c0.813,0,1.471-0.658,1.471-1.471v-6.384c0-0.812-0.658-1.471-1.471-1.471H64.204z"/>
</svg>
