<?xml version="1.0" encoding="utf-8"?>
<!-- Generator: Adobe Illustrator 16.0.0, SVG Export Plug-In . SVG Version: 6.00 Build 0)  -->
<!DOCTYPE svg PUBLIC "-//W3C//DTD SVG 1.1//EN" "http://www.w3.org/Graphics/SVG/1.1/DTD/svg11.dtd">
<svg version="1.1" id="Layer_1" xmlns="http://www.w3.org/2000/svg" xmlns:xlink="http://www.w3.org/1999/xlink" x="0px" y="0px"
	 width="150px" height="150px" viewBox="0 0 150 150" enable-background="new 0 0 150 150" xml:space="preserve">
<g>
	<path fill="#333333" d="M143.37,111.981c-3.663,0-6.643,2.975-6.643,6.631v12.895H13.286v-12.895c0-3.656-2.98-6.631-6.643-6.631
		c-3.663,0-6.644,2.975-6.644,6.631v19.537c0,3.663,2.98,6.643,6.644,6.643H143.37c3.656,0,6.63-2.979,6.63-6.643v-19.537
		C150,114.956,147.025,111.981,143.37,111.981z"/>
	<path fill="#333333" d="M70.307,114.193c1.243,1.242,2.956,1.955,4.698,1.955c1.745,0,3.451-0.71,4.681-1.948l29.31-29.299
		c1.256-1.255,1.947-2.924,1.947-4.698c0-1.775-0.691-3.443-1.947-4.699c-1.252-1.249-2.919-1.938-4.692-1.938
		c-1.773,0-3.44,0.689-4.695,1.94l-17.96,17.976V11.839c0-3.656-2.981-6.631-6.644-6.631c-3.663,0-6.643,2.975-6.643,6.631v81.643
		L50.4,75.501c-1.251-1.247-2.921-1.937-4.697-1.937c-1.773,0-3.439,0.688-4.689,1.938c-1.256,1.257-1.948,2.925-1.948,4.7
		c0,1.774,0.691,3.443,1.948,4.698L70.307,114.193z"/>
</g>
</svg>
