<?xml version="1.0" encoding="utf-8"?>
<!-- Generator: Adobe Illustrator 16.0.0, SVG Export Plug-In . SVG Version: 6.00 Build 0)  -->
<!DOCTYPE svg PUBLIC "-//W3C//DTD SVG 1.1//EN" "http://www.w3.org/Graphics/SVG/1.1/DTD/svg11.dtd">
<svg version="1.1" id="Layer_1" xmlns="http://www.w3.org/2000/svg" xmlns:xlink="http://www.w3.org/1999/xlink" x="0px" y="0px"
	 width="150px" height="150px" viewBox="0 0 150 150" enable-background="new 0 0 150 150" xml:space="preserve">
<g>
	<g>
		<path fill-rule="evenodd" clip-rule="evenodd" fill="#FFDE00" d="M74.747,0.018c30.011-0.027,54.566,24.437,53.857,54.093
			c-0.354,14.944-7.713,27.23-17.261,37.942c-14.06,15.768-24.959,33.202-31.523,53.319c-0.787,2.398-1.908,4.787-5.147,4.619
			c-2.852-0.14-3.744-2.068-4.583-4.467c-6.841-19.719-17.136-37.317-31.2-52.895c-8.692-9.635-15.717-20.547-17.198-34.02
			C18.943,33.411,34.63,9.718,58.856,2.327C64.046,0.742,69.313-0.134,74.747,0.018z M74.866,71.392
			c9.794-0.012,17.928-7.996,18.037-17.711c0.115-9.817-8.332-18.135-18.293-18.005c-9.888,0.12-17.547,8.005-17.49,17.99
			C57.167,63.638,64.953,71.4,74.866,71.392z"/>
	</g>
</g>
</svg>
