<?xml version="1.0" encoding="utf-8"?>
<!-- Generator: Adobe Illustrator 16.0.0, SVG Export Plug-In . SVG Version: 6.00 Build 0)  -->
<!DOCTYPE svg PUBLIC "-//W3C//DTD SVG 1.1//EN" "http://www.w3.org/Graphics/SVG/1.1/DTD/svg11.dtd">
<svg version="1.1" id="Layer_1" xmlns="http://www.w3.org/2000/svg" xmlns:xlink="http://www.w3.org/1999/xlink" x="0px" y="0px"
	 width="150px" height="150px" viewBox="0 0 150 150" enable-background="new 0 0 150 150" xml:space="preserve">
<path fill="#333333" d="M75.005,0C33.646,0,0,33.646,0,75.002C0,116.356,33.646,150,75.005,150C116.357,150,150,116.356,150,75.002
	C150,33.646,116.357,0,75.005,0z M57.841,58.222c0.253,2.594,0.561,5.34,0.878,8.176c0.894,7.977,1.905,17.019,1.905,25.089v29.417
	H41.03V31.782h21.242l22.26,42.823l8.981,20.281h1.493l-0.223-1.754c-1.167-9.176-2.766-21.743-2.766-32.048V31.782h19.611v89.121
	H90.374l-22.127-43.19l-8.981-20.037h-1.477L57.841,58.222z"/>
</svg>
