<?xml version="1.0" encoding="utf-8"?>
<!-- Generator: Adobe Illustrator 16.0.0, SVG Export Plug-In . SVG Version: 6.00 Build 0)  -->
<!DOCTYPE svg PUBLIC "-//W3C//DTD SVG 1.1//EN" "http://www.w3.org/Graphics/SVG/1.1/DTD/svg11.dtd">
<svg version="1.1" id="Layer_1" xmlns="http://www.w3.org/2000/svg" xmlns:xlink="http://www.w3.org/1999/xlink" x="0px" y="0px"
	 width="150px" height="150px" viewBox="0 0 150 150" enable-background="new 0 0 150 150" xml:space="preserve">
<g>
	<rect x="97.809" y="70.508" fill="#333333" width="15.42" height="15.426"/>
	<rect x="97.809" y="96.732" fill="#333333" width="15.42" height="15.426"/>
	<rect x="35.343" y="70.508" fill="#333333" width="15.417" height="15.426"/>
	<rect x="66.571" y="70.508" fill="#333333" width="15.428" height="15.426"/>
	<rect x="35.343" y="96.732" fill="#333333" width="15.417" height="15.426"/>
	<rect x="66.571" y="96.732" fill="#333333" width="15.428" height="15.426"/>
	<path fill="#333333" d="M127.375,10.332H22.625C10.148,10.332,0,20.479,0,32.957v84.086c0,12.477,10.148,22.625,22.626,22.625
		h104.749c12.478,0,22.626-10.148,22.626-22.625V32.957C150,20.479,139.852,10.332,127.375,10.332z M12.341,32.957
		c0-5.674,4.612-10.283,10.284-10.283h104.749c5.675,0,10.284,4.609,10.284,10.283v8.418H12.341V32.957z M137.659,117.043
		c0,5.672-4.609,10.283-10.284,10.283H22.625c-5.672,0-10.284-4.611-10.284-10.283V56.801h125.317V117.043z"/>
</g>
</svg>
