<?xml version="1.0" encoding="utf-8"?>
<!-- Generator: Adobe Illustrator 16.0.0, SVG Export Plug-In . SVG Version: 6.00 Build 0)  -->
<!DOCTYPE svg PUBLIC "-//W3C//DTD SVG 1.1//EN" "http://www.w3.org/Graphics/SVG/1.1/DTD/svg11.dtd">
<svg version="1.1" id="Layer_1" xmlns="http://www.w3.org/2000/svg" xmlns:xlink="http://www.w3.org/1999/xlink" x="0px" y="0px"
	 width="150px" height="150px" viewBox="0 0 150 150" enable-background="new 0 0 150 150" xml:space="preserve">
<g>
	<path fill="#333333" d="M149.965,39.813c-0.011-2.48-0.284-4.753-0.811-6.754c-1.69-6.303-7.809-12.663-17.669-12.663l-0.281,0.002
		c-4.154,0.051-8.634,0.073-14.101,0.073c-3.395,0-6.792-0.008-10.188-0.017c-3.398-0.009-6.798-0.018-10.196-0.018h-1.963
		c-0.002-0.066-0.005-0.129-0.008-0.188c-0.013-0.304-0.022-0.504,0.018-0.678c0.359-1.716,0.729-3.432,1.1-5.146
		c0.489-2.264,0.978-4.525,1.44-6.789c0.213-1.043,0.387-2.152,0.216-3.195c-0.518-3.036-2.459-4.391-6.295-4.391
		c-28.263,0-56.517,0-84.783,0.01c-0.636,0-1.392,0.014-2.171,0.114C2.143,0.444,0.459,2.106,0.176,4.219
		c-0.114,0.912-0.165,1.88-0.165,3.137c-0.01,32.692-0.019,65.385,0,98.066c0,2.839,0.054,5.631,0.162,8.297
		c0.304,7.75,8.023,15.498,15.584,15.642c7.349,0.154,14.813,0.171,22.033,0.187c2.738,0.006,5.478,0.012,8.219,0.025h1.884
		c0.004,0.084,0.008,0.166,0.012,0.247c0.02,0.396,0.037,0.739-0.022,1.031c-0.583,2.765-1.183,5.528-1.783,8.293l-0.749,3.457
		c-0.733,3.408,0.314,5.914,2.872,6.877c1.103,0.418,2.359,0.453,3.55,0.453c30.501,0.021,61.006,0.021,91.521,0.021
		c0.642,0,1.49-0.012,2.354-0.113c2.077-0.234,3.872-1.948,4.174-3.988c0.108-0.738,0.162-1.529,0.175-2.572l0.002-22.492
		C150.001,93.799,150.004,66.806,149.965,39.813z M10.442,34.72l-0.004-23.125c0-0.322,0.027-0.644,0.061-1.063h75.511
		c-0.763,3.814-1.498,7.479-2.25,11.135c-1.261,6.093-2.526,12.181-3.791,18.271c-1.507,7.256-3.014,14.513-4.516,21.775
		c-1.217,5.86-2.427,11.72-3.636,17.58c-1.287,6.231-2.574,12.465-3.87,18.698c-0.466,2.268-0.942,4.531-1.418,6.796
		c-0.872,4.147-1.774,8.436-2.598,12.67c-0.268,1.337-0.571,1.753-1.941,1.753c-8.184-0.034-16.365-0.065-24.549-0.065
		c-6.843,0-12.991,0.021-18.876,0.065c-2.395,0-4.442-0.783-5.921-2.266c-1.481-1.485-2.261-3.541-2.255-5.945
		C10.456,85.57,10.449,59.72,10.442,34.72z M57.035,137.901c0.575-2.741,1.117-5.33,1.736-7.899
		c0.087-0.149,0.635-0.446,0.974-0.459c0.871-0.03,1.742-0.038,2.614-0.038l2.882,0.01c0.542,0,1.085-0.004,1.625-0.013
		c3.569-0.053,5.407-1.602,6.144-5.178c1.353-6.577,2.721-13.146,4.089-19.715c1.293-6.209,2.586-12.418,3.867-18.633
		c1.365-6.627,2.72-13.253,4.075-19.881c1.387-6.781,2.773-13.563,4.171-20.344c0.423-2.05,0.869-4.098,1.314-6.146
		c0.557-2.561,1.114-5.12,1.628-7.687c0.184-0.923,0.391-1.109,1.23-1.109c3.618,0.012,7.233,0.015,10.851,0.015l9.674-0.003
		c5.998,0,11.997,0.008,17.999,0.051c4.807,0.018,7.683,2.889,7.693,7.679c0.023,23.679,0.018,47.348,0.014,71.018l-0.004,29.168
		c0,0.178-0.019,0.358-0.041,0.578c-0.002,0.021-0.005,0.041-0.007,0.063H56.725L57.035,137.901z"/>
	<path fill="#333333" d="M20.542,61.813c0,1,0.344,2.176,0.921,3.145c0.862,1.455,2.481,2.36,4.227,2.359
		c0.458,0,0.913-0.063,1.344-0.184c2.136-0.574,3.687-2.678,3.772-5.116c0.086-3.28,0.086-6.314,0-9.28
		c-0.02-0.558,0.052-0.912,0.219-1.085c0.165-0.171,0.479-0.253,1.151-0.25c4.063,0.094,7.934,0.094,11.585,0l0.143-0.002
		c0.538,0,0.882,0.086,1.052,0.262c0.183,0.188,0.258,0.579,0.236,1.226c-0.087,2.643-0.087,5.363,0,8.311
		c0.024,1.235,0.227,2.3,0.603,3.163c0.92,2.118,3.223,3.301,5.646,2.843c2.295-0.466,3.991-2.709,4.032-5.331
		c0.059-2.794,0.045-5.637,0.032-8.386c-0.006-1.189-0.011-2.379-0.011-3.566l-0.005-3.334c-0.006-2.612-0.013-5.224,0.016-7.828
		c0.139-10.986-8.34-17.586-16.389-18.22c-0.381-0.029-0.763-0.043-1.146-0.043c-8.797,0-16.837,7.249-17.205,15.513
		c-0.29,6.675-0.263,13.462-0.237,20.025C20.534,57.96,20.542,59.887,20.542,61.813z M34.182,31.895
		c2.555-1.554,5.282-1.512,7.8,0.123c3.229,2.094,3.372,5.295,3.103,8.971H30.907C30.616,37.367,30.75,33.982,34.182,31.895z"/>
	<path fill="#333333" d="M127.351,99.206c2.081-2.056,2.633-4.096,1.689-6.235c-0.957-2.178-2.829-3.281-5.607-3.281
		c-4.891,0.016-9.781,0.018-14.671,0.018h-4.241c-2.875,0-5.751,0-8.627,0.004c-1.953,0.005-3.737,0.722-4.897,1.966
		c-0.879,0.944-1.317,2.131-1.234,3.343c0.198,3.012,2.815,5.158,6.08,5.034c1.924-0.071,3.996-0.104,6.518-0.104
		c1.633,0,3.268,0.014,4.902,0.027c1.519,0.013,3.039,0.025,4.558,0.027c-0.058,0.073-0.115,0.148-0.173,0.223
		c-0.3,0.387-0.583,0.754-0.91,1.08c-6.347,6.366-12.705,12.723-19.063,19.072c-1.121,1.122-2.333,2.693-1.746,4.916
		c0.657,2.532,2.571,4.169,4.876,4.169c1.365,0,2.686-0.569,3.822-1.645c3.047-2.907,6.259-6.104,10.107-10.059
		c0.804-0.828,1.094-0.837,1.917,0.018c2.609,2.711,5.317,5.406,7.936,8.015l1.684,1.678c2.438,2.414,5.499,2.584,7.633,0.451
		c2.219-2.21,2.065-5.142-0.397-7.648c-2.106-2.169-4.285-4.338-6.391-6.437c-0.997-0.992-1.993-1.984-2.986-2.98
		c-0.286-0.286-0.561-0.586-0.872-0.926c-0.115-0.126-0.236-0.259-0.364-0.397l2.665-2.637
		C122.187,104.295,124.763,101.744,127.351,99.206z"/>
	<path fill="#333333" d="M102.76,85.35c0.769,0.006,1.539,0.008,2.311,0.008l4.624-0.008c0.809,0,1.618,0.004,2.427,0.008
		c0.812,0.006,1.625,0.01,2.438,0.01c0.814,0,1.63-0.004,2.45-0.018c2.84-0.068,5.162-2.366,5.176-5.124
		c0.01-2.689-2.327-5.087-4.999-5.13c-4.866-0.1-9.79-0.1-14.642,0c-1.321,0.021-2.657,0.645-3.664,1.71
		c-0.979,1.035-1.512,2.336-1.463,3.568C97.529,83.085,99.924,85.317,102.76,85.35z"/>
</g>
</svg>
