<?xml version="1.0" encoding="utf-8"?>
<!-- Generator: Adobe Illustrator 16.0.0, SVG Export Plug-In . SVG Version: 6.00 Build 0)  -->
<!DOCTYPE svg PUBLIC "-//W3C//DTD SVG 1.1//EN" "http://www.w3.org/Graphics/SVG/1.1/DTD/svg11.dtd">
<svg version="1.1" id="Layer_1" xmlns="http://www.w3.org/2000/svg" xmlns:xlink="http://www.w3.org/1999/xlink" x="0px" y="0px"
	 width="150px" height="150px" viewBox="0 0 150 150" enable-background="new 0 0 150 150" xml:space="preserve">
<path fill="#333333" d="M144.444,150c3.068,0,5.556-2.489,5.556-5.56V32.938c0-0.045-0.005-0.086-0.007-0.131
	c-0.002-0.114-0.007-0.229-0.018-0.343c-0.006-0.077-0.016-0.153-0.025-0.229c-0.013-0.101-0.027-0.201-0.045-0.302
	c-0.017-0.092-0.037-0.181-0.059-0.271c-0.019-0.082-0.039-0.164-0.063-0.246c-0.029-0.105-0.064-0.209-0.1-0.312
	c-0.023-0.065-0.045-0.13-0.072-0.195c-0.044-0.115-0.094-0.227-0.146-0.337c-0.016-0.036-0.028-0.072-0.045-0.106l-13.583-27.38
	C134.9,1.196,132.972,0,130.862,0H19.679c-2.079,0-3.984,1.161-4.938,3.009L0.618,30.388c-0.024,0.047-0.041,0.095-0.064,0.142
	c-0.051,0.106-0.102,0.214-0.146,0.323c-0.028,0.071-0.053,0.143-0.077,0.215c-0.036,0.098-0.071,0.197-0.102,0.297
	c-0.025,0.09-0.047,0.18-0.069,0.268c-0.02,0.086-0.041,0.17-0.057,0.256c-0.022,0.109-0.037,0.219-0.051,0.329
	c-0.01,0.068-0.02,0.137-0.025,0.206c-0.012,0.126-0.017,0.253-0.02,0.38c0,0.045-0.007,0.09-0.007,0.135v25.514v85.989
	c0,3.07,2.487,5.56,5.556,5.56H144.444z M83.529,138.884H66.966v-36.508h16.563V138.884z M11.11,38.496h23.791v19.955v0.321
	c0,3.919-1.389,6.835-4.244,8.915c-2.474,1.802-5.652,2.608-7.705,2.608c-2.611,0-11.842-2.837-11.842-11.845V38.496z
	 M46.013,38.496h23.358v20.276c0,3.964-1.339,6.895-4.093,8.962c-2.518,1.891-5.573,2.562-7.426,2.562
	c-2.611,0-11.84-2.837-11.84-11.845V38.496z M80.556,38.496h23.358v20.276c0,3.964-1.338,6.895-4.093,8.962
	c-2.518,1.891-5.573,2.562-7.426,2.562c-2.611,0-11.84-2.837-11.84-11.845V38.496z M115.1,38.496h23.358v20.276
	c0,3.964-1.339,6.895-4.094,8.962c-2.517,1.891-5.573,2.562-7.425,2.562c-2.611,0-11.84-2.837-11.84-11.845V38.496z M23.063,11.116
	h104.354l8.068,16.264H14.675L23.063,11.116z M11.11,77.765c3.745,2.278,8.067,3.648,11.842,3.648c5.76,0,12.932-2.547,17.734-7.972
	c0.849,0.925,1.785,1.796,2.807,2.601c4.203,3.313,9.705,5.371,14.359,5.371c5.355,0,12.628-2.311,17.469-7.877
	c0.825,0.89,1.729,1.729,2.715,2.506c4.203,3.313,9.706,5.371,14.359,5.371c5.355,0,12.629-2.311,17.469-7.879
	c0.826,0.891,1.729,1.73,2.716,2.508c4.203,3.313,9.705,5.371,14.359,5.371c3.561,0,7.971-1.02,11.949-3.338v60.809H94.641V96.817
	c0-3.069-2.487-5.558-5.556-5.558H61.41c-3.067,0-5.556,2.488-5.556,5.558v42.066H11.11V77.765z"/>
<path fill="#333333" d="M144.444,151c3.068,0,5.556-2.489,5.556-5.56V33.938c0-0.045-0.005-0.086-0.007-0.131
	c-0.002-0.114-0.007-0.229-0.018-0.343c-0.006-0.077-0.016-0.153-0.025-0.229c-0.013-0.101-0.027-0.201-0.045-0.302
	c-0.017-0.092-0.037-0.181-0.059-0.271c-0.019-0.082-0.039-0.164-0.063-0.246c-0.029-0.105-0.064-0.209-0.1-0.312
	c-0.023-0.065-0.045-0.13-0.072-0.195c-0.044-0.115-0.094-0.227-0.146-0.337c-0.016-0.036-0.028-0.072-0.045-0.106l-13.583-27.38
	C134.9,2.196,132.972,1,130.862,1H19.679c-2.079,0-3.984,1.161-4.938,3.009L0.618,31.388c-0.024,0.047-0.041,0.095-0.064,0.142
	c-0.051,0.106-0.102,0.214-0.146,0.323c-0.028,0.071-0.053,0.143-0.077,0.215c-0.036,0.098-0.071,0.197-0.102,0.297
	c-0.025,0.09-0.047,0.18-0.069,0.268c-0.02,0.086-0.041,0.17-0.057,0.256c-0.022,0.109-0.037,0.219-0.051,0.329
	c-0.01,0.068-0.02,0.137-0.025,0.206c-0.012,0.126-0.017,0.253-0.02,0.38c0,0.045-0.007,0.09-0.007,0.135v25.514v85.989
	c0,3.07,2.487,5.56,5.556,5.56H144.444z M83.529,139.884H66.966v-36.508h16.563V139.884z M11.11,39.496h23.791v19.955v0.321
	c0,3.919-1.389,6.835-4.244,8.915c-2.474,1.802-5.652,2.608-7.705,2.608c-2.611,0-11.842-2.837-11.842-11.845V39.496z
	 M46.013,39.496h23.358v20.276c0,3.964-1.339,6.895-4.093,8.962c-2.518,1.891-5.573,2.562-7.426,2.562
	c-2.611,0-11.84-2.837-11.84-11.845V39.496z M80.556,39.496h23.358v20.276c0,3.964-1.338,6.895-4.093,8.962
	c-2.518,1.891-5.573,2.562-7.426,2.562c-2.611,0-11.84-2.837-11.84-11.845V39.496z M115.1,39.496h23.358v20.276
	c0,3.964-1.339,6.895-4.094,8.962c-2.517,1.891-5.573,2.562-7.425,2.562c-2.611,0-11.84-2.837-11.84-11.845V39.496z M23.063,12.116
	h104.354l8.068,16.264H14.675L23.063,12.116z M11.11,78.765c3.745,2.278,8.067,3.648,11.842,3.648c5.76,0,12.932-2.547,17.734-7.972
	c0.849,0.925,1.785,1.796,2.807,2.601c4.203,3.313,9.705,5.371,14.359,5.371c5.355,0,12.628-2.311,17.469-7.877
	c0.825,0.89,1.729,1.729,2.715,2.506c4.203,3.313,9.706,5.371,14.359,5.371c5.355,0,12.629-2.311,17.469-7.879
	c0.826,0.891,1.729,1.73,2.716,2.508c4.203,3.313,9.705,5.371,14.359,5.371c3.561,0,7.971-1.02,11.949-3.338v60.809H94.641V97.817
	c0-3.069-2.487-5.558-5.556-5.558H61.41c-3.067,0-5.556,2.488-5.556,5.558v42.066H11.11V78.765z"/>
<path fill="#333333" d="M144.444,150c3.068,0,5.556-2.489,5.556-5.56V32.938c0-0.045-0.005-0.086-0.007-0.131
	c-0.002-0.114-0.007-0.229-0.018-0.343c-0.006-0.077-0.016-0.153-0.025-0.229c-0.013-0.101-0.027-0.201-0.045-0.302
	c-0.017-0.092-0.037-0.181-0.059-0.271c-0.019-0.082-0.039-0.164-0.063-0.246c-0.029-0.105-0.064-0.209-0.1-0.312
	c-0.023-0.065-0.045-0.13-0.072-0.195c-0.044-0.115-0.094-0.227-0.146-0.337c-0.016-0.036-0.028-0.072-0.045-0.106l-13.583-27.38
	C134.9,1.196,132.972,0,130.862,0H19.679c-2.079,0-3.984,1.161-4.938,3.009L0.618,30.388c-0.024,0.047-0.041,0.095-0.064,0.142
	c-0.051,0.106-0.102,0.214-0.146,0.323c-0.028,0.071-0.053,0.143-0.077,0.215c-0.036,0.098-0.071,0.197-0.102,0.297
	c-0.025,0.09-0.047,0.18-0.069,0.268c-0.02,0.086-0.041,0.17-0.057,0.256c-0.022,0.109-0.037,0.219-0.051,0.329
	c-0.01,0.068-0.02,0.137-0.025,0.206c-0.012,0.126-0.017,0.253-0.02,0.38c0,0.045-0.007,0.09-0.007,0.135v25.514v85.989
	c0,3.07,2.487,5.56,5.556,5.56H144.444z M83.529,138.884H66.966v-36.508h16.563V138.884z M11.11,38.496h23.791v19.955v0.321
	c0,3.919-1.389,6.835-4.244,8.915c-2.474,1.802-5.652,2.608-7.705,2.608c-2.611,0-11.842-2.837-11.842-11.845V38.496z
	 M46.013,38.496h23.358v20.276c0,3.964-1.339,6.895-4.093,8.962c-2.518,1.891-5.573,2.562-7.426,2.562
	c-2.611,0-11.84-2.837-11.84-11.845V38.496z M80.556,38.496h23.358v20.276c0,3.964-1.338,6.895-4.093,8.962
	c-2.518,1.891-5.573,2.562-7.426,2.562c-2.611,0-11.84-2.837-11.84-11.845V38.496z M115.1,38.496h23.358v20.276
	c0,3.964-1.339,6.895-4.094,8.962c-2.517,1.891-5.573,2.562-7.425,2.562c-2.611,0-11.84-2.837-11.84-11.845V38.496z M23.063,11.116
	h104.354l8.068,16.264H14.675L23.063,11.116z M11.11,77.765c3.745,2.278,8.067,3.648,11.842,3.648c5.76,0,12.932-2.547,17.734-7.972
	c0.849,0.925,1.785,1.796,2.807,2.601c4.203,3.313,9.705,5.371,14.359,5.371c5.355,0,12.628-2.311,17.469-7.877
	c0.825,0.89,1.729,1.729,2.715,2.506c4.203,3.313,9.706,5.371,14.359,5.371c5.355,0,12.629-2.311,17.469-7.879
	c0.826,0.891,1.729,1.73,2.716,2.508c4.203,3.313,9.705,5.371,14.359,5.371c3.561,0,7.971-1.02,11.949-3.338v60.809H94.641V96.817
	c0-3.069-2.487-5.558-5.556-5.558H61.41c-3.067,0-5.556,2.488-5.556,5.558v42.066H11.11V77.765z"/>
</svg>
