<?xml version="1.0" encoding="utf-8"?>
<!-- Generator: Adobe Illustrator 16.0.0, SVG Export Plug-In . SVG Version: 6.00 Build 0)  -->
<!DOCTYPE svg PUBLIC "-//W3C//DTD SVG 1.1//EN" "http://www.w3.org/Graphics/SVG/1.1/DTD/svg11.dtd">
<svg version="1.1" id="Layer_1" xmlns="http://www.w3.org/2000/svg" xmlns:xlink="http://www.w3.org/1999/xlink" x="0px" y="0px"
	 width="150px" height="150px" viewBox="0 0 150 150" enable-background="new 0 0 150 150" xml:space="preserve">
<g>
	<path fill="#333333" d="M58.706,117.544c14.257,0,27.34-5.113,37.521-13.597l44.289,44.291c1.085,1.085,2.507,1.628,3.929,1.628
		s2.844-0.543,3.928-1.627c2.17-2.17,2.17-5.688,0.002-7.857l-44.314-44.314c8.338-10.139,13.351-23.109,13.351-37.229
		c0-32.369-26.335-58.704-58.704-58.704C26.335,0.134,0,26.469,0,58.838C0,91.208,26.335,117.544,58.706,117.544z M58.706,11.245
		c26.242,0,47.593,21.351,47.593,47.593c0,26.244-21.351,47.595-47.593,47.595c-26.244,0-47.595-21.351-47.595-47.595
		C11.111,32.596,32.461,11.245,58.706,11.245z"/>
</g>
</svg>
