<?xml version="1.0" encoding="utf-8"?>
<!-- Generator: Adobe Illustrator 16.0.0, SVG Export Plug-In . SVG Version: 6.00 Build 0)  -->
<!DOCTYPE svg PUBLIC "-//W3C//DTD SVG 1.1//EN" "http://www.w3.org/Graphics/SVG/1.1/DTD/svg11.dtd">
<svg version="1.1" id="Layer_1" xmlns="http://www.w3.org/2000/svg" xmlns:xlink="http://www.w3.org/1999/xlink" x="0px" y="0px"
	 width="150px" height="150px" viewBox="0 0 150 150" enable-background="new 0 0 150 150" xml:space="preserve">
<g>
	<path fill="#333333" d="M2.756,120.838c2.355,2.084,5.836,2.635,8.745,1.346l13.577-6.047c2.896,3.75,6.841,8.352,11.785,12.994
		c14.453,13.563,30.553,20.733,46.561,20.733c14.382,0,28.635-5.637,42.369-16.757c2.922-2.371,3.85-6.408,2.25-9.83
		c-1.569-3.335-5.324-5.267-8.994-4.539c-8.242,1.64-15.939,2.472-22.882,2.472c-20.321,0-34.398-7.212-38.661-19.513l12.111-5.395
		c2.923-1.3,4.828-4.206,4.854-7.404c0.025-3.195-1.832-6.131-4.732-7.479L25.828,61.02c-2.119-0.982-4.646-0.997-6.76-0.055
		c-2.16,0.959-3.799,2.807-4.496,5.071l-14.214,46.28C-0.58,115.373,0.361,118.716,2.756,120.838z M24.205,72.518l35,16.259
		l-10.463,4.66c-2.301,1.025-3.625,3.47-3.225,5.958c2.563,15.918,17.213,32.927,50.649,32.927c3.899,0,7.993-0.233,12.253-0.697
		c-8.318,4.736-16.689,7.129-24.996,7.129c-13.131,0-26.602-6.129-38.956-17.723c-6.366-5.978-10.897-11.953-13.032-14.983
		c-1.069-1.517-2.781-2.356-4.545-2.356c-0.759,0-1.528,0.156-2.258,0.481l-11.758,5.236L24.205,72.518z"/>
	<path fill="#333333" d="M29.352,31.418c0.535,0,1.074-0.053,1.6-0.157c8.241-1.641,15.939-2.473,22.882-2.473
		c20.321,0,34.397,7.211,38.66,19.513l-12.115,5.396c-2.921,1.302-4.824,4.207-4.849,7.409c-0.023,3.192,1.834,6.127,4.731,7.475
		l43.915,20.402c1.068,0.494,2.257,0.756,3.435,0.756c1.153,0,2.271-0.237,3.332-0.709c2.155-0.963,3.79-2.809,4.483-5.066
		l14.215-46.28c0.939-3.058-0.002-6.402-2.395-8.52c-2.357-2.087-5.831-2.641-8.748-1.349l-13.576,6.047
		c-2.896-3.75-6.842-8.352-11.787-12.994C98.683,7.304,82.582,0.135,66.576,0.135c-14.381,0-28.636,5.637-42.369,16.758
		c-2.923,2.371-3.851,6.408-2.251,9.827C23.298,29.574,26.201,31.418,29.352,31.418z M66.576,11.247
		c13.13,0,26.601,6.129,38.955,17.723c6.365,5.977,10.898,11.953,13.033,14.982c1.527,2.167,4.373,2.955,6.803,1.876l11.758-5.236
		l-11.332,36.891l-34.999-16.26l10.463-4.659c2.302-1.025,3.626-3.471,3.226-5.959C101.92,34.686,87.27,17.677,53.833,17.677
		c-3.897,0-7.992,0.233-12.253,0.697C49.9,13.637,58.271,11.247,66.576,11.247z"/>
</g>
</svg>
