<?xml version="1.0" encoding="utf-8"?>
<!-- Generator: Adobe Illustrator 16.0.0, SVG Export Plug-In . SVG Version: 6.00 Build 0)  -->
<!DOCTYPE svg PUBLIC "-//W3C//DTD SVG 1.1//EN" "http://www.w3.org/Graphics/SVG/1.1/DTD/svg11.dtd">
<svg version="1.1" id="Layer_1" xmlns="http://www.w3.org/2000/svg" xmlns:xlink="http://www.w3.org/1999/xlink" x="0px" y="0px"
	 width="150px" height="150px" viewBox="0 0 150 150" enable-background="new 0 0 150 150" xml:space="preserve">
<g>
	<g>
		<path fill="#E1E4E6" d="M104.042,28.336V0h-67.65c-4.219,0-7.643,3.424-7.643,7.637v134.727c0,4.219,3.424,7.636,7.643,7.636
			h95.977c4.225,0,7.641-3.417,7.641-7.636V35.972h-28.33C107.46,35.972,104.042,32.554,104.042,28.336z"/>
		<path fill="#B0B6BC" d="M104.042,28.336c0,4.218,3.418,7.636,7.637,7.636h28.33L104.042,0V28.336z"/>
	</g>
	<path fill="#247E4C" d="M122.027,122.793c0,2.021-1.637,3.658-3.652,3.658H13.638c-2.012,0-3.647-1.637-3.647-3.658V73.75
		c0-2.018,1.636-3.651,3.647-3.651h104.736c2.016,0,3.652,1.634,3.652,3.651V122.793z"/>
	<g>
		<path fill="#FFFFFF" d="M55.06,113.179H48.79l-6.597-11.752l-6.987,11.752h-5l9.438-15.527L31.539,83.37h6.245l5.498,9.908
			l5.834-9.908h5.025l-8.302,13.604L55.06,113.179z"/>
		<path fill="#FFFFFF" d="M76.915,113.179H58.574V83.37h5.655v24.937h12.686V113.179z"/>
		<path fill="#FFFFFF" d="M77.745,105.991l5.22-1.112c0.625,2.953,3.027,4.435,7.206,4.435c1.905,0,3.376-0.382,4.396-1.133
			c1.029-0.764,1.547-1.704,1.547-2.823c0-0.815-0.235-1.573-0.703-2.256c-0.469-0.693-1.466-1.234-2.987-1.63l-5.704-1.48
			c-1.953-0.518-3.389-1.094-4.321-1.738c-0.932-0.65-1.686-1.563-2.242-2.743c-0.557-1.173-0.834-2.442-0.834-3.775
			c0-2.665,0.981-4.806,2.964-6.411c1.982-1.606,4.512-2.412,7.602-2.412c2.56,0,4.851,0.561,6.866,1.68
			c2.016,1.118,3.301,2.709,3.857,4.761l-5.112,1.271c-0.791-2.257-2.622-3.389-5.503-3.389c-1.676,0-2.954,0.351-3.833,1.049
			c-0.88,0.698-1.323,1.586-1.323,2.661c0,1.699,1.382,2.901,4.146,3.579l5.068,1.275c3.081,0.765,5.136,1.908,6.182,3.407
			c1.05,1.51,1.577,3.179,1.577,4.991c0,2.928-1.109,5.238-3.306,6.918c-2.212,1.68-5.069,2.524-8.574,2.524
			c-2.96,0-5.548-0.626-7.765-1.86C79.948,110.542,78.476,108.609,77.745,105.991z"/>
	</g>
	<g>
		<path fill="#267E4C" d="M100.166,26.206H83.863c-0.264,0-0.479,0.215-0.479,0.479v23.52c0,0.264,0.215,0.48,0.479,0.48h16.303
			c0.26,0,0.475-0.217,0.475-0.48v-23.52C100.64,26.42,100.425,26.206,100.166,26.206z M91.603,48.208h-5.23v-2.666h5.23V48.208z
			 M91.603,44.009h-5.23v-2.666h5.23V44.009z M91.603,39.81h-5.23v-2.667h5.23V39.81z M91.603,35.606h-5.23v-2.66h5.23V35.606z
			 M91.603,31.413h-5.23v-2.668h5.23V31.413z M98.096,48.208h-5.229v-2.666h5.229V48.208z M98.096,44.009h-5.229v-2.666h5.229
			V44.009z M98.096,39.81h-5.229v-2.667h5.229V39.81z M98.096,35.606h-5.229v-2.66h5.229V35.606z M98.096,31.413h-5.229v-2.668
			h5.229V31.413z"/>
		<g>
			<path fill="#267E4C" d="M68.121,24.869v27.202l20.15,3.672V21.231L68.121,24.869z M82.451,44.616l-2.596-0.148l-1.936-4.72
				l-1.86,4.467l-2.339-0.126l2.931-5.616l-2.72-5.646l2.427-0.141l1.729,4.404l1.811-4.639l2.553-0.186l-3.139,6.182L82.451,44.616
				z"/>
		</g>
	</g>
</g>
</svg>
