<?xml version="1.0" encoding="utf-8"?>
<!-- Generator: Adobe Illustrator 16.0.0, SVG Export Plug-In . SVG Version: 6.00 Build 0)  -->
<!DOCTYPE svg PUBLIC "-//W3C//DTD SVG 1.1//EN" "http://www.w3.org/Graphics/SVG/1.1/DTD/svg11.dtd">
<svg version="1.1" id="Layer_1" xmlns="http://www.w3.org/2000/svg" xmlns:xlink="http://www.w3.org/1999/xlink" x="0px" y="0px"
	 width="150px" height="150px" viewBox="0 0 150 150" enable-background="new 0 0 150 150" xml:space="preserve">
<g>
	<path fill="#333333" d="M75.002,32.507c-16.335,0-29.624,13.291-29.624,29.628c0,16.335,13.289,29.624,29.624,29.624
		c16.333,0,29.621-13.289,29.621-29.624C104.623,45.798,91.335,32.507,75.002,32.507z M75.002,81.222
		c-10.526,0-19.089-8.563-19.089-19.087c0-10.526,8.563-19.092,19.089-19.092c10.524,0,19.087,8.565,19.087,19.092
		C94.089,72.66,85.526,81.222,75.002,81.222z"/>
	<path fill="#333333" d="M0,74.997c0,15.68,4.768,30.607,13.782,43.315l-0.031,0.024l1.166,1.559
		c0.032,0.043,0.065,0.085,0.098,0.127l1.069,1.428l0.021-0.015C30.43,139.612,51.782,150,74.999,150
		c23.22,0,44.572-10.386,58.895-28.563l0.024,0.019l1.167-1.561c0.023-0.03,0.044-0.062,0.066-0.094l1.102-1.471l-0.029-0.022
		C145.235,105.599,150,90.671,150,74.997C150,33.643,116.354,0,74.999,0C33.646,0,0,33.643,0,74.997z M75.002,104.553
		c20.315,0,38.229,7.457,43.782,17.775c-11.811,10.994-27.246,17.134-43.785,17.134c-16.537,0-31.97-6.14-43.783-17.136
		C36.771,112.01,54.684,104.553,75.002,104.553z M126.61,113.625c-0.172,0.229-0.357,0.443-0.532,0.67
		c-8.858-12.116-28.603-20.278-51.076-20.278c-22.479,0-42.223,8.162-51.08,20.278c-0.187-0.243-0.384-0.471-0.567-0.716
		l-0.067-0.089c-8.34-11.19-12.749-24.497-12.749-38.493c0-35.543,28.916-64.46,64.461-64.46s64.463,28.917,64.463,64.46
		c0,14.041-4.432,27.382-12.816,38.582L126.61,113.625z"/>
</g>
</svg>
