<?xml version="1.0" encoding="utf-8"?>
<!-- Generator: Adobe Illustrator 16.0.0, SVG Export Plug-In . SVG Version: 6.00 Build 0)  -->
<!DOCTYPE svg PUBLIC "-//W3C//DTD SVG 1.1//EN" "http://www.w3.org/Graphics/SVG/1.1/DTD/svg11.dtd">
<svg version="1.1" id="Layer_1" xmlns="http://www.w3.org/2000/svg" xmlns:xlink="http://www.w3.org/1999/xlink" x="0px" y="0px"
	 width="150px" height="150px" viewBox="0 0 150 150" enable-background="new 0 0 150 150" xml:space="preserve">
<g>
	<path fill="#333333" d="M66.83,6.168c0-3.068-2.487-5.556-5.556-5.556H5.556C2.487,0.613,0,3.1,0,6.168v55.717
		c0,3.068,2.487,5.556,5.556,5.556h55.719c3.068,0,5.556-2.487,5.556-5.556V6.168z M55.72,56.331H11.11V11.724H55.72V56.331z"/>
	<path fill="#333333" d="M66.83,143.833V88.114c0-3.068-2.487-5.556-5.556-5.556H5.556C2.487,82.558,0,85.045,0,88.114v55.719
		c0,3.067,2.487,5.555,5.556,5.555h55.719C64.343,149.387,66.83,146.9,66.83,143.833z M55.72,138.276H11.11V93.669H55.72V138.276z"
		/>
	<path fill="#333333" d="M144.444,67.441c3.068,0,5.556-2.487,5.556-5.556V6.168c0-3.068-2.487-5.556-5.556-5.556H88.724
		c-3.067,0-5.555,2.487-5.555,5.556v55.717c0,3.068,2.487,5.556,5.555,5.556H144.444z M94.28,11.724h44.608v44.606H94.28V11.724z"/>
</g>
</svg>
