<?xml version="1.0" encoding="utf-8"?>
<!-- Generator: Adobe Illustrator 16.0.0, SVG Export Plug-In . SVG Version: 6.00 Build 0)  -->
<!DOCTYPE svg PUBLIC "-//W3C//DTD SVG 1.1//EN" "http://www.w3.org/Graphics/SVG/1.1/DTD/svg11.dtd">
<svg version="1.1" id="Layer_1" xmlns="http://www.w3.org/2000/svg" xmlns:xlink="http://www.w3.org/1999/xlink" x="0px" y="0px"
	 width="150px" height="150px" viewBox="0 0 150 150" enable-background="new 0 0 150 150" xml:space="preserve">
<g>
	<circle fill="#FFDE00" cx="75" cy="75" r="75"/>
	<g>
		<path fill-rule="evenodd" clip-rule="evenodd" fill="#037CFC" d="M74.857,32.875c16.86-0.016,30.656,13.728,30.258,30.389
			c-0.199,8.396-4.334,15.299-9.697,21.316c-7.898,8.859-14.022,18.652-17.711,29.955c-0.441,1.348-1.072,2.689-2.891,2.596
			c-1.603-0.078-2.104-1.162-2.576-2.51c-3.843-11.078-9.627-20.965-17.527-29.717c-4.884-5.413-8.83-11.541-9.662-19.112
			c-1.545-14.155,7.269-27.468,20.879-31.62C68.846,33.281,71.805,32.789,74.857,32.875z M74.924,72.973
			c5.502-0.006,10.072-4.492,10.135-9.949c0.064-5.517-4.682-10.189-10.277-10.116c-5.556,0.067-9.859,4.497-9.826,10.106
			C64.98,68.615,69.355,72.979,74.924,72.973z"/>
	</g>
</g>
</svg>
