<?xml version="1.0" encoding="utf-8"?>
<!-- Generator: Adobe Illustrator 16.0.0, SVG Export Plug-In . SVG Version: 6.00 Build 0)  -->
<!DOCTYPE svg PUBLIC "-//W3C//DTD SVG 1.1//EN" "http://www.w3.org/Graphics/SVG/1.1/DTD/svg11.dtd">
<svg version="1.1" id="Layer_1" xmlns="http://www.w3.org/2000/svg" xmlns:xlink="http://www.w3.org/1999/xlink" x="0px" y="0px"
	 width="150px" height="150px" viewBox="0 0 150 150" enable-background="new 0 0 150 150" xml:space="preserve">
<g>
	<g>
		<path fill="#E1E4E6" d="M104.042,28.336V0H36.39c-4.218,0-7.642,3.424-7.642,7.637v134.727c0,4.219,3.424,7.636,7.642,7.636
			h95.983c4.218,0,7.637-3.417,7.637-7.636V35.972h-28.326C107.459,35.972,104.042,32.554,104.042,28.336z"/>
		<path fill="#B0B6BC" d="M104.042,28.336c0,4.218,3.417,7.636,7.642,7.636h28.326L104.042,0V28.336z"/>
	</g>
	<path fill="#ED3026" d="M122.026,122.793c0,2.021-1.635,3.658-3.652,3.658H13.642c-2.022,0-3.652-1.637-3.652-3.658V73.75
		c0-2.018,1.63-3.651,3.652-3.651h104.731c2.018,0,3.652,1.634,3.652,3.651V122.793z"/>
	<g>
		<g>
			<path fill="#FFFFFF" d="M33.91,113.179h-5.365V83.37h12.208c3.477,0,6.059,0.879,7.743,2.632c1.68,1.759,2.52,3.822,2.52,6.211
				c0,2.726-0.909,4.932-2.73,6.621c-1.819,1.688-4.125,2.533-6.923,2.533H33.91V113.179z M33.91,96.754h6.362
				c1.666,0,2.931-0.406,3.805-1.221c0.869-0.813,1.309-1.901,1.309-3.257c0-1.222-0.41-2.267-1.217-3.146
				c-0.805-0.875-2.264-1.304-4.374-1.304H33.91V96.754z"/>
			<path fill="#FFFFFF" d="M55.19,113.179V83.37h10.977c4.066,0,7.329,1.436,9.785,4.312c2.461,2.88,3.691,6.421,3.691,10.646
				c0,4.223-1.264,7.753-3.799,10.589c-2.535,2.843-6.162,4.264-10.874,4.264H55.19z M60.712,108.79h4.482
				c2.398,0,4.434-0.903,6.113-2.71c1.665-1.802,2.5-4.487,2.5-8.058c0-2.909-0.728-5.375-2.187-7.392
				c-1.466-2.017-3.395-3.026-5.798-3.026h-5.111V108.79z"/>
			<path fill="#FFFFFF" d="M90.14,113.179h-5.517V83.37h18.843v4.609H90.14v8.145h10.489v4.473H90.14V113.179z"/>
		</g>
	</g>
	<path fill-rule="evenodd" clip-rule="evenodd" fill="#ED3026" d="M86.092,23.1c-0.028,2.945-0.601,5.484-1.265,8.01
		c-0.219,0.84-0.424,1.688-0.667,2.523c-0.099,0.336-0.061,0.597,0.121,0.894c1.436,2.511,3.236,4.747,5.029,6.993
		c0.352,0.434,0.713,0.848,1.046,1.298c0.159,0.22,0.326,0.27,0.59,0.229c3.018-0.416,6.036-0.86,9.093-0.663
		c1.312,0.082,2.611,0.267,3.827,0.81c1.396,0.625,2.358,1.583,2.432,3.218c0.05,1.112-0.455,1.909-1.401,2.427
		c-1.147,0.63-2.398,0.737-3.672,0.658c-3.007-0.185-5.707-1.278-8.213-2.908c-0.889-0.582-1.715-1.241-2.485-1.973
		c-0.22-0.206-0.425-0.264-0.719-0.206c-3.735,0.753-7.421,1.694-11.009,2.988c-0.264,0.093-0.426,0.238-0.572,0.454
		c-1.3,1.895-2.441,3.905-3.854,5.728c-1.249,1.611-2.548,3.179-4.16,4.443c-1.19,0.937-2.529,1.514-4.032,1.694
		c-1.812,0.225-3.379-0.775-3.681-2.379c-0.152-0.814,0.15-1.528,0.585-2.188c0.831-1.284,2.017-2.196,3.252-3.05
		c2.472-1.705,5.21-2.921,7.88-4.245c0.611-0.303,0.992-0.683,1.28-1.304c2.114-4.568,4.048-9.207,5.801-13.931
		c0.103-0.269,0.098-0.501,0-0.766c-0.792-2.123-1.548-4.264-1.841-6.524c-0.25-1.889-0.474-3.788-0.074-5.673
		c0.494-2.32,2.783-3.145,4.703-1.752c1.229,0.889,1.674,2.182,1.885,3.597C86.068,22.139,86.108,22.779,86.092,23.1z
		 M79.252,46.016c3.314-1.167,6.694-2.013,10.225-2.656c-2.256-2.559-4.263-5.156-6.065-7.993
		C82.236,39.04,80.766,42.5,79.252,46.016z M91.528,44.019c0.094,0.239,0.264,0.283,0.396,0.38c2.069,1.51,4.395,2.486,6.811,3.281
		c0.782,0.26,1.577,0.461,2.417,0.377c1.002-0.093,1.832-0.777,1.989-1.646c0.179-0.952-0.288-1.832-1.231-2.314
		c-0.708-0.366-1.471-0.538-2.261-0.604C96.928,43.249,94.252,43.672,91.528,44.019z M73.735,49.345
		c-1.904,0.929-3.81,1.803-5.615,2.862c-1.016,0.601-2.008,1.234-2.891,2.017c-0.718,0.63-1.431,1.289-1.699,2.256
		c-0.299,1.06,0.601,2.075,1.685,1.879c0.933-0.161,1.733-0.639,2.441-1.235c1.591-1.347,2.853-2.987,4.077-4.652
		C72.469,51.481,73.144,50.449,73.735,49.345z M81.962,30.479c0.59-1.807,1.011-3.55,1.347-5.313
		c0.172-0.922,0.338-1.852,0.402-2.794c0.067-0.869,0.106-1.742-0.139-2.597c-0.189-0.659-0.771-1.172-1.371-1.235
		c-0.747-0.077-1.152,0.366-1.46,0.943c-0.239,0.448-0.351,0.942-0.431,1.439c-0.209,1.387,0.041,2.749,0.217,4.111
		C80.76,26.875,81.336,28.619,81.962,30.479z"/>
</g>
</svg>
