<?xml version="1.0" encoding="utf-8"?>
<!-- Generator: Adobe Illustrator 16.0.0, SVG Export Plug-In . SVG Version: 6.00 Build 0)  -->
<!DOCTYPE svg PUBLIC "-//W3C//DTD SVG 1.1//EN" "http://www.w3.org/Graphics/SVG/1.1/DTD/svg11.dtd">
<svg version="1.1" id="Layer_1" xmlns="http://www.w3.org/2000/svg" xmlns:xlink="http://www.w3.org/1999/xlink" x="0px" y="0px"
	 width="150px" height="150px" viewBox="0 0 150 150" enable-background="new 0 0 150 150" xml:space="preserve">
<g>
	<path fill="#333333" d="M78.362,120.524v-18.369c2.483-1.241,4.204-3.782,4.204-6.748c0-4.177-3.387-7.566-7.566-7.566
		s-7.565,3.389-7.565,7.566c0,2.965,1.723,5.506,4.206,6.748v18.369c-25.368,0.523-45.413,6.911-45.413,14.717
		C26.228,143.391,48.063,150,75,150c26.938,0,48.772-6.609,48.772-14.759C123.772,127.436,103.73,121.048,78.362,120.524z"/>
	<path fill="#333333" d="M46.837,72.192L58.715,84.07c4.174-4.172,9.933-6.755,16.285-6.755s12.111,2.583,16.285,6.755l11.88-11.878
		C95.949,64.979,85.986,60.506,75,60.506C64.016,60.506,54.051,64.979,46.837,72.192z"/>
	<path fill="#333333" d="M123.655,51.699C111.191,39.235,93.979,31.515,75,31.515s-36.189,7.72-48.653,20.185l11.877,11.879
		C47.645,54.158,60.655,48.322,75,48.322s27.355,5.836,36.775,15.256L123.655,51.699z"/>
	<path fill="#333333" d="M4.07,29.427l11.881,11.881c15.128-15.132,36.016-24.5,59.049-24.5c23.036,0,43.92,9.368,59.049,24.5
		l11.881-11.881C127.756,11.253,102.67,0,75,0C47.332,0,22.244,11.253,4.07,29.427z"/>
</g>
</svg>
