<?xml version="1.0" encoding="utf-8"?>
<!-- Generator: Adobe Illustrator 16.0.0, SVG Export Plug-In . SVG Version: 6.00 Build 0)  -->
<!DOCTYPE svg PUBLIC "-//W3C//DTD SVG 1.1//EN" "http://www.w3.org/Graphics/SVG/1.1/DTD/svg11.dtd">
<svg version="1.1" id="Layer_1" xmlns="http://www.w3.org/2000/svg" xmlns:xlink="http://www.w3.org/1999/xlink" x="0px" y="0px"
	 width="150px" height="150px" viewBox="0 0 150 150" enable-background="new 0 0 150 150" xml:space="preserve">
<path fill="#333333" d="M13.243,73.784c0.391,0,0.779-0.057,1.148-0.168c1.896-0.558,3.102-2.392,2.868-4.345
	c-0.046-0.429-1.046-10.562,5.001-15.29c0.99-0.779,2.113-1.142,3.533-1.142c4.582,0,10.184,3.888,11.961,5.393
	c0.922,0.774,2.179,1.094,3.359,0.866L63.256,81.24L49.644,94.855c-0.24-0.213-0.511-0.399-0.808-0.559
	c-1.834-0.966-4.104-1.954-7.033-1.954c-3.987,0-7.792,1.529-10.379,4.139l-21.271,19.168c-2.445,2.456-3.738,5.448-3.738,8.651
	c0,3.899,1.879,7.765,5.588,11.49l8.559,8.571C24.25,148.051,28.284,150,32.227,150c3.24,0,6.305-1.354,8.859-3.917l18.317-21.237
	c4.317-4.35,5.411-11.251,2.72-17.186c-0.13-0.288-0.295-0.563-0.486-0.811l13.617-13.614l9.69,9.69l-0.804,0.804
	c-0.76,0.765-1.178,1.777-1.178,2.854c0,1.063,0.43,2.103,1.182,2.859l36.77,36.765c0.762,0.764,1.777,1.185,2.859,1.185
	c1.08,0,2.097-0.42,2.859-1.184l16.592-16.594c0.768-0.763,1.189-1.777,1.191-2.857c0.001-1.081-0.422-2.099-1.188-2.863
	l-36.766-36.771c-0.732-0.733-1.775-1.155-2.857-1.155c-1.083,0-2.125,0.422-2.857,1.155l-0.801,0.8l-9.689-9.69l18.356-18.36
	l0.911,0.911c0.764,0.763,1.778,1.183,2.856,1.183s2.092-0.42,2.858-1.184l11.402-11.4c5.378-5.384,5.378-14.146-0.004-19.536
	c-2.609-2.605-6.076-4.04-9.763-4.04s-7.155,1.438-9.769,4.049L95.715,41.249c-0.768,0.762-1.189,1.778-1.189,2.861
	c0,1.064,0.433,2.107,1.186,2.856l0.908,0.907L78.26,66.235L56.211,44.185c0.359-1.172,0.18-2.467-0.541-3.494
	c-0.111-0.161-2.73-3.991-0.527-8.962c1.154-2.61,1.664-2.755,3.18-3.187c1.516-0.438,3.805-1.096,6.193-3.426
	c4.738-4.619,5.326-7.749,5.254-9.201c-0.049-1.004-0.467-1.948-1.18-2.66L56.581,1.247c-0.457-0.456-1.02-0.798-1.611-0.984
	C54.602,0.143,53.991,0,53.159,0c-2.467,0-6.3,1.211-10.56,6.983c-0.405,0.55-0.665,1.195-0.751,1.859
	c-0.037,0.253-0.965,6.192-8.281,6.193c-0.398,0-0.815-0.018-1.201-0.049c-1.14-0.131-2.271,0.26-3.143,1.066
	c-0.549,0.515-1.193,1.093-1.916,1.738c-9.159,8.22-30.609,27.47-17.691,53.735C10.291,72.898,11.713,73.784,13.243,73.784z
	 M112.382,52.204l-8.095-8.096l8.538-8.537c1.024-1.023,2.503-1.609,4.056-1.609c1.55,0,3.023,0.586,4.042,1.604
	c2.231,2.234,2.231,5.867,0.003,8.1L112.382,52.204z M90.661,97.206l-9.689-9.689l3.568-3.568l9.691,9.69L90.661,97.206z
	 M92.721,106.582l10.885-10.881l31.05,31.051l-10.882,10.881L92.721,106.582z M32.227,141.915c-1.726,0-3.838-1.161-5.943-3.27
	l-8.557-8.565c-2.112-2.119-3.229-4.117-3.229-5.779c0-1.047,0.42-1.979,1.225-2.794l21.273-19.17
	c1.205-1.211,2.957-1.906,4.807-1.906c0.84,0,1.648,0.221,2.749,0.757l10.456,10.424c0.977,2.742,0.393,5.802-1.494,7.694
	l-18.309,21.231C34.261,141.465,33.287,141.915,32.227,141.915z M55.372,100.56l46.964-46.967l0.563,0.563L55.933,101.12
	L55.372,100.56z M52.371,8.474l8.55,8.548c-0.438,0.598-1.088,1.366-2.05,2.306c-0.934,0.91-1.626,1.109-2.781,1.441
	c-2.982,0.855-5.863,2.088-8.341,7.686c-2.512,5.668-1.568,10.604-0.294,13.801l-7.507,7.57c-3.536-2.352-8.785-5.07-14.154-5.07
	c-3.229,0-6.094,0.961-8.519,2.856c-1.161,0.908-2.207,1.948-3.132,3.113c2.176-12.213,12.603-21.563,18.646-26.984
	c0.235-0.211,0.462-0.415,0.682-0.614c0.057,0.001,0.114,0.001,0.171,0.001c9.779,0,14.699-6.407,16.005-12.042
	C50.829,9.609,51.764,8.854,52.371,8.474z M68.975,75.522L47.321,53.873l3.557-3.587l21.665,21.667L68.975,75.522z"/>
</svg>
