<?xml version="1.0" encoding="utf-8"?>
<!-- Generator: Adobe Illustrator 16.0.0, SVG Export Plug-In . SVG Version: 6.00 Build 0)  -->
<!DOCTYPE svg PUBLIC "-//W3C//DTD SVG 1.1//EN" "http://www.w3.org/Graphics/SVG/1.1/DTD/svg11.dtd">
<svg version="1.1" id="Layer_1" xmlns="http://www.w3.org/2000/svg" xmlns:xlink="http://www.w3.org/1999/xlink" x="0px" y="0px"
	 width="150px" height="150px" viewBox="0 0 150 150" enable-background="new 0 0 150 150" xml:space="preserve">
<g>
	<path fill="#333333" d="M133.435,3.576C132.62,1.423,130.568,0,128.278,0H21.286c-2.273,0-4.316,1.405-5.143,3.538
		C13.667,9.936,1.263,42.094,0.311,46.882c-1.314,6.623,1.548,16.111,8.466,19.892c1.154,0.63,2.441,1.066,3.799,1.317v76.146
		c0,3.068,2.471,5.555,5.519,5.555h28.212c0.471,0.133,0.966,0.208,1.479,0.208s1.008-0.075,1.479-0.208h50.608
		c0.472,0.133,0.967,0.208,1.48,0.208s1.008-0.075,1.479-0.208h28.627c3.048,0,5.52-2.486,5.52-5.555v-75.6
		c8.856-1.61,12.973-11.256,13.022-20.277c0.003-0.688-0.12-1.369-0.362-2.011L133.435,3.576z M95.833,138.681h-42.53V96.078h42.53
		V138.681z M106.871,138.681v-48.16c0-3.066-2.472-5.555-5.519-5.555H47.784c-3.048,0-5.519,2.488-5.519,5.555v48.16H23.612V65.96
		c1.08-0.656,2.115-1.447,3.074-2.388c3.646,3.304,8.48,5.044,12.381,5.044c2.454,0,7.268-0.661,11.506-5.158
		c3.41,3.23,8.064,5.029,12.533,5.029c4.623,0,8.451-1.653,11.453-4.932c3.656,3.398,8.529,5.191,12.457,5.191
		c1.882,0,6.762-0.505,11.205-5.169c2.744,3.079,6.76,5.299,12.316,5.299c5.082,0,8.817-1.767,11.502-4.271
		c1.125,1.058,2.432,1.926,3.899,2.601v71.475H106.871z M134.319,57.766c-4.049,0-6.244-1.043-6.244-6.544
		c0-2.986-2.344-5.464-5.308-5.576c-0.071-0.003-0.143-0.004-0.214-0.004c-2.871,0-5.277,2.207-5.496,5.114
		c-0.154,1.644-1.079,7.01-6.52,7.01c-5.144,0-5.994-4.778-6.117-6.782c-0.115-2.687-2.125-4.905-4.771-5.267
		c-2.645-0.362-5.171,1.236-5.994,3.794c-1.804,5.613-4.635,8.125-6.639,8.125c-1.148,0-6.76-1.676-6.76-6.152
		c0-2.76-2.01-5.1-4.721-5.5c-2.715-0.394-5.303,1.267-6.087,3.91c-2.219,7.482-4.8,7.482-6.343,7.482
		c-1.315,0-6.631-1.05-6.631-5.893c0-2.744-1.988-5.076-4.682-5.492c-2.697-0.417-5.286,1.21-6.102,3.826
		c-0.896,2.871-2.949,7.688-6.625,7.688c-1.146,0-6.76-1.604-6.76-5.893c0-2.869-2.17-5.266-5.008-5.532
		c-2.849-0.261-5.41,1.687-5.936,4.509c-0.913,4.907-3.878,6.648-6.139,6.648c-0.563,0-0.98-0.117-1.184-0.229
		c-2.084-1.139-3.406-5.443-2.91-7.942c0.539-2.555,7.276-20.68,13.93-37.954h99.415L138.904,49.2
		C138.702,51.565,137.833,57.766,134.319,57.766z"/>
</g>
</svg>
