<?xml version="1.0" encoding="utf-8"?>
<!-- Generator: Adobe Illustrator 16.0.0, SVG Export Plug-In . SVG Version: 6.00 Build 0)  -->
<!DOCTYPE svg PUBLIC "-//W3C//DTD SVG 1.1//EN" "http://www.w3.org/Graphics/SVG/1.1/DTD/svg11.dtd">
<svg version="1.1" id="Layer_1" xmlns="http://www.w3.org/2000/svg" xmlns:xlink="http://www.w3.org/1999/xlink" x="0px" y="0px"
	 width="150px" height="150px" viewBox="0 0 150 150" enable-background="new 0 0 150 150" xml:space="preserve">
<g>
	<path fill="#333333" d="M144,19.37H6c-3.313,0-6,2.687-6,6s2.687,6,6,6h138c3.313,0,6-2.687,6-6S147.313,19.37,144,19.37z"/>
	<path fill="#333333" d="M144,69H6c-3.313,0-6,2.687-6,6s2.687,6,6,6h138c3.313,0,6-2.687,6-6S147.313,69,144,69z"/>
	<path fill="#333333" d="M144,118.63H6c-3.313,0-6,2.687-6,6s2.687,6,6,6h138c3.313,0,6-2.687,6-6S147.313,118.63,144,118.63z"/>
</g>
</svg>
