<?xml version="1.0" encoding="utf-8"?>
<!-- Generator: Adobe Illustrator 16.0.0, SVG Export Plug-In . SVG Version: 6.00 Build 0)  -->
<!DOCTYPE svg PUBLIC "-//W3C//DTD SVG 1.1//EN" "http://www.w3.org/Graphics/SVG/1.1/DTD/svg11.dtd">
<svg version="1.1" id="Layer_1" xmlns="http://www.w3.org/2000/svg" xmlns:xlink="http://www.w3.org/1999/xlink" x="0px" y="0px"
	 width="150px" height="150px" viewBox="0 0 150 150" enable-background="new 0 0 150 150" xml:space="preserve">
<g>
	<path fill="#333333" d="M122.712,150c0.012,0,0.023-0.002,0.036-0.002h9.517c3.067,0,5.555-2.487,5.555-5.556
		c0-3.067-2.487-5.555-5.555-5.555h-5.576c-1.203-4.891-0.59-9.563,0.115-12.568c6.105-0.199,11.016-5.215,11.016-11.369V11.388
		C137.819,5.108,132.712,0,126.434,0h-16.431H79.216h-55.65c-6.277,0-11.385,5.108-11.385,11.388v70.459v33.104v15.564
		c0,0.275,0.027,0.544,0.065,0.809c-0.03,0.428-0.065,0.854-0.065,1.289c0,9.587,7.799,17.386,17.386,17.386h93.12
		C122.696,149.998,122.704,150,122.712,150z M104.446,11.11v38.646l-5.909-5.91c-1.043-1.043-2.456-1.628-3.929-1.628
		c-1.475,0-2.888,0.586-3.93,1.628l-5.908,5.908V11.11H104.446z M23.292,11.388c0-0.155,0.12-0.277,0.273-0.277H73.66v52.059
		c0,2.248,1.354,4.273,3.43,5.133c0.687,0.285,1.409,0.423,2.125,0.423c1.446,0,2.867-0.563,3.93-1.628l11.464-11.466l11.465,11.466
		c1.589,1.59,3.979,2.064,6.055,1.205c2.076-0.859,3.43-2.885,3.43-5.133V11.11h10.876c0.151,0,0.274,0.125,0.274,0.277V114.95
		c0,0.15-0.125,0.276-0.274,0.276h-3.653c-0.023,0-0.045,0-0.068,0h-1.961H32.382h-2.815c-2.215,0-4.325,0.433-6.274,1.19v-1.467
		V81.847V11.388z M23.292,132.612c0-3.46,2.814-6.274,6.274-6.274h2.815h83.091c-0.589,3.474-0.882,7.843-0.116,12.55h-85.79
		C26.106,138.888,23.292,136.072,23.292,132.612z"/>
</g>
</svg>
