<?xml version="1.0" encoding="utf-8"?>
<!-- Generator: Adobe Illustrator 16.0.0, SVG Export Plug-In . SVG Version: 6.00 Build 0)  -->
<!DOCTYPE svg PUBLIC "-//W3C//DTD SVG 1.1//EN" "http://www.w3.org/Graphics/SVG/1.1/DTD/svg11.dtd">
<svg version="1.1" id="Layer_1" xmlns="http://www.w3.org/2000/svg" xmlns:xlink="http://www.w3.org/1999/xlink" x="0px" y="0px"
	 width="150px" height="150px" viewBox="0 0 150 150" enable-background="new 0 0 150 150" xml:space="preserve">
<g>
	<path fill="#333333" d="M127.763,51.614c-1.632,0-3.222,0.182-4.752,0.516c0.394-1.657,0.606-3.386,0.606-5.163
		c0-12.281-9.953-22.236-22.235-22.236c-5.066,0-9.733,1.696-13.474,4.554C83.45,14.579,69.799,3.878,53.644,3.878
		c-19.774,0-35.804,16.029-35.804,35.803c0,4.229,0.738,8.285,2.086,12.053C8.73,52.889,0,62.353,0,73.853
		c0,12.278,9.955,22.231,22.237,22.231c0.574,0,13.887,0,30.873,0v17.426H38.582l24.69,32.612l24.687-32.612H73.182V96.084
		c0.007,0,0.013,0,0.017,0v-18.3H58.422l24.688-32.616l24.689,32.616H93.272v18.3c18.677,0,33.878,0,34.49,0
		c12.281,0,22.237-9.953,22.237-22.231C150,61.572,140.044,51.614,127.763,51.614z"/>
</g>
</svg>
