<?xml version="1.0" encoding="utf-8"?>
<!-- Generator: Adobe Illustrator 16.0.0, SVG Export Plug-In . SVG Version: 6.00 Build 0)  -->
<!DOCTYPE svg PUBLIC "-//W3C//DTD SVG 1.1//EN" "http://www.w3.org/Graphics/SVG/1.1/DTD/svg11.dtd">
<svg version="1.1" id="Layer_1" xmlns="http://www.w3.org/2000/svg" xmlns:xlink="http://www.w3.org/1999/xlink" x="0px" y="0px"
	 width="150px" height="150px" viewBox="0 0 150 150" enable-background="new 0 0 150 150" xml:space="preserve">
<g>
	<path fill="#333333" d="M141.741,102.238l-23.402-23.4V5.556c0-0.349-0.035-0.69-0.098-1.022c-0.004-0.018-0.005-0.035-0.009-0.054
		c-0.065-0.335-0.163-0.657-0.286-0.966c-0.009-0.023-0.016-0.047-0.025-0.069c-0.131-0.317-0.291-0.62-0.477-0.905
		c-0.012-0.018-0.021-0.038-0.033-0.057c-0.41-0.614-0.938-1.145-1.555-1.554c-0.019-0.013-0.038-0.022-0.059-0.036
		c-0.283-0.184-0.586-0.344-0.902-0.475c-0.023-0.01-0.047-0.017-0.07-0.025c-0.311-0.123-0.631-0.221-0.965-0.286
		c-0.019-0.003-0.037-0.005-0.055-0.009C113.474,0.036,113.132,0,112.784,0H37.165c-0.35,0-0.691,0.036-1.021,0.098
		c-0.018,0.004-0.036,0.006-0.055,0.009c-0.334,0.065-0.655,0.163-0.965,0.286c-0.023,0.009-0.048,0.016-0.071,0.025
		c-0.316,0.131-0.618,0.291-0.902,0.475c-0.021,0.014-0.04,0.023-0.058,0.036c-0.617,0.409-1.145,0.939-1.556,1.554
		c-0.012,0.019-0.021,0.039-0.033,0.057c-0.186,0.285-0.345,0.588-0.477,0.905c-0.009,0.022-0.017,0.046-0.025,0.069
		c-0.123,0.309-0.221,0.631-0.286,0.966c-0.003,0.019-0.005,0.036-0.009,0.054c-0.062,0.332-0.098,0.674-0.098,1.022v73.315
		L8.26,102.22c-2.156,2.155-2.172,5.646-0.036,7.821l37.563,38.258c1.037,1.057,2.457,1.656,3.938,1.663c0.009,0,0.017,0,0.025,0
		c1.474,0,2.886-0.585,3.928-1.626l21.538-21.535l21.579,21.572c1.042,1.042,2.455,1.627,3.929,1.627c0.014,0,0.029,0,0.043,0
		c1.488-0.012,2.91-0.621,3.947-1.689l37.087-38.278C143.913,107.854,143.885,104.384,141.741,102.238z M74.974,35.509
		L50.577,11.111h48.795L74.974,35.509z M107.227,18.967v48.796L82.83,43.365L107.227,18.967z M42.72,18.967l24.397,24.398
		L42.72,67.761V18.967z M49.788,136.514l-29.779-30.328l21.074-21.074c0.006-0.006,0.012-0.012,0.018-0.017l8.356-8.356
		l25.518-25.518l30.056,30.057l-33.701,33.698c-0.016,0.014-0.031,0.022-0.045,0.036s-0.022,0.031-0.035,0.043L49.788,136.514z
		 M100.661,136.525l-17.587-17.582l29.831-29.826l17.111,17.111L100.661,136.525z"/>
</g>
</svg>
