<?xml version="1.0" encoding="utf-8"?>
<!-- Generator: Adobe Illustrator 16.0.0, SVG Export Plug-In . SVG Version: 6.00 Build 0)  -->
<!DOCTYPE svg PUBLIC "-//W3C//DTD SVG 1.1//EN" "http://www.w3.org/Graphics/SVG/1.1/DTD/svg11.dtd">
<svg version="1.1" id="Layer_1" xmlns="http://www.w3.org/2000/svg" xmlns:xlink="http://www.w3.org/1999/xlink" x="0px" y="0px"
	 width="150px" height="150px" viewBox="0 0 150 150" enable-background="new 0 0 150 150" xml:space="preserve">
<g>
	<path fill="#333333" d="M79.015,74.569L56.181,98.05c-2.139,2.198-2.09,5.716,0.111,7.855c1.079,1.05,2.477,1.572,3.871,1.572
		c1.447,0,2.895-0.562,3.984-1.683l26.671-27.426c2.125-2.185,2.093-5.675-0.073-7.82L64.074,44.131
		c-2.179-2.159-5.698-2.144-7.856,0.037c-2.16,2.18-2.144,5.697,0.037,7.856L79.015,74.569z"/>
	<path fill="#333333" d="M74.999,150C116.354,150,150,116.354,150,74.999C150,33.645,116.354,0,74.999,0C33.645,0,0,33.645,0,74.999
		C0,116.354,33.645,150,74.999,150z M74.999,11.111c35.229,0,63.89,28.66,63.89,63.888c0,35.229-28.661,63.89-63.89,63.89
		c-35.228,0-63.889-28.661-63.889-63.89C11.11,39.771,39.771,11.111,74.999,11.111z"/>
</g>
</svg>
