<?xml version="1.0" encoding="utf-8"?>
<!-- Generator: Adobe Illustrator 16.0.0, SVG Export Plug-In . SVG Version: 6.00 Build 0)  -->
<!DOCTYPE svg PUBLIC "-//W3C//DTD SVG 1.1//EN" "http://www.w3.org/Graphics/SVG/1.1/DTD/svg11.dtd">
<svg version="1.1" id="Layer_1" xmlns="http://www.w3.org/2000/svg" xmlns:xlink="http://www.w3.org/1999/xlink" x="0px" y="0px"
	 width="150px" height="150px" viewBox="0 0 150 150" enable-background="new 0 0 150 150" xml:space="preserve">
<g>
	<path fill="#333333" d="M18.188,109.861l-4.052,22.195c-0.354,1.945,0.351,3.932,1.853,5.218c1.022,0.875,2.309,1.335,3.614,1.335
		c0.612,0,1.229-0.101,1.826-0.31l30.598-10.654c7.42,1.891,15.141,2.85,22.974,2.85c41.354,0,75-26.715,75-59.551
		c0-32.838-33.646-59.553-75-59.553S0,38.106,0,70.944C0,85.349,6.433,99.057,18.188,109.861z M75,22.502
		c35.229,0,63.889,21.73,63.889,48.441c0,26.71-28.66,48.439-63.889,48.439c-7.435,0-14.741-0.976-21.717-2.9
		c-1.087-0.299-2.239-0.263-3.306,0.109l-23.198,8.079l2.904-15.915c0.36-1.971-0.368-3.982-1.907-5.265
		C17.028,94.534,11.11,82.975,11.11,70.944C11.11,44.233,39.771,22.502,75,22.502z"/>
</g>
</svg>
