<?xml version="1.0" encoding="utf-8"?>
<!-- Generator: Adobe Illustrator 16.0.0, SVG Export Plug-In . SVG Version: 6.00 Build 0)  -->
<!DOCTYPE svg PUBLIC "-//W3C//DTD SVG 1.1//EN" "http://www.w3.org/Graphics/SVG/1.1/DTD/svg11.dtd">
<svg version="1.1" id="Layer_1" xmlns="http://www.w3.org/2000/svg" xmlns:xlink="http://www.w3.org/1999/xlink" x="0px" y="0px"
	 width="150px" height="150px" viewBox="0 0 150 150" enable-background="new 0 0 150 150" xml:space="preserve">
<g>
	<path fill="#333333" d="M75.431,79.015L51.95,56.181c-2.198-2.139-5.716-2.09-7.855,0.111c-1.05,1.079-1.572,2.477-1.572,3.871
		c0,1.447,0.562,2.895,1.683,3.984l27.426,26.671c2.185,2.125,5.675,2.093,7.82-0.073l26.418-26.671
		c2.159-2.179,2.144-5.698-0.037-7.856c-2.18-2.16-5.697-2.144-7.856,0.037L75.431,79.015z"/>
	<path fill="#333333" d="M0,74.999C0,116.354,33.646,150,75.001,150C116.355,150,150,116.354,150,74.999
		C150,33.645,116.355,0,75.001,0C33.646,0,0,33.645,0,74.999z M138.889,74.999c0,35.229-28.66,63.89-63.888,63.89
		c-35.229,0-63.89-28.661-63.89-63.89c0-35.228,28.661-63.889,63.89-63.889C110.229,11.11,138.889,39.771,138.889,74.999z"/>
</g>
</svg>
