<?xml version="1.0" encoding="utf-8"?>
<!-- Generator: Adobe Illustrator 16.0.0, SVG Export Plug-In . SVG Version: 6.00 Build 0)  -->
<!DOCTYPE svg PUBLIC "-//W3C//DTD SVG 1.1//EN" "http://www.w3.org/Graphics/SVG/1.1/DTD/svg11.dtd">
<svg version="1.1" id="Layer_1" xmlns="http://www.w3.org/2000/svg" xmlns:xlink="http://www.w3.org/1999/xlink" x="0px" y="0px"
	 width="150px" height="150px" viewBox="0 0 150 150" enable-background="new 0 0 150 150" xml:space="preserve">
<g>
	<path fill="#333333" d="M149.805,78.312c0.048-1.101,0.084-2.204,0.084-3.315c0-41.284-33.594-74.879-74.885-74.879
		c-41.292,0-74.886,33.595-74.886,74.879c0,1.113,0.036,2.218,0.084,3.319L0,78.371l0.452,3.573
		c3.519,38.046,35.604,67.938,74.552,67.938c38.969,0,71.066-29.926,74.556-68.002l0.44-3.516L149.805,78.312z M104.131,100.846
		c0-10.702,8.678-19.365,19.374-19.365c4.293,0,8.247,1.413,11.457,3.776c-2.25,13.185-8.751,24.93-18.044,33.78
		C109.467,116.338,104.131,109.221,104.131,100.846z M75.004,14.156c33.445,0,60.667,27.127,60.833,60.533
		c-38.028-8.718-83.64-8.723-121.667,0C14.337,41.283,41.559,14.156,75.004,14.156z M84.641,84.725c0,5.334-4.316,9.645-9.637,9.645
		c-5.322,0-9.645-4.311-9.645-9.645c0-5.32,4.322-9.645,9.645-9.645C80.324,75.08,84.641,79.404,84.641,84.725z M33.091,119.039
		c-9.293-8.851-15.795-20.596-18.046-33.779c3.213-2.365,7.169-3.779,11.464-3.779c10.696,0,19.366,8.663,19.366,19.365
		C45.876,109.223,40.542,116.341,33.091,119.039z M50.145,130.511c-0.011-0.296-0.024-0.591-0.024-0.89
		c0-13.744,11.146-24.897,24.896-24.897c13.739,0,24.871,11.153,24.871,24.897c0,0.299-0.014,0.594-0.024,0.89
		c-7.595,3.416-16.005,5.333-24.858,5.333C66.15,135.844,57.74,133.927,50.145,130.511z"/>
</g>
</svg>
