<?xml version="1.0" encoding="utf-8"?>
<!-- Generator: Adobe Illustrator 16.0.0, SVG Export Plug-In . SVG Version: 6.00 Build 0)  -->
<!DOCTYPE svg PUBLIC "-//W3C//DTD SVG 1.1//EN" "http://www.w3.org/Graphics/SVG/1.1/DTD/svg11.dtd">
<svg version="1.1" id="Layer_1" xmlns="http://www.w3.org/2000/svg" xmlns:xlink="http://www.w3.org/1999/xlink" x="0px" y="0px"
	 width="150px" height="150px" viewBox="0 0 150 150" enable-background="new 0 0 150 150" xml:space="preserve">
<g>
	<path fill="#333333" d="M130.139,132.679V49.598c0-0.059-0.008-0.115-0.009-0.174c-0.002-0.066-0.005-0.133-0.011-0.199
		c-0.014-0.223-0.039-0.441-0.08-0.657c-0.002-0.017-0.004-0.034-0.007-0.052c-0.049-0.242-0.116-0.48-0.194-0.709
		c-0.016-0.046-0.031-0.089-0.049-0.133c-0.077-0.211-0.166-0.418-0.269-0.616c-0.012-0.022-0.021-0.046-0.032-0.067
		c-0.114-0.214-0.244-0.418-0.385-0.615c-0.031-0.045-0.066-0.088-0.101-0.133c-0.143-0.188-0.293-0.368-0.458-0.535
		c-0.008-0.01-0.014-0.019-0.021-0.025L84.75,1.639c-0.002-0.002-0.005-0.003-0.007-0.005c-0.174-0.175-0.364-0.333-0.56-0.483
		c-0.043-0.035-0.088-0.067-0.133-0.1c-0.197-0.143-0.404-0.277-0.621-0.394c-0.007-0.003-0.014-0.007-0.021-0.01
		c-0.211-0.112-0.432-0.208-0.658-0.292c-0.043-0.016-0.083-0.031-0.125-0.047C82.17,0.152,81.69,0.053,81.19,0.02
		c-0.061-0.006-0.122-0.007-0.184-0.01C80.941,0.007,80.876,0,80.809,0H37.183c-9.552,0-17.321,7.77-17.321,17.321v115.357
		c0,9.552,7.77,17.321,17.321,17.321h75.635C122.369,150,130.139,142.23,130.139,132.679z M111.229,44.042H92.577
		c-3.426,0-6.213-2.786-6.213-6.21V19.025L111.229,44.042z M30.973,132.679V17.321c0-3.425,2.785-6.21,6.21-6.21h38.071v26.721
		c0,9.551,7.771,17.32,17.323,17.32h26.45v77.526c0,3.425-2.785,6.21-6.21,6.21H37.183
		C33.758,138.889,30.973,136.104,30.973,132.679z"/>
	<path fill="#333333" d="M55.137,92.982h19.861c3.068,0,5.556-2.486,5.556-5.555s-2.487-5.556-5.556-5.556H55.137
		c-3.068,0-5.557,2.487-5.557,5.556S52.068,92.982,55.137,92.982z"/>
	<path fill="#333333" d="M93.777,106.193H55.137c-3.068,0-5.557,2.488-5.557,5.557c0,3.067,2.488,5.555,5.557,5.555h38.641
		c3.068,0,5.556-2.487,5.556-5.555C99.333,108.682,96.846,106.193,93.777,106.193z"/>
</g>
</svg>
