<?xml version="1.0" encoding="utf-8"?>
<!-- Generator: Adobe Illustrator 16.0.0, SVG Export Plug-In . SVG Version: 6.00 Build 0)  -->
<!DOCTYPE svg PUBLIC "-//W3C//DTD SVG 1.1//EN" "http://www.w3.org/Graphics/SVG/1.1/DTD/svg11.dtd">
<svg version="1.1" id="Layer_1" xmlns="http://www.w3.org/2000/svg" xmlns:xlink="http://www.w3.org/1999/xlink" x="0px" y="0px"
	 width="150px" height="150px" viewBox="0 0 150 150" enable-background="new 0 0 150 150" xml:space="preserve">
<g>
	<path fill="#333333" d="M75.005,0C33.578,0,0,33.578,0,75.003C0,116.421,33.578,150,75.005,150C116.422,150,150,116.421,150,75.003
		C150,33.578,116.422,0,75.005,0z M125.228,71.917l-15.496,14.545l3.902,20.802c0.962,5.127-1.132,10.33-5.391,13.392
		c-2.37,1.717-5.169,2.584-7.997,2.584c-2.237,0-4.474-0.544-6.514-1.641L74.997,111.49l-18.745,10.109
		c-2.032,1.105-4.276,1.641-6.503,1.641c-2.831,0-5.63-0.867-8.01-2.584c-4.242-3.062-6.333-8.265-5.381-13.392l3.912-20.802
		L24.772,71.917c-3.809-3.596-5.204-9.027-3.579-13.976c1.614-4.957,5.967-8.544,11.171-9.224l21.168-2.736l9.171-19.111
		c2.254-4.691,7.048-7.693,12.294-7.693c5.262,0,10.048,3.002,12.3,7.693l9.174,19.111l21.15,2.736
		c5.211,0.68,9.563,4.267,11.188,9.224C130.441,62.89,129.031,68.322,125.228,71.917z"/>
</g>
</svg>
