<?xml version="1.0" encoding="utf-8"?>
<!-- Generator: Adobe Illustrator 16.0.0, SVG Export Plug-In . SVG Version: 6.00 Build 0)  -->
<!DOCTYPE svg PUBLIC "-//W3C//DTD SVG 1.1//EN" "http://www.w3.org/Graphics/SVG/1.1/DTD/svg11.dtd">
<svg version="1.1" id="Layer_1" xmlns="http://www.w3.org/2000/svg" xmlns:xlink="http://www.w3.org/1999/xlink" x="0px" y="0px"
	 width="150px" height="150px" viewBox="0 0 150 150" enable-background="new 0 0 150 150" xml:space="preserve">
<g>
	<path fill="#333333" d="M25.23,150h99.604c2.389,0,4.332-1.938,4.332-4.321V4.358c0-2.39-1.943-4.334-4.332-4.334H52.455
		c-0.137,0-0.287-0.005-0.445-0.01C51.799,0.008,51.574,0,51.344,0c-1.059,0-2.586,0.141-3.637,1.36L47.502,1.6
		c-0.039,0.04-0.074,0.083-0.105,0.123L21.729,31.817c-1.002,1.174-0.924,2.436-0.863,3.45c0.016,0.251,0.033,0.513,0.033,0.791
		v109.62C20.898,148.062,22.842,150,25.23,150z M33.016,30.666l13.359-15.662v15.662H33.016z M28.74,142.158V38.509h21.557
		c2.162,0,3.92-1.758,3.92-3.92V7.868h67.105v134.29H28.74z"/>
	<path fill="#333333" d="M93.719,50.212c-4.082,0-7.92,1.589-10.805,4.476L53.805,83.796c-4.34,4.338-4.34,11.402,0.002,15.748
		c2.098,2.094,4.891,3.247,7.865,3.246c2.977,0,5.771-1.154,7.873-3.25l26.066-26.068c0.74-0.74,1.148-1.725,1.148-2.772
		c0-1.047-0.408-2.031-1.148-2.772c-1.482-1.482-4.064-1.482-5.547,0L64.002,93.993c-1.236,1.236-3.418,1.231-4.65,0.003
		c-1.283-1.284-1.285-3.373-0.002-4.653l29.111-29.109c1.402-1.404,3.27-2.178,5.258-2.178c1.986,0,3.852,0.773,5.258,2.178
		c1.406,1.41,2.182,3.277,2.182,5.262c0,1.986-0.775,3.855-2.182,5.262l-30.709,30.711c-2.191,2.188-5.102,3.395-8.199,3.395
		c-3.094,0-6.006-1.206-8.191-3.394c-2.189-2.192-3.396-5.104-3.396-8.197c0-3.096,1.205-6.006,3.395-8.195l27.668-27.667
		c0.74-0.742,1.148-1.726,1.148-2.773c0-1.047-0.408-2.031-1.146-2.771c-1.482-1.482-4.064-1.483-5.547,0L46.33,79.53
		c-3.672,3.671-5.693,8.551-5.693,13.741s2.021,10.071,5.693,13.739c3.668,3.672,8.547,5.694,13.738,5.694
		c5.193,0,10.074-2.022,13.744-5.692l30.709-30.711C107.41,73.417,109,69.578,109,65.495c0-4.082-1.59-7.92-4.477-10.805
		C101.641,51.806,97.805,50.215,93.719,50.212z"/>
</g>
</svg>
