<?xml version="1.0" encoding="utf-8"?>
<!-- Generator: Adobe Illustrator 16.0.0, SVG Export Plug-In . SVG Version: 6.00 Build 0)  -->
<!DOCTYPE svg PUBLIC "-//W3C//DTD SVG 1.1//EN" "http://www.w3.org/Graphics/SVG/1.1/DTD/svg11.dtd">
<svg version="1.1" id="Layer_1" xmlns="http://www.w3.org/2000/svg" xmlns:xlink="http://www.w3.org/1999/xlink" x="0px" y="0px"
	 width="150px" height="150px" viewBox="0 0 150 150" enable-background="new 0 0 150 150" xml:space="preserve">
<g>
	<path fill="#333333" d="M70.986,75.432l22.834-23.48c2.139-2.199,2.09-5.717-0.111-7.855c-1.08-1.051-2.477-1.572-3.871-1.572
		c-1.447,0-2.895,0.561-3.984,1.682L59.182,71.631c-2.125,2.186-2.092,5.676,0.074,7.82l26.67,26.418
		c2.18,2.16,5.699,2.145,7.857-0.037c2.16-2.18,2.143-5.697-0.037-7.855L70.986,75.432z"/>
	<path fill="#333333" d="M75.002,0C33.646,0,0,33.646,0,75.002C0,116.355,33.646,150,75.002,150C116.355,150,150,116.355,150,75.002
		C150,33.646,116.355,0,75.002,0z M75.002,138.889c-35.229,0-63.891-28.66-63.891-63.887c0-35.229,28.662-63.891,63.891-63.891
		c35.227,0,63.889,28.662,63.889,63.891C138.891,110.229,110.229,138.889,75.002,138.889z"/>
</g>
</svg>
