<?xml version="1.0" encoding="utf-8"?>
<!-- Generator: Adobe Illustrator 16.0.0, SVG Export Plug-In . SVG Version: 6.00 Build 0)  -->
<!DOCTYPE svg PUBLIC "-//W3C//DTD SVG 1.1//EN" "http://www.w3.org/Graphics/SVG/1.1/DTD/svg11.dtd">
<svg version="1.1" id="Layer_1" xmlns="http://www.w3.org/2000/svg" xmlns:xlink="http://www.w3.org/1999/xlink" x="0px" y="0px"
	 width="150px" height="150px" viewBox="0 0 150 150" enable-background="new 0 0 150 150" xml:space="preserve">
<g>
	<path fill="#333333" d="M120.021,18.376c-1.285-0.183-2.593-0.276-3.887-0.276c-8.057,0-15.653,3.518-20.949,9.672
		c-5.255-1.791-10.758-2.868-16.386-3.207v-1.023c4.532-1.91,7.53-6.354,7.53-11.271C86.329,5.504,80.827,0,74.063,0
		c-6.768,0-12.271,5.504-12.271,12.27c0,5.139,3.179,9.648,7.984,11.44v0.947c-5.116,0.425-10.138,1.471-14.955,3.112
		c-5.298-6.154-12.895-9.67-20.949-9.67c-1.295,0-2.603,0.094-3.887,0.276c-7.328,1.035-13.816,4.862-18.269,10.778
		c-4.448,5.915-6.329,13.209-5.294,20.539c0.939,6.622,4.221,12.643,9.267,17.025c-2.325,6.705-3.503,13.59-3.503,20.477
		c0,12.478,3.682,24.527,10.653,34.904l-9.978,9.98c-0.841,0.84-1.324,2.003-1.324,3.19c0,1.206,0.471,2.339,1.324,3.188
		l10.031,10.029c0.851,0.853,1.984,1.322,3.19,1.322c1.204,0,2.337-0.469,3.19-1.322l9.842-9.845
		C49.737,146.076,62.127,150,75.002,150h0.006c12.875,0,25.261-3.924,35.877-11.356l9.847,9.845
		c0.853,0.854,1.984,1.322,3.189,1.322c1.203,0,2.337-0.469,3.191-1.322l10.031-10.027c0.854-0.853,1.322-1.986,1.322-3.19
		c0-1.188-0.481-2.35-1.322-3.19l-9.978-9.98c6.972-10.381,10.653-22.437,10.653-34.918c0-6.885-1.178-13.764-3.504-20.463
		c5.041-4.381,8.322-10.4,9.262-17.029c1.037-7.332-0.844-14.626-5.293-20.536C133.832,23.238,127.345,19.411,120.021,18.376z
		 M19.555,57.824c-2.257-2.68-3.7-5.901-4.194-9.396c-0.701-4.943,0.566-9.861,3.566-13.85c3.002-3.988,7.377-6.568,12.318-7.269
		c0.861-0.12,1.736-0.181,2.604-0.181c4.475,0,8.723,1.571,12.104,4.453C34.778,37.449,25.482,46.691,19.555,57.824z M25.394,66.413
		c0.03-0.061,0.078-0.159,0.115-0.286c8.497-19.887,27.916-32.732,49.497-32.732c21.579,0,40.996,12.846,49.492,32.735
		c0.035,0.118,0.077,0.2,0.096,0.221l0.044,0.134c2.758,6.581,4.156,13.545,4.158,20.697c0,29.658-24.132,53.792-53.794,53.796
		c-29.659,0-53.79-24.126-53.792-53.782C21.21,80.034,22.608,73.067,25.394,66.413z M104.062,31.586
		c3.38-2.887,7.619-4.461,12.08-4.461c0.871,0,1.752,0.063,2.617,0.185c10.201,1.442,17.326,10.914,15.885,21.114
		c-0.498,3.498-1.941,6.722-4.197,9.404C124.522,46.695,115.231,37.455,104.062,31.586z M74.063,9.021
		c1.789,0,3.244,1.458,3.244,3.248c0,1.792-1.455,3.25-3.244,3.25c-1.793,0-3.252-1.458-3.252-3.25
		C70.812,10.479,72.271,9.021,74.063,9.021z M32.084,132.917l-6.001,6.004l-3.653-3.65l6.028-6.032
		C29.587,130.482,30.802,131.715,32.084,132.917z M127.575,135.271l-3.654,3.65l-6.003-6.004c1.276-1.196,2.49-2.43,3.624-3.679
		L127.575,135.271z"/>
	<path fill="#333333" d="M75.002,133.387c25.475-0.004,46.2-20.73,46.2-46.205c0-3.05-0.299-6.098-0.891-9.06
		c-0.421-2.106-2.268-3.636-4.395-3.636c-0.305,0-0.613,0.031-0.908,0.094c-1.183,0.234-2.202,0.915-2.871,1.916
		c-0.671,1.002-0.91,2.205-0.674,3.388c0.475,2.384,0.715,4.839,0.715,7.298c0,20.498-16.678,37.179-37.177,37.182
		c-20.498,0-37.177-16.678-37.179-37.176c0-20.498,16.679-37.177,37.213-37.177c6.592,0,13.079,1.759,18.758,5.085
		c0.691,0.407,1.479,0.623,2.279,0.623c1.594,0,3.087-0.854,3.894-2.23c0.611-1.041,0.778-2.256,0.474-3.422
		c-0.303-1.165-1.043-2.141-2.083-2.749c-7.06-4.14-15.122-6.329-23.358-6.329c-25.474,0-46.198,20.725-46.198,46.199
		C28.804,112.662,49.529,133.387,75.002,133.387z"/>
	<path fill="#333333" d="M56.946,72.611c-0.854-0.852-1.986-1.32-3.191-1.32s-2.337,0.469-3.188,1.32
		c-0.854,0.853-1.322,1.986-1.322,3.19c0,1.206,0.469,2.338,1.322,3.19l20.404,20.406c0.854,0.852,1.986,1.32,3.189,1.32
		c1.209,0,2.342-0.469,3.19-1.32l34.224-34.223c0.853-0.852,1.322-1.984,1.322-3.189c0-1.204-0.47-2.338-1.322-3.191
		c-0.854-0.852-1.986-1.32-3.191-1.32s-2.337,0.469-3.188,1.321L74.161,89.83L56.946,72.611z"/>
</g>
</svg>
