<?xml version="1.0" encoding="utf-8"?>
<!-- Generator: Adobe Illustrator 16.0.0, SVG Export Plug-In . SVG Version: 6.00 Build 0)  -->
<!DOCTYPE svg PUBLIC "-//W3C//DTD SVG 1.1//EN" "http://www.w3.org/Graphics/SVG/1.1/DTD/svg11.dtd">
<svg version="1.1" id="Layer_1" xmlns="http://www.w3.org/2000/svg" xmlns:xlink="http://www.w3.org/1999/xlink" x="0px" y="0px"
	 width="150px" height="150px" viewBox="0 0 150 150" enable-background="new 0 0 150 150" xml:space="preserve">
<g>
	<path fill="#333333" d="M146.911,78.367l-6.333,0.021l-0.185-52.656c-0.013-3.58-2.925-6.47-6.502-6.458L26.569,19.653
		c-3.578,0.014-6.469,2.925-6.456,6.503l0.133,37.547L4.739,63.756C2.112,63.766-0.009,65.902,0,68.528l0.198,56.182
		c0.01,2.627,2.146,4.747,4.772,4.737l41.85-0.147c2.626-0.01,4.749-2.146,4.739-4.771l-0.085-24.075l18.05-0.063l0.058,16.472
		l-13.75,0.051c-1.588,0.004-2.87,1.298-2.864,2.886c0.005,1.586,1.296,2.869,2.885,2.863l49.482-0.175
		c1.587-0.004,2.871-1.299,2.865-2.885c-0.006-1.588-1.298-2.871-2.885-2.865l-13.75,0.049l-0.058-16.475l29.241-0.103l0.098,27.614
		c0.005,1.609,1.315,2.91,2.926,2.904l23.323-0.082c1.611-0.006,2.911-1.315,2.905-2.927l-0.164-46.446
		C149.831,79.661,148.521,78.361,146.911,78.367z M137.767,81.775l1.763-0.008c0.253,0,0.457,0.201,0.458,0.455l0.001,0.439
		c0.001,0.253-0.202,0.459-0.454,0.459l-1.764,0.006l-6.608,0.023h-0.074c-0.252,0-0.457-0.203-0.458-0.454l0-0.441
		c-0.001-0.252,0.202-0.456,0.454-0.456h0.074L137.767,81.775z M25.879,125.004c-1.411,0.004-2.56-1.136-2.565-2.549
		c-0.005-1.412,1.137-2.562,2.547-2.566c1.414-0.006,2.562,1.135,2.567,2.548C28.434,123.85,27.292,124.999,25.879,125.004z
		 M7.066,115.371L6.911,71.423l13.363-0.048l2.513-0.009l6.917-0.024l14.769-0.053l0.048,13.495l0.046,13.207l0.009,2.484
		l0.052,14.762L7.066,115.371z M80.503,96.635c-1.743,0.007-3.16-1.402-3.166-3.144c0-0.108,0.02-0.207,0.03-0.312
		c0.153-1.594,1.477-2.849,3.112-2.854s2.969,1.239,3.133,2.833c0.011,0.103,0.032,0.204,0.033,0.31
		C83.652,95.21,82.244,96.629,80.503,96.635z M123.587,78.448c-1.61,0.006-2.911,1.315-2.905,2.927l0.011,3.142l-11.508,0.04
		l-12.575,0.045l-32.298,0.114l-12.893,0.046l-0.058-16.414c-0.009-2.626-2.146-4.748-4.772-4.738l-16.913,0.06l-0.125-35.68
		l36.974-0.13l64.444-0.228l0.179,50.79L123.587,78.448z M135.424,127.847c-1.097,0.004-1.989-0.882-1.993-1.979
		c-0.005-1.096,0.881-1.988,1.979-1.992c1.097-0.004,1.988,0.883,1.992,1.979C137.406,126.952,136.52,127.843,135.424,127.847z
		 M145.305,121.173l-19.572,0.07c-0.183,0-0.332-0.156-0.333-0.35l-0.073-20.703l-0.008-2.485l-0.041-11.431
		c-0.001-0.192,0.147-0.352,0.33-0.352l12.174-0.042l2.823-0.01l4.575-0.017c0.184-0.002,0.333,0.155,0.333,0.348l0.122,34.619
		C145.636,121.016,145.488,121.173,145.305,121.173z"/>
</g>
</svg>
