<?xml version="1.0" encoding="utf-8"?>
<!-- Generator: Adobe Illustrator 16.0.0, SVG Export Plug-In . SVG Version: 6.00 Build 0)  -->
<!DOCTYPE svg PUBLIC "-//W3C//DTD SVG 1.1//EN" "http://www.w3.org/Graphics/SVG/1.1/DTD/svg11.dtd">
<svg version="1.1" id="Layer_1" xmlns="http://www.w3.org/2000/svg" xmlns:xlink="http://www.w3.org/1999/xlink" x="0px" y="0px"
	 width="150px" height="150px" viewBox="0 0 150 150" enable-background="new 0 0 150 150" xml:space="preserve">
<g>
	<path fill="#333333" d="M53.246,68.397c5.534,0,10.037-4.503,10.037-10.037c0-5.536-4.503-10.04-10.037-10.04
		c-5.535,0-10.039,4.504-10.039,10.04C43.207,63.895,47.711,68.397,53.246,68.397z"/>
	<path fill="#333333" d="M99.128,68.397c5.534,0,10.037-4.503,10.037-10.037c0-5.536-4.503-10.04-10.037-10.04
		c-5.538,0-10.043,4.504-10.043,10.04C89.085,63.895,93.59,68.397,99.128,68.397z"/>
	<path fill="#333333" d="M75,150c41.354,0,75-33.646,75-75.005C150,33.644,116.354,0,75,0C33.645,0,0,33.644,0,74.995
		C0,116.354,33.645,150,75,150z M75,11.201c35.179,0,63.798,28.618,63.798,63.794c0,35.183-28.619,63.803-63.798,63.803
		s-63.798-28.62-63.798-63.803C11.202,39.819,39.821,11.201,75,11.201z"/>
	<path fill="#333333" d="M75,122.79c18.168,0,34.991-9.892,43.903-25.812c0.732-1.304,0.912-2.814,0.507-4.255
		c-0.406-1.441-1.35-2.639-2.653-3.367c-0.834-0.47-1.781-0.718-2.736-0.718c-2.03,0-3.904,1.101-4.887,2.866
		c-6.939,12.388-20.02,20.084-34.134,20.084c-14.118,0-27.194-7.696-34.122-20.084c-0.99-1.766-2.864-2.863-4.894-2.863
		c-0.951,0-1.895,0.245-2.729,0.711c-1.308,0.729-2.251,1.924-2.659,3.363c-0.406,1.441-0.229,2.954,0.504,4.26
		C40.009,112.898,56.829,122.79,75,122.79z"/>
</g>
</svg>
