<?xml version="1.0" encoding="utf-8"?>
<!-- Generator: Adobe Illustrator 16.0.0, SVG Export Plug-In . SVG Version: 6.00 Build 0)  -->
<!DOCTYPE svg PUBLIC "-//W3C//DTD SVG 1.1//EN" "http://www.w3.org/Graphics/SVG/1.1/DTD/svg11.dtd">
<svg version="1.1" id="Layer_1" xmlns="http://www.w3.org/2000/svg" xmlns:xlink="http://www.w3.org/1999/xlink" x="0px" y="0px"
	 width="150px" height="150px" viewBox="0 0 150 150" enable-background="new 0 0 150 150" xml:space="preserve">
<g>
	<path fill="#333333" d="M119.885,49.825c-0.891-0.104-1.68-0.18-2.437-0.25c-0.499-0.048-1.333-0.127-1.812-0.196
		c-0.192-0.277-0.551-0.847-1.112-1.944c-7.321-14.299-20.314-24.458-35.646-27.872c-3.15-0.701-6.387-1.058-9.621-1.058
		c-10.533,0-21.049,3.724-30.412,10.77c-12.404,9.333-20.98,23.457-23.042,37.897c-0.452,0.313-0.919,0.634-1.307,0.899l-0.132,0.09
		c-2.225,1.522-2.752,1.896-3.274,2.397C0.614,80.6-2.635,93.309,2.177,105.428c5.902,14.861,23.281,26.068,40.424,26.067
		c0.211,0,0.425-0.001,0.632-0.005c1.639-0.025,3.17-0.701,4.311-1.901c1.143-1.201,1.756-2.783,1.73-4.454
		c-0.052-3.398-2.775-6.164-6.071-6.164l-0.575,0.005c-12.238,0.001-25.01-8.015-29.074-18.248
		c-2.857-7.197-0.875-14.403,5.734-20.846c0.376-0.271,1.169-0.813,1.809-1.252l0.111-0.076c4.756-3.257,6.358-4.354,6.508-7.54
		c1.025-11.922,7.909-23.76,18.415-31.666c7.233-5.441,15.242-8.317,23.159-8.317c2.351,0,4.696,0.257,6.973,0.764
		c11.768,2.619,21.75,10.432,27.385,21.435c3.693,7.214,6.86,8.264,12.726,8.816c0.624,0.059,1.323,0.124,2.11,0.217
		c10.472,1.229,19.284,11.772,19.244,23.026c-0.074,21.742-26.871,30.931-38.388,33.871c-3.282,0.839-5.283,4.245-4.462,7.593
		c0.686,2.791,3.132,4.739,5.949,4.74c0,0,0,0,0.001,0c0.5,0,1.003-0.063,1.492-0.188c14.301-3.651,47.573-15.44,47.681-45.97
		C150.063,67.708,136.553,51.78,119.885,49.825z"/>
	<path fill="#333333" d="M95.054,95.269c-1.114-0.982-2.539-1.523-4.011-1.523c-1.784,0-3.477,0.789-4.645,2.166l-6.296,7.43V66.482
		c0-3.451-2.753-6.26-6.137-6.26c-3.383,0-6.137,2.809-6.137,6.26v36.979l-6.265-7.513c-1.167-1.4-2.872-2.204-4.676-2.204
		c-1.453,0-2.864,0.529-3.974,1.491c-2.577,2.235-2.891,6.193-0.699,8.824l16.94,20.315c1.161,1.393,2.855,2.196,4.675,2.204h0.135
		c2.123,0,4.111-1.151,5.227-3.015l16.491-19.468C97.896,101.486,97.613,97.526,95.054,95.269z"/>
</g>
</svg>
