<?xml version="1.0" encoding="utf-8"?>
<!-- Generator: Adobe Illustrator 16.0.0, SVG Export Plug-In . SVG Version: 6.00 Build 0)  -->
<!DOCTYPE svg PUBLIC "-//W3C//DTD SVG 1.1//EN" "http://www.w3.org/Graphics/SVG/1.1/DTD/svg11.dtd">
<svg version="1.1" id="Layer_1" xmlns="http://www.w3.org/2000/svg" xmlns:xlink="http://www.w3.org/1999/xlink" x="0px" y="0px"
	 width="150px" height="150px" viewBox="0 0 150 150" enable-background="new 0 0 150 150" xml:space="preserve">
<g>
	<path fill="#333333" d="M106.499,74.823c0-17.321-14.092-31.412-31.412-31.412c-17.321,0-31.412,14.091-31.412,31.412
		s14.091,31.412,31.412,31.412C92.407,106.235,106.499,92.145,106.499,74.823z M75.087,94.984c-11.117,0-20.162-9.045-20.162-20.161
		s9.045-20.161,20.162-20.161c11.116,0,20.161,9.045,20.161,20.161S86.203,94.984,75.087,94.984z"/>
	<path fill="#333333" d="M108.12,121.125l18.74,4.877c0.392,0.102,0.788,0.15,1.181,0.15c1.351,0,2.659-0.584,3.562-1.639
		l0.244-0.285c5.861-6.797,10.41-14.469,13.521-22.809l0.139-0.373c0.631-1.693,0.231-3.6-1.026-4.898l-13.062-13.481
		c0.369-2.639,0.559-5.269,0.559-7.844c0-2.321-0.152-4.685-0.449-7.056L144.712,55.5c1.367-1.272,1.85-3.236,1.225-4.997
		l-0.136-0.386c-2.983-8.442-7.411-16.215-13.163-23.104l-0.253-0.305c-1.153-1.381-2.997-1.982-4.739-1.543l-17.969,4.506
		c-4.262-3.272-8.92-5.902-13.908-7.846l-2.654-16.57c-0.313-1.951-1.816-3.498-3.758-3.865l-0.438-0.082
		c-9.981-1.881-20.251-1.733-30.156,0.436l-0.425,0.094c-1.902,0.418-3.348,1.969-3.631,3.896L52.2,22.741
		c-3.721,1.639-7.258,3.669-10.56,6.073l-18.495-4.829c-1.733-0.454-3.569,0.12-4.736,1.476l-0.255,0.296
		C12.293,32.553,7.745,40.226,4.636,48.563l-0.14,0.372c-0.634,1.696-0.234,3.604,1.026,4.903l13.166,13.576
		c-0.326,2.477-0.492,4.96-0.492,7.409c0,2.397,0.16,4.827,0.474,7.256L5.296,94.478c-1.372,1.272-1.856,3.237-1.232,5.001
		L4.2,99.867c2.982,8.441,7.41,16.217,13.162,23.105l0.254,0.303c0.902,1.083,2.229,1.686,3.6,1.686c0.377,0,0.76-0.046,1.137-0.141
		l18.442-4.611c4.093,3.098,8.557,5.609,13.322,7.494l2.771,17.039c0.317,1.952,1.827,3.496,3.771,3.857l0.422,0.077
		c4.654,0.878,9.367,1.323,14.006,1.323c5.393,0,10.826-0.592,16.143-1.758l0.426-0.092c1.904-0.415,3.354-1.966,3.64-3.895
		l2.56-17.299C101.458,125.38,104.897,123.432,108.12,121.125z M66.7,138.808l-2.416-14.856l0,0
		c-0.002-0.005-0.002-0.012-0.004-0.017l-0.196-1.2c-0.043-0.36-0.115-0.71-0.235-1.039c-0.301-0.963-0.889-1.813-1.716-2.409
		c-0.73-0.527-1.594-0.82-2.479-0.87c-4.785-1.693-9.216-4.142-13.199-7.289c-1.066-1.672-3.107-2.525-5.098-2.023l-0.285,0.072
		c-0.004,0-0.008,0-0.01,0.002l-1.496,0.375l-2.058,0.514c0,0-0.002,0-0.003,0.001l-14.025,3.507
		c-3.258-4.328-5.941-9.025-8.014-14.021l11.661-10.809c0.061-0.057,0.112-0.119,0.169-0.178l0.764-0.725
		c0.082-0.066,0.172-0.121,0.25-0.194c1.287-1.224,1.703-3.02,1.262-4.638c-0.49-2.73-0.74-5.484-0.74-8.187
		c0-2.711,0.252-5.482,0.748-8.235c0.004-0.017,0.008-0.035,0.01-0.053c0.025-0.121,0.051-0.241,0.07-0.361
		c0.252-1.473-0.215-2.979-1.255-4.051l-1.073-1.107c-0.078-0.08-0.164-0.146-0.246-0.22L15.838,49.199
		c2.155-4.975,4.935-9.652,8.294-13.965l15.461,4.038c0.204,0.085,0.414,0.157,0.631,0.214l1.509,0.395
		c0.391,0.102,0.788,0.151,1.184,0.151c1.061,0,2.103-0.359,2.945-1.041c0.091-0.073,0.181-0.149,0.269-0.228l0.105-0.084
		c3.778-3.021,7.969-5.41,12.454-7.111l0.448-0.164c1.624-0.586,2.795-2.016,3.047-3.725l0.139-0.93
		c0.044-0.169,0.088-0.338,0.113-0.512l2.178-14.783c6.182-0.998,12.451-1.091,18.679-0.279l2.308,14.418
		c0.002,0.005,0.002,0.01,0.004,0.014l0.222,1.385c0.002,0.015,0.007,0.028,0.009,0.042c0.01,0.057,0.025,0.112,0.039,0.169
		c0.023,0.117,0.043,0.234,0.076,0.348c0.021,0.068,0.048,0.133,0.07,0.199c0.02,0.057,0.036,0.111,0.057,0.166
		c0.009,0.021,0.011,0.044,0.02,0.064c0.006,0.016,0.016,0.027,0.021,0.043c0.09,0.221,0.198,0.434,0.319,0.637
		c0.005,0.01,0.01,0.02,0.016,0.028c0.008,0.013,0.012,0.027,0.02,0.04c0.035,0.057,0.076,0.105,0.113,0.16
		c0.057,0.081,0.111,0.162,0.172,0.239c0.063,0.079,0.126,0.155,0.193,0.231c0.06,0.066,0.121,0.135,0.186,0.199
		c0.071,0.071,0.145,0.14,0.219,0.205c0.07,0.063,0.142,0.121,0.215,0.18c0.075,0.059,0.152,0.115,0.23,0.17
		c0.082,0.057,0.168,0.109,0.255,0.161c0.063,0.038,0.128,0.079,0.194,0.114c0.057,0.03,0.111,0.06,0.168,0.087
		c0.053,0.026,0.108,0.045,0.163,0.069c0.073,0.031,0.146,0.064,0.222,0.093c0.035,0.014,0.069,0.031,0.105,0.044
		c0.008,0.003,0.02,0.006,0.026,0.008c0.067,0.024,0.134,0.045,0.201,0.066c0.005,0,0.009,0.002,0.013,0.003l0.248,0.075
		c0.002,0,0.002,0,0.002,0l0.003,0.002c5.702,1.853,10.927,4.768,15.53,8.662c0.002,0.002,0.004,0.004,0.007,0.007
		c0.022,0.02,0.044,0.038,0.065,0.059c0.002,0,0.002,0.002,0.004,0.002l0,0c0.018,0.016,0.035,0.031,0.053,0.047
		c0.025,0.021,0.057,0.05,0.06,0.054c0,0,0.002,0,0.003,0.002c0.008,0.006,0.014,0.013,0.021,0.02
		c0.025,0.021,0.053,0.035,0.078,0.058c0.128,0.108,0.258,0.214,0.396,0.307c0.029,0.021,0.062,0.034,0.091,0.054
		c0.114,0.073,0.231,0.139,0.352,0.203c0.117,0.064,0.234,0.121,0.357,0.174c0.113,0.05,0.228,0.098,0.345,0.137
		c0.144,0.049,0.289,0.086,0.437,0.121c0.104,0.025,0.204,0.055,0.31,0.07c0.224,0.039,0.452,0.058,0.681,0.063
		c0.029,0,0.057,0.008,0.084,0.008c0.006,0,0.011-0.002,0.016-0.002c0.271,0,0.545-0.033,0.815-0.083
		c0.061-0.01,0.12-0.021,0.18-0.032c0.052-0.013,0.104-0.018,0.156-0.031l1.476-0.378c0.002,0,0.005,0,0.007-0.001l5.024-1.287
		c0.001,0,0.002-0.001,0.002-0.001l10.575-2.653c3.257,4.33,5.942,9.029,8.014,14.028l-11.04,10.271
		c-0.139,0.102-0.276,0.205-0.405,0.322l-1.097,1.002c-1.21,1.103-1.756,2.756-1.441,4.363l0.101,0.552
		c0.454,2.642,0.688,5.288,0.688,7.873c0,2.765-0.263,5.573-0.771,8.354l-0.122,0.629c-0.31,1.518,0.15,3.09,1.229,4.201
		l1.064,1.098c0.014,0.014,0.029,0.023,0.043,0.037c0.187,0.188,0.385,0.366,0.604,0.521l10.771,11.119
		c-2.154,4.979-4.934,9.658-8.293,13.969l-15.742-4.094c-0.016-0.007-0.033-0.012-0.051-0.018c-0.127-0.049-0.256-0.093-0.387-0.131
		c-0.041-0.012-0.078-0.029-0.119-0.039l-1.519-0.396c-1.435-0.374-2.963-0.045-4.119,0.884l-0.421,0.335
		c-3.5,2.734-7.339,4.94-11.335,6.521l-1.35,0.506c-0.021,0.008-0.036,0.02-0.056,0.028c-0.241,0.093-0.469,0.208-0.688,0.339
		c-0.055,0.031-0.109,0.063-0.162,0.097c-0.215,0.14-0.417,0.296-0.604,0.468c-0.05,0.045-0.095,0.094-0.144,0.141
		c-0.174,0.174-0.336,0.357-0.48,0.555c-0.012,0.016-0.025,0.029-0.036,0.045c-0.164,0.229-0.302,0.477-0.421,0.732
		c-0.01,0.021-0.021,0.043-0.029,0.064c-0.115,0.253-0.215,0.514-0.284,0.787c-0.038,0.15-0.067,0.303-0.091,0.457l-0.207,1.408
		c-0.002,0.002-0.002,0.002-0.002,0.003L85.39,138.53C79.203,139.528,72.929,139.621,66.7,138.808z"/>
</g>
</svg>
