<?xml version="1.0" encoding="utf-8"?>
<!-- Generator: Adobe Illustrator 16.0.0, SVG Export Plug-In . SVG Version: 6.00 Build 0)  -->
<!DOCTYPE svg PUBLIC "-//W3C//DTD SVG 1.1//EN" "http://www.w3.org/Graphics/SVG/1.1/DTD/svg11.dtd">
<svg version="1.1" id="Layer_1" xmlns="http://www.w3.org/2000/svg" xmlns:xlink="http://www.w3.org/1999/xlink" x="0px" y="0px"
	 width="150px" height="150px" viewBox="0 0 150 150" enable-background="new 0 0 150 150" xml:space="preserve">
<g>
	<path fill="#333333" d="M125.544,47.846c-0.628-13.863-12.102-24.947-26.117-24.947c-3.369,0-6.635,0.63-9.683,1.848
		c-6.496-12.882-19.65-21.155-34.52-21.155c-21.343,0-38.707,17.363-38.707,38.706c0,2.384,0.216,4.745,0.647,7.066
		C7.045,53.032,0,62.692,0,73.938c0,14.413,11.729,26.141,26.146,26.141h23.031v5.023H41.28c-2.109,0-4.036,1.194-4.975,3.083
		c-0.939,1.888-0.728,4.145,0.545,5.826l22.862,30.197c1.05,1.387,2.689,2.201,4.429,2.201c1.74,0,3.379-0.815,4.43-2.202
		l22.858-30.196c1.273-1.682,1.484-3.938,0.545-5.826c-0.939-1.889-2.866-3.083-4.975-3.083h-8.127V94.939
		c0.01-0.139,0.015-0.276,0.015-0.417V77.578c0-3.068-2.487-5.556-5.556-5.556h-2.509l11.687-15.439l11.688,15.439h-2.277
		c-3.068,0-5.556,2.487-5.556,5.556v16.944c0,3.068,2.488,5.556,5.556,5.556h31.936c14.417,0,26.146-11.728,26.146-26.141
		C150,60.088,139.177,48.719,125.544,47.846z M123.854,88.967h-26.38v-5.833h7.895c2.109,0,4.036-1.193,4.975-3.082
		s0.728-4.146-0.544-5.826l-22.861-30.2c-1.05-1.389-2.689-2.203-4.429-2.203c-1.74,0-3.38,0.815-4.43,2.203l-22.859,30.2
		c-1.273,1.681-1.484,3.938-0.545,5.826s2.866,3.082,4.975,3.082h8.126v10.973c-0.011,0.138-0.016,0.275-0.016,0.416v16.135
		c0,3.068,2.488,5.556,5.556,5.556h2.51l-11.686,15.437l-11.687-15.437h2.278c3.068,0,5.556-2.487,5.556-5.556V94.522
		c0-3.068-2.488-5.556-5.556-5.556H26.146c-8.29,0-15.034-6.742-15.034-15.029c0-7.732,5.788-14.162,13.464-14.954
		c1.697-0.176,3.22-1.121,4.13-2.564c0.91-1.444,1.105-3.227,0.53-4.833c-1.066-2.981-1.607-6.106-1.607-9.289
		c0-15.216,12.38-27.595,27.596-27.595c12.246,0,22.859,7.868,26.41,19.58c0.528,1.743,1.877,3.117,3.611,3.676
		c1.733,0.559,3.631,0.232,5.078-0.873c2.634-2.012,5.781-3.075,9.103-3.075c8.289,0,15.033,6.744,15.033,15.034
		c0,1.172-0.139,2.348-0.411,3.496c-0.441,1.859,0.103,3.813,1.441,5.177c1.339,1.362,3.283,1.945,5.149,1.535
		c1.063-0.232,2.145-0.35,3.215-0.35c8.29,0,15.034,6.745,15.034,15.035C138.889,82.225,132.144,88.967,123.854,88.967z"/>
</g>
</svg>
