<?xml version="1.0" encoding="utf-8"?>
<!-- Generator: Adobe Illustrator 16.0.0, SVG Export Plug-In . SVG Version: 6.00 Build 0)  -->
<!DOCTYPE svg PUBLIC "-//W3C//DTD SVG 1.1//EN" "http://www.w3.org/Graphics/SVG/1.1/DTD/svg11.dtd">
<svg version="1.1" id="Layer_1" xmlns="http://www.w3.org/2000/svg" xmlns:xlink="http://www.w3.org/1999/xlink" x="0px" y="0px"
	 width="150px" height="150px" viewBox="0 0 150 150" enable-background="new 0 0 150 150" xml:space="preserve">
<g>
	<path fill="#333333" d="M0,10.709V116.36c0,5.779,4.699,10.48,10.476,10.48h62.859c0.931,0,1.762-0.556,2.123-1.422
		c0.35-0.858,0.154-1.838-0.501-2.493l-7.024-7.025c-0.434-0.43-1.008-0.665-1.615-0.665h-54.72v-103.4h103.405v53.801
		c0,0.615,0.238,1.192,0.671,1.622l7.021,7.015c0.646,0.64,1.697,0.828,2.49,0.49c0.861-0.355,1.418-1.187,1.418-2.117V10.709
		c0-5.778-4.699-10.479-10.475-10.479H10.476C4.699,0.229,0,4.931,0,10.709z"/>
	<path fill="#333333" d="M81.274,52.666L51.97,44.432c-1.99-0.56-4.13-0.007-5.601,1.451c-1.47,1.456-2.042,3.59-1.501,5.586
		l8.01,29.529c0.291,1.071,0.875,2.003,1.65,2.717l37.875,37.877l24.47,24.472c2.415,2.391,5.612,3.707,9.001,3.707
		c2.488,0,4.908-0.719,7.039-2.104c0.695-0.461,1.355-0.999,1.987-1.625l11.357-11.363c2.41-2.402,3.739-5.605,3.742-9.019
		c0.004-3.417-1.323-6.628-3.729-9.034l-2.721-2.727c-0.084-0.084-0.168-0.164-0.256-0.241l-59.51-59.522
		C83.087,53.438,82.224,52.932,81.274,52.666z M126.604,138.058c-0.217,0.142-0.476,0.219-0.729,0.219
		c-0.197,0-0.58-0.05-0.89-0.355L63.565,76.498l-4.952-18.261l18.104,5.087l58.692,58.704c0.083,0.082,0.165,0.161,0.251,0.237
		l2.477,2.48c0.305,0.307,0.369,0.66,0.369,0.904c0,0.24-0.063,0.588-0.371,0.895l-11.342,11.348
		C126.695,137.99,126.614,138.05,126.604,138.058z"/>
</g>
</svg>
