<?xml version="1.0" encoding="utf-8"?>
<!-- Generator: Adobe Illustrator 16.0.0, SVG Export Plug-In . SVG Version: 6.00 Build 0)  -->
<!DOCTYPE svg PUBLIC "-//W3C//DTD SVG 1.1//EN" "http://www.w3.org/Graphics/SVG/1.1/DTD/svg11.dtd">
<svg version="1.1" id="Layer_1" xmlns="http://www.w3.org/2000/svg" xmlns:xlink="http://www.w3.org/1999/xlink" x="0px" y="0px"
	 width="150px" height="150px" viewBox="0 0 150 150" enable-background="new 0 0 150 150" xml:space="preserve">
<g>
	<g>
		<g>
			<g>
				<g>
					<path fill="#499CFA" d="M74.748,18.362c-19.408,0-35.14,15.733-35.14,35.141c0,6.428,1.733,12.445,4.745,17.629
						c2.631,5.623,5.411,9.525,12.226,19.543c7.698,11.318,11.569,22.279,14.472,33.126c1.396,5.218,2.285,7.315,3.697,7.838
						c1.415-0.522,2.306-2.62,3.701-7.838c2.902-10.847,6.774-21.808,14.472-33.126c6.813-10.018,9.596-13.92,12.226-19.543
						c3.012-5.184,4.746-11.201,4.746-17.629C109.893,34.095,94.157,18.362,74.748,18.362z M74.748,66.838
						c-7.527,0-13.631-6.104-13.631-13.635c0-7.529,6.104-13.635,13.631-13.635c7.531,0,13.637,6.105,13.637,13.635
						C88.385,60.735,82.279,66.838,74.748,66.838z"/>
				</g>
			</g>
			<rect y="123.948" fill="#9DCE00" width="47.93" height="7.69"/>
			<rect x="47.93" y="123.948" fill="#499CFA" width="26.818" height="7.69"/>
			<rect x="94.606" y="123.948" fill="#FDC600" width="38.809" height="7.69"/>
			<rect x="133.415" y="123.948" fill="#FC615F" width="16.585" height="7.69"/>
		</g>
	</g>
</g>
</svg>
