<?xml version="1.0" encoding="utf-8"?>
<!-- Generator: Adobe Illustrator 16.0.0, SVG Export Plug-In . SVG Version: 6.00 Build 0)  -->
<!DOCTYPE svg PUBLIC "-//W3C//DTD SVG 1.1//EN" "http://www.w3.org/Graphics/SVG/1.1/DTD/svg11.dtd">
<svg version="1.1" id="Layer_1" xmlns="http://www.w3.org/2000/svg" xmlns:xlink="http://www.w3.org/1999/xlink" x="0px" y="0px"
	 width="150px" height="150px" viewBox="0 0 150 150" enable-background="new 0 0 150 150" xml:space="preserve">
<g>
	<path fill="#333333" d="M14.947,40.198c-8.082,0-14.658,6.516-14.658,14.523v40.563c0,8.004,6.576,14.516,14.658,14.516h13.359
		l48.236,36.936c2.609,2.105,5.893,3.265,9.254,3.265c2.166,0,4.262-0.466,6.205-1.372c5.145-2.371,8.467-7.531,8.467-13.148V14.522
		c0-5.605-3.315-10.767-8.451-13.15C90.055,0.461,87.962,0,85.797,0c-3.359,0-6.641,1.155-9.25,3.251l-48.24,36.947H14.947z
		 M33.566,50.165l49.795-38.137c0.044-0.033,0.088-0.068,0.13-0.104c1.058-0.861,2.608-1.052,3.851-0.474
		c1.225,0.567,2.016,1.774,2.016,3.071v120.957c0,1.295-0.787,2.495-2.029,3.068c-1.25,0.584-2.775,0.385-3.826-0.476
		c-0.048-0.038-0.094-0.075-0.142-0.11L33.566,99.834c-0.97-0.743-2.157-1.146-3.378-1.146H14.947c-1.955,0-3.547-1.526-3.547-3.404
		V54.722c0-1.881,1.592-3.412,3.547-3.412h15.241C31.41,51.31,32.598,50.907,33.566,50.165z"/>
	<path fill="#333333" d="M144.155,69.446h-27.68c-3.067,0-5.556,2.488-5.556,5.557c0,3.067,2.488,5.555,5.556,5.555h27.68
		c3.068,0,5.556-2.487,5.556-5.555C149.711,71.935,147.224,69.446,144.155,69.446z"/>
	<path fill="#333333" d="M116.48,46.569c0.943,0,1.898-0.24,2.773-0.746l23.969-13.844c2.657-1.535,3.566-4.932,2.032-7.59
		c-1.534-2.654-4.929-3.565-7.589-2.031l-23.969,13.844c-2.657,1.535-3.566,4.932-2.032,7.59
		C112.693,45.573,114.561,46.569,116.48,46.569z"/>
	<path fill="#333333" d="M143.223,118.019l-23.969-13.84c-2.658-1.536-6.055-0.624-7.59,2.033c-1.533,2.656-0.624,6.055,2.033,7.59
		l23.97,13.84c0.875,0.506,1.83,0.744,2.772,0.744c1.92,0,3.787-0.996,4.816-2.777C146.789,122.951,145.88,119.554,143.223,118.019z
		"/>
</g>
</svg>
